<?xml version="1.0" encoding="UTF-8" standalone="no"?>
<!-- Created with Inkscape (http://www.inkscape.org/) -->

<svg
   xmlns:dc="http://purl.org/dc/elements/1.1/"
   xmlns:cc="http://creativecommons.org/ns#"
   xmlns:rdf="http://www.w3.org/1999/02/22-rdf-syntax-ns#"
   xmlns:svg="http://www.w3.org/2000/svg"
   xmlns="http://www.w3.org/2000/svg"
   xmlns:sodipodi="http://sodipodi.sourceforge.net/DTD/sodipodi-0.dtd"
   xmlns:inkscape="http://www.inkscape.org/namespaces/inkscape"
   width="181.59998mm"
   height="58.567402mm"
   viewBox="0 0 181.59997 58.567402"
   version="1.1"
   id="svg2208"
   inkscape:version="0.92.5 (2060ec1f9f, 2020-04-08)"
   sodipodi:docname="rieo.svg">
  <defs
     id="defs2202">
    <marker
       inkscape:stockid="Arrow2Mstart"
       orient="auto"
       refY="0"
       refX="0"
       id="Arrow2Mstart"
       style="overflow:visible"
       inkscape:isstock="true">
      <path
         id="path1139"
         style="fill:#000000;fill-opacity:1;fill-rule:evenodd;stroke:#000000;stroke-width:0.625;stroke-linejoin:round;stroke-opacity:1"
         d="M 8.7185878,4.0337352 -2.2072895,0.01601326 8.7185884,-4.0017078 c -1.7454984,2.3720609 -1.7354408,5.6174519 -6e-7,8.035443 z"
         transform="scale(0.6)"
         inkscape:connector-curvature="0" />
    </marker>
    <marker
       inkscape:stockid="Arrow1Mstart"
       orient="auto"
       refY="0"
       refX="0"
       id="Arrow1Mstart"
       style="overflow:visible"
       inkscape:isstock="true">
      <path
         id="path1121"
         d="M 0,0 5,-5 -12.5,0 5,5 Z"
         style="fill:#000000;fill-opacity:1;fill-rule:evenodd;stroke:#000000;stroke-width:1.00000003pt;stroke-opacity:1"
         transform="matrix(0.4,0,0,0.4,4,0)"
         inkscape:connector-curvature="0" />
    </marker>
    <marker
       inkscape:stockid="Arrow1Lstart"
       orient="auto"
       refY="0"
       refX="0"
       id="Arrow1Lstart"
       style="overflow:visible"
       inkscape:isstock="true">
      <path
         id="path1115"
         d="M 0,0 5,-5 -12.5,0 5,5 Z"
         style="fill:#000000;fill-opacity:1;fill-rule:evenodd;stroke:#000000;stroke-width:1.00000003pt;stroke-opacity:1"
         transform="matrix(0.8,0,0,0.8,10,0)"
         inkscape:connector-curvature="0" />
    </marker>
    <marker
       inkscape:stockid="Arrow2Mstart"
       orient="auto"
       refY="0"
       refX="0"
       id="Arrow2Mstart-2"
       style="overflow:visible"
       inkscape:isstock="true">
      <path
         inkscape:connector-curvature="0"
         id="path1139-9"
         style="fill:#000000;fill-opacity:1;fill-rule:evenodd;stroke:#000000;stroke-width:0.625;stroke-linejoin:round;stroke-opacity:1"
         d="M 8.7185878,4.0337352 -2.2072895,0.01601326 8.7185884,-4.0017078 c -1.7454984,2.3720609 -1.7354408,5.6174519 -6e-7,8.035443 z"
         transform="scale(0.6)" />
    </marker>
    <marker
       inkscape:stockid="Arrow2Mstart"
       orient="auto"
       refY="0"
       refX="0"
       id="Arrow2Mstart-1"
       style="overflow:visible"
       inkscape:isstock="true">
      <path
         inkscape:connector-curvature="0"
         id="path1139-94"
         style="fill:#000000;fill-opacity:1;fill-rule:evenodd;stroke:#000000;stroke-width:0.625;stroke-linejoin:round;stroke-opacity:1"
         d="M 8.7185878,4.0337352 -2.2072895,0.01601326 8.7185884,-4.0017078 c -1.7454984,2.3720609 -1.7354408,5.6174519 -6e-7,8.035443 z"
         transform="scale(0.6)" />
    </marker>
    <marker
       inkscape:stockid="Arrow2Mstart"
       orient="auto"
       refY="0"
       refX="0"
       id="Arrow2Mstart-8"
       style="overflow:visible"
       inkscape:isstock="true">
      <path
         inkscape:connector-curvature="0"
         id="path1139-4"
         style="fill:#000000;fill-opacity:1;fill-rule:evenodd;stroke:#000000;stroke-width:0.625;stroke-linejoin:round;stroke-opacity:1"
         d="M 8.7185878,4.0337352 -2.2072895,0.01601326 8.7185884,-4.0017078 c -1.7454984,2.3720609 -1.7354408,5.6174519 -6e-7,8.035443 z"
         transform="scale(0.6)" />
    </marker>
  </defs>
  <sodipodi:namedview
     id="base"
     pagecolor="#ffffff"
     bordercolor="#666666"
     borderopacity="1.0"
     inkscape:pageopacity="0.0"
     inkscape:pageshadow="2"
     inkscape:zoom="1.4"
     inkscape:cx="312.8354"
     inkscape:cy="73.96771"
     inkscape:document-units="mm"
     inkscape:current-layer="layer1"
     showgrid="false"
     inkscape:window-width="1920"
     inkscape:window-height="1115"
     inkscape:window-x="1920"
     inkscape:window-y="0"
     inkscape:window-maximized="1" />
  <metadata
     id="metadata2205">
    <rdf:RDF>
      <cc:Work
         rdf:about="">
        <dc:format>image/svg+xml</dc:format>
        <dc:type
           rdf:resource="http://purl.org/dc/dcmitype/StillImage" />
        <dc:title />
      </cc:Work>
    </rdf:RDF>
  </metadata>
  <g
     inkscape:label="Layer 1"
     inkscape:groupmode="layer"
     id="layer1"
     transform="translate(-3.6343932e-7,-8.3310006)">
    <g
       aria-label="RE"
       style="font-style:normal;font-weight:normal;font-size:6.3499999px;line-height:1.25;font-family:sans-serif;text-align:end;letter-spacing:0px;word-spacing:0px;text-anchor:end;fill:#000000;fill-opacity:1;stroke:none;stroke-width:0.26458332"
       id="text2755">
      <path
         d="m 4.9970662,8.8644003 q 3.3782,0 4.9783999,1.2953997 1.6255999,1.27 1.6255999,3.8608 0,1.4478 -0.5334,2.413 -0.5334,0.9652 -1.3715999,1.5494 -0.8128,0.5588 -1.7271999,0.889 L 12.947266,27 h -2.667 L 5.8860662,19.507 h -3.6068 V 27 H -0.00673372 V 8.8644003 Z m -0.127,1.9811997 h -2.5908 v 6.731 h 2.7178 q 2.2098,0 3.2258,-0.8636 1.0159999,-0.889 1.0159999,-2.5908 0,-1.778 -1.0667999,-2.5146 -1.0668,-0.762 -3.302,-0.762 z"
         style="fill:#008000"
         id="path972" />
      <path
         d="m 25.926659,27 h -10.1346 V 8.8644003 h 10.1346 V 10.871 h -7.8486 v 5.6642 h 7.3914 v 1.9812 h -7.3914 v 6.477 h 7.8486 z"
         style="fill:#ff0000"
         id="path974" />
    </g>
    <g
       aria-label="RO"
       style="font-style:normal;font-weight:normal;font-size:6.3499999px;line-height:1.25;font-family:sans-serif;text-align:end;letter-spacing:0px;word-spacing:0px;text-anchor:end;fill:#000000;fill-opacity:1;stroke:none;stroke-width:0.26458332"
       id="text2755-5">
      <path
         d="m 54.987183,8.6104006 q 3.3782,0 4.9784,1.2953999 1.6256,1.2700005 1.6256,3.8607995 0,1.4478 -0.5334,2.413 -0.5334,0.9652 -1.3716,1.5494 -0.8128,0.5588 -1.7272,0.889 l 4.9784,8.128 h -2.667 l -4.3942,-7.493 h -3.6068 v 7.493 h -2.286 V 8.6104006 Z m -0.127,1.9812004 h -2.5908 V 17.3226 h 2.7178 q 2.2098,0 3.2258,-0.8636 1.016,-0.889 1.016,-2.5908 0,-1.777999 -1.0668,-2.514599 -1.0668,-0.762 -3.302,-0.762 z"
         style="font-size:25.39999962px;fill:#008000;stroke-width:0.26458332"
         id="path967" />
      <path
         d="m 81.606376,17.6528 q 0,2.8194 -0.9652,4.9276 -0.9398,2.0828 -2.794,3.2512 -1.8542,1.1684 -4.5974,1.1684 -2.8194,0 -4.699,-1.1684 -1.8542,-1.1684 -2.7686,-3.2766 -0.9144,-2.1082 -0.9144,-4.9276 0,-2.794 0.9144,-4.876799 0.9144,-2.0828 2.7686,-3.2512005 1.8796,-1.1683999 4.7244,-1.1683999 2.7178,0 4.572,1.1683999 1.8542,1.1430005 2.794,3.2512005 0.9652,2.082799 0.9652,4.902199 z m -14.3256,0 q 0,3.429 1.4478,5.4102 1.4478,1.9558 4.5212,1.9558 3.0988,0 4.5212,-1.9558 1.4224,-1.9812 1.4224,-5.4102 0,-3.429 -1.4224,-5.359399 -1.4224,-1.9558 -4.4958,-1.9558 -3.0734,0 -4.5466,1.9558 -1.4478,1.930399 -1.4478,5.359399 z"
         style="fill:#1f77b4;fill-opacity:1"
         id="path969" />
    </g>
    <g
       aria-label="IE"
       style="font-style:normal;font-weight:normal;font-size:6.3499999px;line-height:1.25;font-family:sans-serif;text-align:end;letter-spacing:0px;word-spacing:0px;text-anchor:end;fill:#000000;fill-opacity:1;stroke:none;stroke-width:0.26458332"
       id="text2755-2">
      <path
         d="m 106.59094,27 h -6.5532 v -1.3208 l 2.1336,-0.4826 V 10.6932 l -2.1336,-0.508 V 8.8644003 h 6.5532 V 10.1852 l -2.1336,0.508 v 14.5034 l 2.1336,0.4826 z"
         style="fill:#969600;fill-opacity:1"
         id="path962" />
      <path
         d="m 120.23071,27 h -10.1346 V 8.8644003 h 10.1346 V 10.871 h -7.8486 v 5.6642 h 7.3914 v 1.9812 h -7.3914 v 6.477 h 7.8486 z"
         style="fill:#ff0000;stroke-width:0.26458332"
         id="path964" />
    </g>
    <g
       aria-label="IO"
       style="font-style:normal;font-weight:normal;font-size:6.3499999px;line-height:1.25;font-family:sans-serif;text-align:end;letter-spacing:0px;word-spacing:0px;text-anchor:end;fill:#000000;fill-opacity:1;stroke:none;stroke-width:0.26458332"
       id="text2755-7">
      <path
         d="m 156.58105,26.746 h -6.5532 v -1.3208 l 2.1336,-0.4826 V 10.439201 l -2.1336,-0.5080005 V 8.6104006 h 6.5532 v 1.3207999 l -2.1336,0.5080005 V 24.9426 l 2.1336,0.4826 z"
         style="fill:#969600;fill-opacity:1"
         id="path957" />
      <path
         d="m 175.91042,17.6528 q 0,2.8194 -0.9652,4.9276 -0.9398,2.0828 -2.794,3.2512 -1.8542,1.1684 -4.5974,1.1684 -2.8194,0 -4.699,-1.1684 -1.8542,-1.1684 -2.7686,-3.2766 -0.9144,-2.1082 -0.9144,-4.9276 0,-2.794 0.9144,-4.876799 0.9144,-2.0828 2.7686,-3.2512005 1.8796,-1.1683999 4.7244,-1.1683999 2.7178,0 4.572,1.1683999 1.8542,1.1430005 2.794,3.2512005 0.9652,2.082799 0.9652,4.902199 z m -14.3256,0 q 0,3.429 1.4478,5.4102 1.4478,1.9558 4.5212,1.9558 3.0988,0 4.5212,-1.9558 1.4224,-1.9812 1.4224,-5.4102 0,-3.429 -1.4224,-5.359399 -1.4224,-1.9558 -4.4958,-1.9558 -3.0734,0 -4.5466,1.9558 -1.4478,1.930399 -1.4478,5.359399 z"
         style="fill:#1f77b4;fill-opacity:1"
         id="path959" />
    </g>
    <g
       aria-label="RE"
       style="font-style:normal;font-weight:normal;font-size:6.3499999px;line-height:1.25;font-family:sans-serif;text-align:end;letter-spacing:0px;word-spacing:0px;text-anchor:end;fill:#000000;fill-opacity:1;stroke:none;stroke-width:0.26458332"
       id="text2755-6">
      <path
         d="m 4.9970662,48.508802 q 3.3782,0 4.9783999,1.2954 1.6255999,1.27 1.6255999,3.8608 0,1.4478 -0.5334,2.413 -0.5334,0.9652 -1.3715999,1.5494 -0.8128,0.5588 -1.7271999,0.889 l 4.9783998,8.128 h -2.667 l -4.3941998,-7.493 h -3.6068 v 7.493 h -2.28599992 v -18.1356 z m -0.127,1.9812 h -2.5908 v 6.731 h 2.7178 q 2.2098,0 3.2258,-0.8636 1.0159999,-0.889 1.0159999,-2.5908 0,-1.778 -1.0667999,-2.5146 -1.0668,-0.762 -3.302,-0.762 z"
         style="font-size:25.39999962px;fill:#008000;stroke-width:0.26458332"
         id="path952" />
      <path
         d="m 25.926659,66.644402 h -10.1346 v -18.1356 h 10.1346 v 2.0066 h -7.8486 v 5.6642 h 7.3914 v 1.9812 h -7.3914 v 6.477 h 7.8486 z"
         style="fill:#ff0000"
         id="path954" />
    </g>
    <g
       aria-label="RO"
       style="font-style:normal;font-weight:normal;font-size:6.3499999px;line-height:1.25;font-family:sans-serif;text-align:end;letter-spacing:0px;word-spacing:0px;text-anchor:end;fill:#000000;fill-opacity:1;stroke:none;stroke-width:0.26458332"
       id="text2755-8">
      <path
         d="m 154.98718,48.508802 q 3.3782,0 4.9784,1.2954 1.6256,1.27 1.6256,3.8608 0,1.4478 -0.5334,2.413 -0.5334,0.9652 -1.3716,1.5494 -0.8128,0.5588 -1.7272,0.889 l 4.9784,8.128 h -2.667 l -4.3942,-7.493 h -3.6068 v 7.493 h -2.286 v -18.1356 z m -0.127,1.9812 h -2.5908 v 6.731 h 2.7178 q 2.2098,0 3.2258,-0.8636 1.016,-0.889 1.016,-2.5908 0,-1.778 -1.0668,-2.5146 -1.0668,-0.762 -3.302,-0.762 z"
         style="font-size:25.39999962px;fill:#008000;stroke-width:0.26458332"
         id="path947" />
      <path
         d="m 181.60638,57.551202 q 0,2.8194 -0.9652,4.9276 -0.9398,2.0828 -2.794,3.2512 -1.8542,1.1684 -4.5974,1.1684 -2.8194,0 -4.699,-1.1684 -1.8542,-1.1684 -2.7686,-3.2766 -0.9144,-2.1082 -0.9144,-4.9276 0,-2.794 0.9144,-4.8768 0.9144,-2.0828 2.7686,-3.2512 1.8796,-1.1684 4.7244,-1.1684 2.7178,0 4.572,1.1684 1.8542,1.143 2.794,3.2512 0.9652,2.0828 0.9652,4.9022 z m -14.3256,0 q 0,3.429 1.4478,5.4102 1.4478,1.9558 4.5212,1.9558 3.0988,0 4.5212,-1.9558 1.4224,-1.9812 1.4224,-5.4102 0,-3.429 -1.4224,-5.3594 -1.4224,-1.9558 -4.4958,-1.9558 -3.0734,0 -4.5466,1.9558 -1.4478,1.9304 -1.4478,5.3594 z"
         style="fill:#1f77b4;fill-opacity:1"
         id="path949" />
    </g>
    <g
       aria-label="IO"
       style="font-style:normal;font-weight:normal;font-size:6.3499999px;line-height:1.25;font-family:sans-serif;text-align:end;letter-spacing:0px;word-spacing:0px;text-anchor:end;fill:#000000;fill-opacity:1;stroke:none;stroke-width:0.26458332"
       id="text2755-23">
      <path
         d="m 56.581054,66.644402 h -6.5532 v -1.3208 l 2.1336,-0.4826 v -14.5034 l -2.1336,-0.508 v -1.3208 h 6.5532 v 1.3208 l -2.1336,0.508 v 14.5034 l 2.1336,0.4826 z"
         style="fill:#969600;fill-opacity:1"
         id="path942" />
      <path
         d="m 75.910423,57.551202 q 0,2.8194 -0.9652,4.9276 -0.9398,2.0828 -2.794,3.2512 -1.8542,1.1684 -4.5974,1.1684 -2.8194,0 -4.699,-1.1684 -1.8542,-1.1684 -2.7686,-3.2766 -0.9144,-2.1082 -0.9144,-4.9276 0,-2.794 0.9144,-4.8768 0.9144,-2.0828 2.7686,-3.2512 1.8796,-1.1684 4.7244,-1.1684 2.7178,0 4.572,1.1684 1.8542,1.143 2.794,3.2512 0.9652,2.0828 0.9652,4.9022 z m -14.3256,0 q 0,3.429 1.4478,5.4102 1.4478,1.9558 4.5212,1.9558 3.0988,0 4.5212,-1.9558 1.4224,-1.9812 1.4224,-5.4102 0,-3.429 -1.4224,-5.3594 -1.4224,-1.9558 -4.4958,-1.9558 -3.0734,0 -4.5466,1.9558 -1.4478,1.9304 -1.4478,5.3594 z"
         style="fill:#1f77b4;fill-opacity:1"
         id="path944" />
    </g>
    <g
       aria-label="IE"
       style="font-style:normal;font-weight:normal;font-size:6.3499999px;line-height:1.25;font-family:sans-serif;text-align:end;letter-spacing:0px;word-spacing:0px;text-anchor:end;fill:#000000;fill-opacity:1;stroke:none;stroke-width:0.26458332"
       id="text2755-9">
      <path
         d="m 106.59094,66.644402 h -6.5532 v -1.3208 l 2.1336,-0.4826 v -14.5034 l -2.1336,-0.508 v -1.3208 h 6.5532 v 1.3208 l -2.1336,0.508 v 14.5034 l 2.1336,0.4826 z"
         style="font-size:25.39999962px;fill:#969600;fill-opacity:1;stroke-width:0.26458332"
         id="path937" />
      <path
         d="m 120.23071,66.644402 h -10.1346 v -18.1356 h 10.1346 v 2.0066 h -7.8486 v 5.6642 h 7.3914 v 1.9812 h -7.3914 v 6.477 h 7.8486 z"
         style="fill:#ff0000"
         id="path939" />
    </g>
    <path
       style="fill:none;stroke:#000000;stroke-width:1.32291663;stroke-linecap:butt;stroke-linejoin:miter;stroke-miterlimit:4;stroke-dasharray:none;stroke-opacity:1;marker-start:url(#Arrow2Mstart)"
       d="M 12.424375,45 V 30"
       id="path2936"
       inkscape:connector-curvature="0"
       sodipodi:nodetypes="cc" />
    <path
       style="fill:none;stroke:#000000;stroke-width:1.32291663;stroke-linecap:butt;stroke-linejoin:miter;stroke-miterlimit:4;stroke-dasharray:none;stroke-opacity:1;marker-start:url(#Arrow2Mstart-2)"
       d="m 62.424375,44.999964 v -15"
       id="path2936-3"
       inkscape:connector-curvature="0"
       sodipodi:nodetypes="cc" />
    <path
       style="fill:none;stroke:#000000;stroke-width:1.32291663;stroke-linecap:butt;stroke-linejoin:miter;stroke-miterlimit:4;stroke-dasharray:none;stroke-opacity:1;marker-start:url(#Arrow2Mstart-1)"
       d="m 112.42438,44.999964 v -15"
       id="path2936-7"
       inkscape:connector-curvature="0"
       sodipodi:nodetypes="cc" />
    <path
       style="fill:none;stroke:#000000;stroke-width:1.32291663;stroke-linecap:butt;stroke-linejoin:miter;stroke-miterlimit:4;stroke-dasharray:none;stroke-opacity:1;marker-start:url(#Arrow2Mstart-8)"
       d="m 162.42438,44.999964 v -15"
       id="path2936-5"
       inkscape:connector-curvature="0"
       sodipodi:nodetypes="cc" />
  </g>
</svg>
