<?xml version="1.0" encoding="UTF-8" standalone="no"?>
<!-- Created with matplotlib (https://matplotlib.org/) -->

<svg
   xmlns:dc="http://purl.org/dc/elements/1.1/"
   xmlns:cc="http://creativecommons.org/ns#"
   xmlns:rdf="http://www.w3.org/1999/02/22-rdf-syntax-ns#"
   xmlns:svg="http://www.w3.org/2000/svg"
   xmlns="http://www.w3.org/2000/svg"
   xmlns:xlink="http://www.w3.org/1999/xlink"
   xmlns:sodipodi="http://sodipodi.sourceforge.net/DTD/sodipodi-0.dtd"
   xmlns:inkscape="http://www.inkscape.org/namespaces/inkscape"
   height="157.04103pt"
   version="1.1"
   viewBox="0 0 287.5513 157.04103"
   width="287.5513pt"
   id="svg296"
   sodipodi:docname="dft_matrix_5.svg"
   inkscape:version="0.92.3 (2405546, 2018-03-11)">
  <metadata
     id="metadata300">
    <rdf:RDF>
      <cc:Work
         rdf:about="">
        <dc:format>image/svg+xml</dc:format>
        <dc:type
           rdf:resource="http://purl.org/dc/dcmitype/StillImage" />
        <dc:title></dc:title>
      </cc:Work>
    </rdf:RDF>
  </metadata>
  <sodipodi:namedview
     pagecolor="#ffffff"
     bordercolor="#666666"
     borderopacity="1"
     objecttolerance="10"
     gridtolerance="10"
     guidetolerance="10"
     inkscape:pageopacity="0"
     inkscape:pageshadow="2"
     inkscape:window-width="1920"
     inkscape:window-height="1115"
     id="namedview298"
     showgrid="false"
     inkscape:zoom="2.172688"
     inkscape:cx="205.02348"
     inkscape:cy="89.331881"
     inkscape:window-x="1920"
     inkscape:window-y="0"
     inkscape:window-maximized="1"
     inkscape:current-layer="svg296" />
  <defs
     id="defs4"
     style="stroke-linecap:butt;stroke-linejoin:round">
    <style
       type="text/css"
       id="style2">
*{stroke-linecap:butt;stroke-linejoin:round;}
  </style>
    <defs
       id="defs24">
      <path
         d="m 37.40625,-177 c 2.1875,0 2.796875,0 2.796875,1.40625 C 40.40625,-105.5 48.5,-47.296875 83.5,1.59375 c 0.703125,0.90625 0.703125,1.109375 0.703125,1.3125 0,1 -0.703125,1 -2.296875,1 -1.609375,0 -1.8125,0 -2,-0.203125 C 79.5,3.40625 66.796875,-11.203125 56.703125,-31.296875 43.5,-57.703125 35.203125,-88 31.5,-124.40625 31.203125,-127.5 29.09375,-148.29687 29.09375,-172 v -3.90625 C 29.203125,-177 29.796875,-177 31.90625,-177 Z"
         id="CMEX10-48"
         inkscape:connector-curvature="0"
         style="stroke-linecap:butt;stroke-linejoin:round" />
      <path
         d="M 40.21875,-1.703125 C 40.21875,0.90625 40.109375,1 37.421875,1 h -5.5 c -2.703125,0 -2.8125,-0.09375 -2.8125,-2.703125 v -56.59375 C 29.109375,-60.90625 29.21875,-61 31.921875,-61 h 5.5 c 2.6875,0 2.796875,0.09375 2.796875,2.703125 z"
         id="CMEX10-66"
         inkscape:connector-curvature="0"
         style="stroke-linecap:butt;stroke-linejoin:round" />
      <path
         d="M 31.90625,5 C 29.796875,5 29.203125,5 29.09375,3.90625 V 0 c 0,-61.09375 10.90625,-96.90625 14,-107 6.8125,-22.20312 17.90625,-45.59375 34.609375,-66.20312 1.5,-1.79688 1.890625,-2.29688 2.296875,-2.5 0.203125,-0.0937 0.296875,-0.20313 1.90625,-0.20313 1.59375,0 2.296875,0 2.296875,1 0,0.20313 0,0.40625 -0.609375,1.3125 C 50.296875,-127.40625 40.296875,-71.796875 40.203125,3.59375 40.203125,5 39.59375,5 37.40625,5 Z"
         id="CMEX10-64"
         inkscape:connector-curvature="0"
         style="stroke-linecap:butt;stroke-linejoin:round" />
      <path
         d="m 90.296875,56.96875 c 2.296875,3.875 4.5,7.546875 10.500005,8.15625 0.90625,0.09375 1.79687,0.1875 1.79687,1.78125 0,1.09375 -0.89062,1.09375 -1.1875,1.09375 -0.20312,0 -0.90625,0 -7.5,0 -3,0 -6.109375,0 -9,0 -0.609375,0 -1.8125,0 -1.8125,-1.96875 C 83.09375,65.09375 83.90625,65 84.5,65 c 2,0 5.203125,-0.59375 5.203125,-3.671875 0,-1.296875 -0.40625,-2 -1.40625,-3.671875 L 61,10.125 57.40625,61.921875 C 57.40625,63.109375 58.5,65 64.09375,65 c 1.3125,0 2.3125,0 2.3125,1.96875 0,1.03125 -1,1.03125 -1.5,1.03125 -3.5,0 -7.203125,0 -10.8125,0 h -5.1875 c -1.5,0 -3.3125,0 -4.8125,0 C 43.5,68 42.296875,68 42.296875,66.03125 42.296875,65 43,65 44.703125,65 c 4.59375,0 4.59375,-0.109375 5,-6.0625 L 50,55.359375 24.09375,10.125 20.40625,61.421875 c 0,1.109375 0,3.578125 6.796875,3.578125 1.09375,0 2.203125,0 2.203125,1.859375 C 29.40625,68 28.5,68 27.90625,68 c -3.5,0 -7.203125,0 -10.8125,0 h -5.1875 c -1.5,0 -3.3125,0 -4.8125,0 C 6.5,68 5.296875,68 5.296875,66.03125 5.296875,65 6.09375,65 7.5,65 c 4.703125,0 4.796875,-0.609375 5,-3.78125 L 16.90625,0.28125 C 17,-1.40625 17.09375,-2 18.296875,-2 c 1,0 1.203125,0.390625 2.109375,1.890625 L 50.203125,51.671875 53.90625,0.28125 C 54,-1.40625 54.09375,-2 55.296875,-2 c 1,0 1.296875,0.5 2.109375,1.890625 z"
         id="CMMI12-87"
         inkscape:connector-curvature="0"
         style="stroke-linecap:butt;stroke-linejoin:round" />
      <path
         d="M 42,31.640625 C 42,37.75 41.90625,48.125 37.703125,56.109375 34,63.109375 28.09375,65.59375 22.90625,65.59375 18.09375,65.59375 12,63.40625 8.203125,56.203125 4.203125,48.71875 3.796875,39.4375 3.796875,31.640625 3.796875,25.953125 3.90625,17.28125 7,9.671875 11.296875,-0.609375 19,-2 22.90625,-2 27.5,-2 34.5,-0.109375 38.59375,9.375 41.59375,16.28125 42,24.359375 42,31.640625 Z M 22.90625,-0.40625 c -6.40625,0 -10.203125,5.484375 -11.609375,13.09375 -1.09375,5.875 -1.09375,14.46875 -1.09375,20.0625 0,7.6875 0,14.078125 1.296875,20.171875 C 13.40625,61.390625 19,64 22.90625,64 27,64 32.296875,61.296875 34.203125,53.125 35.5,47.4375 35.59375,40.734375 35.59375,32.75 c 0,-6.5 0,-14.484375 -1.1875,-20.375 -2.109375,-10.890625 -8,-12.78125 -11.5,-12.78125 z"
         id="CMR17-48"
         inkscape:connector-curvature="0"
         style="stroke-linecap:butt;stroke-linejoin:round" />
      <path
         d="M 26.59375,63.40625 C 26.59375,65.5 26.5,65.5 25.09375,65.5 21.203125,61.1875 15.296875,59.796875 9.703125,59.796875 c -0.296875,0 -0.796875,0 -0.90625,-0.296875 C 8.703125,59.296875 8.703125,59.09375 8.703125,57 11.796875,57 17,57.59375 21,59.984375 V 7.203125 C 21,3.6875 20.796875,2.5 12.203125,2.5 h -3 V 0 C 14,0 19,0 23.796875,0 28.59375,0 33.59375,0 38.40625,0 v 2.5 h -3 c -8.609375,0 -8.8125,1.09375 -8.8125,4.65625 z"
         id="CMR17-49"
         inkscape:connector-curvature="0"
         style="stroke-linecap:butt;stroke-linejoin:round" />
      <path
         d="M 41.703125,15.453125 H 39.90625 C 38.90625,8.375 38.09375,7.171875 37.703125,6.5625 37.203125,5.765625 30,5.765625 28.59375,5.765625 H 9.40625 C 13,9.671875 20,16.75 28.5,24.953125 34.59375,30.734375 41.703125,37.53125 41.703125,47.421875 41.703125,59.21875 32.296875,66 21.796875,66 10.796875,66 4.09375,56.3125 4.09375,47.34375 4.09375,43.4375 7,42.9375 8.203125,42.9375 c 1,0 4,0.609375 4,4.09375 0,3.078125 -2.609375,3.96875 -4,3.96875 C 7.59375,51 7,50.90625 6.59375,50.703125 8.5,59.21875 14.296875,63.40625 20.40625,63.40625 c 8.6875,0 14.390625,-6.890625 14.390625,-15.984375 C 34.796875,38.734375 29.703125,31.25 24,24.75 L 4.09375,2.28125 V 0 h 35.203125 z"
         id="CMR17-50"
         inkscape:connector-curvature="0"
         style="stroke-linecap:butt;stroke-linejoin:round" />
      <path
         d="M 22.09375,33.703125 C 31,33.703125 34.90625,25.96875 34.90625,17.03125 34.90625,5 28.5,0.390625 22.703125,0.390625 c -5.296875,0 -13.90625,2.640625 -16.609375,10.4375 0.5,-0.203125 1,-0.203125 1.5,-0.203125 2.40625,0 4.203125,1.59375 4.203125,4.1875 C 11.796875,17.703125 9.59375,19 7.59375,19 5.90625,19 3.296875,18.203125 3.296875,14.46875 3.296875,5.234375 12.296875,-2 22.90625,-2 34,-2 42.5,6.71875 42.5,16.953125 c 0,9.71875 -8,16.75 -17.5,17.84375 C 32.59375,36.375 39.90625,43.0625 39.90625,52.015625 39.90625,59.6875 32,65.296875 23,65.296875 c -9.09375,0 -17.09375,-5.46875 -17.09375,-13.28125 C 5.90625,48.59375 8.5,48 9.796875,48 c 2.109375,0 3.90625,1.296875 3.90625,3.890625 0,2.578125 -1.796875,3.875 -3.90625,3.875 -0.390625,0 -0.890625,0 -1.296875,-0.1875 C 11.40625,61.859375 19.296875,63 22.796875,63 c 3.5,0 10.109375,-1.671875 10.109375,-11.125 0,-2.765625 -0.40625,-7.6875 -3.8125,-12.03125 C 26.09375,36 22.703125,36 19.40625,35.6875 c -0.5,0 -2.8125,-0.234375 -3.203125,-0.234375 C 15.5,35.359375 15.09375,35.265625 15.09375,34.5 c 0,-0.703125 0.109375,-0.796875 2.109375,-0.796875 z"
         id="CMR17-51"
         inkscape:connector-curvature="0"
         style="stroke-linecap:butt;stroke-linejoin:round" />
      <path
         d="M 33.59375,64.40625 C 33.59375,66.5 33.5,66.5 31.703125,66.5 L 2,19.59375 V 17 H 27.796875 V 7.140625 C 27.796875,3.5 27.59375,2.5 20.59375,2.5 H 18.703125 V 0 c 3.203125,0 8.59375,0 12,0 3.390625,0 8.796875,0 12,0 v 2.5 h -1.90625 c -7,0 -7.203125,1 -7.203125,4.640625 V 17 h 10.203125 v 2.59375 H 33.59375 Z m -5.5,-6.546875 V 19.59375 H 4 Z"
         id="CMR17-52"
         inkscape:connector-curvature="0"
         style="stroke-linecap:butt;stroke-linejoin:round" />
      <path
         d="m 10.59375,34 c 0,23.65625 11.203125,29 17.703125,29 C 30.40625,63 35.5,62.640625 37.5,59 c -1.59375,0 -4.59375,0 -4.59375,-3.484375 0,-2.6875 2.1875,-3.59375 3.59375,-3.59375 0.90625,0 3.59375,0.390625 3.59375,3.703125 0,6.15625 -5,9.671875 -11.890625,9.671875 C 16.296875,65.296875 3.796875,52.96875 3.796875,31 3.796875,3.953125 15.09375,-2 23.09375,-2 32.796875,-2 42,6.671875 42,20.046875 42,32.515625 33.90625,41.59375 23.703125,41.59375 17.59375,41.59375 13.09375,37.609375 10.59375,30.625 Z m 12.5,-33.609375 C 10.796875,0.390625 10.796875,18.75 10.796875,22.4375 10.796875,29.625 14.203125,40 23.5,40 c 1.703125,0 6.59375,0 9.90625,-6.875 1.796875,-3.90625 1.796875,-7.984375 1.796875,-12.984375 0,-5.390625 0,-9.359375 -2.109375,-13.359375 -2.1875,-4.109375 -5.390625,-6.390625 -10,-6.390625 z"
         id="CMR17-54"
         inkscape:connector-curvature="0"
         style="stroke-linecap:butt;stroke-linejoin:round" />
      <path
         d="M 27.203125,35.375 C 33.5,38.546875 39.90625,43.328125 39.90625,50.984375 c 0,9.03125 -8.8125,14.3125 -16.90625,14.3125 -9.09375,0 -17.09375,-6.5625 -17.09375,-15.609375 0,-2.484375 0.59375,-6.765625 4.5,-10.546875 1,-0.984375 5.1875,-3.96875 7.890625,-5.859375 -4.5,-2.296875 -15,-7.75 -15,-18.6875 C 3.296875,4.359375 13.09375,-2 22.796875,-2 33.5,-2 42.5,5.65625 42.5,15.78125 c 0,9.0625 -6.09375,13.234375 -10.09375,15.921875 z M 14.09375,44.09375 c -0.796875,0.5 -4.796875,3.578125 -4.796875,8.265625 0,6.0625 6.296875,10.640625 13.5,10.640625 C 30.703125,63 36.5,57.4375 36.5,50.96875 36.5,41.703125 26.09375,36.421875 25.59375,36.421875 c -0.09375,0 -0.1875,0 -1,0.609375 z M 32.5,23.734375 C 34,22.640625 38.796875,19.375 38.796875,13.296875 38.796875,5.953125 31.40625,0.390625 23,0.390625 c -9.09375,0 -16,6.453125 -16,14.296875 0,7.859375 6.09375,14.40625 13,17.5 z"
         id="CMR17-56"
         inkscape:connector-curvature="0"
         style="stroke-linecap:butt;stroke-linejoin:round" />
      <path
         d="m 35.203125,29.125 c 0,-21.875 -9.109375,-28.640625 -16.609375,-28.640625 -2.296875,0 -7.890625,0 -10.1875,4.109375 2.59375,-0.40625 4.5,0.984375 4.5,3.5 0,2.71875 -2.203125,3.609375 -3.609375,3.609375 -0.890625,0 -3.59375,-0.40625 -3.59375,-3.796875 C 5.703125,1.109375 11.59375,-2 18.796875,-2 30.296875,-2 42,10.53125 42,32.390625 c 0,27.25 -11.203125,32.90625 -18.796875,32.90625 -9.90625,0 -19.40625,-8.609375 -19.40625,-21.890625 C 3.796875,31.109375 11.90625,22 22.09375,22 30.5,22 34.203125,29.734375 35.203125,33 Z m -12.90625,-5.53125 c -2.703125,0 -6.5,0.5 -9.59375,6.4375 -2.109375,3.859375 -2.109375,8.421875 -2.109375,13.265625 0,5.859375 0,9.90625 2.8125,14.265625 1.390625,2.078125 4,5.4375 9.796875,5.4375 C 35,63 35,45.078125 35,41.125 35,34.09375 31.796875,23.59375 22.296875,23.59375 Z"
         id="CMR17-57"
         inkscape:connector-curvature="0"
         style="stroke-linecap:butt;stroke-linejoin:round" />
      <path
         d="m 58.296875,-172 c 0,61.09375 -10.890625,96.90625 -14,107 C 37.5,-42.796875 26.40625,-19.40625 9.703125,1.203125 8.203125,3 7.796875,3.5 7.40625,3.703125 7.203125,3.796875 7.09375,3.90625 5.5,3.90625 c -1.5,0 -2.296875,0 -2.296875,-1 0,-0.203125 0,-0.40625 1.296875,-2.203125 C 39.296875,-47.90625 47.09375,-107.90625 47.203125,-175.59375 47.203125,-177 47.796875,-177 50,-177 h 5.5 c 2.09375,0 2.703125,0 2.796875,1.09375 z"
         id="CMEX10-49"
         inkscape:connector-curvature="0"
         style="stroke-linecap:butt;stroke-linejoin:round" />
      <path
         d="M 58.328125,-1.703125 C 58.328125,0.90625 58.234375,1 55.53125,1 h -5.5 C 47.328125,1 47.234375,0.90625 47.234375,-1.703125 v -56.59375 C 47.234375,-60.90625 47.328125,-61 50.03125,-61 h 5.5 c 2.703125,0 2.796875,0.09375 2.796875,2.703125 z"
         id="CMEX10-67"
         inkscape:connector-curvature="0"
         style="stroke-linecap:butt;stroke-linejoin:round" />
      <path
         d="M 58.296875,3.90625 C 58.203125,5 57.59375,5 55.5,5 H 50 c -2.203125,0 -2.796875,0 -2.796875,-1.40625 0,-10.296875 -0.109375,-34.09375 -2.703125,-59 -5.40625,-51.6875 -18.703125,-87.5 -40.59375,-118.1875 -0.703125,-0.90625 -0.703125,-1.10937 -0.703125,-1.3125 0,-1 0.796875,-1 2.296875,-1 1.59375,0 1.796875,0 2,0.20313 0.40625,0.29687 13.09375,14.90625 23.203125,35 13.203125,26.40624 21.5,56.70312 25.203125,93.10937 C 56.203125,-44.5 58.296875,-23.703125 58.296875,0 Z"
         id="CMEX10-65"
         inkscape:connector-curvature="0"
         style="stroke-linecap:butt;stroke-linejoin:round" />
    </defs>
  </defs>
  <g
     style="stroke-linecap:butt;stroke-linejoin:round"
     id="patch_1"
     transform="translate(-8.9307593,-26.999605)">
    <path
       inkscape:connector-curvature="0"
       id="path6"
       style="fill:none;stroke-linecap:butt;stroke-linejoin:round"
       d="M 0,192.8685 H 374.19086 V 0 H 0 Z" />
  </g>
  <g
     id="g1676"
     style="stroke-linecap:butt;stroke-linejoin:round"
     transform="translate(-8.9307593,-26.999605)">
    <use
       transform="matrix(0.05948904,0,0,-0.05948904,7.2,27.231984)"
       xlink:href="#CMEX10-48"
       id="use26"
       style="stroke-linecap:butt;stroke-linejoin:round"
       x="0"
       y="0"
       width="100%"
       height="100%" />
    <use
       transform="matrix(0.05948904,0,0,-0.05948904,7.2,37.702145)"
       xlink:href="#CMEX10-66"
       id="use28"
       style="stroke-linecap:butt;stroke-linejoin:round"
       x="0"
       y="0"
       width="100%"
       height="100%" />
    <use
       transform="matrix(0.05948904,0,0,-0.05948904,7.2,41.271516)"
       xlink:href="#CMEX10-66"
       id="use30"
       style="stroke-linecap:butt;stroke-linejoin:round"
       x="0"
       y="0"
       width="100%"
       height="100%" />
    <use
       transform="matrix(0.05948904,0,0,-0.05948904,7.2,44.840888)"
       xlink:href="#CMEX10-66"
       id="use32"
       style="stroke-linecap:butt;stroke-linejoin:round"
       x="0"
       y="0"
       width="100%"
       height="100%" />
    <use
       transform="matrix(0.05948904,0,0,-0.05948904,7.2,48.410256)"
       xlink:href="#CMEX10-66"
       id="use34"
       style="stroke-linecap:butt;stroke-linejoin:round"
       x="0"
       y="0"
       width="100%"
       height="100%" />
    <use
       transform="matrix(0.05948904,0,0,-0.05948904,7.2,51.979628)"
       xlink:href="#CMEX10-66"
       id="use36"
       style="stroke-linecap:butt;stroke-linejoin:round"
       x="0"
       y="0"
       width="100%"
       height="100%" />
    <use
       transform="matrix(0.05948904,0,0,-0.05948904,7.2,55.548996)"
       xlink:href="#CMEX10-66"
       id="use38"
       style="stroke-linecap:butt;stroke-linejoin:round"
       x="0"
       y="0"
       width="100%"
       height="100%" />
    <use
       transform="matrix(0.05948904,0,0,-0.05948904,7.2,59.118368)"
       xlink:href="#CMEX10-66"
       id="use40"
       style="stroke-linecap:butt;stroke-linejoin:round"
       x="0"
       y="0"
       width="100%"
       height="100%" />
    <use
       transform="matrix(0.05948904,0,0,-0.05948904,7.2,62.687736)"
       xlink:href="#CMEX10-66"
       id="use42"
       style="stroke-linecap:butt;stroke-linejoin:round"
       x="0"
       y="0"
       width="100%"
       height="100%" />
    <use
       transform="matrix(0.05948904,0,0,-0.05948904,7.2,66.257108)"
       xlink:href="#CMEX10-66"
       id="use44"
       style="stroke-linecap:butt;stroke-linejoin:round"
       x="0"
       y="0"
       width="100%"
       height="100%" />
    <use
       transform="matrix(0.05948904,0,0,-0.05948904,7.2,69.826476)"
       xlink:href="#CMEX10-66"
       id="use46"
       style="stroke-linecap:butt;stroke-linejoin:round"
       x="0"
       y="0"
       width="100%"
       height="100%" />
    <use
       transform="matrix(0.05948904,0,0,-0.05948904,7.2,73.395845)"
       xlink:href="#CMEX10-66"
       id="use48"
       style="stroke-linecap:butt;stroke-linejoin:round"
       x="0"
       y="0"
       width="100%"
       height="100%" />
    <use
       transform="matrix(0.05948904,0,0,-0.05948904,7.2,76.965216)"
       xlink:href="#CMEX10-66"
       id="use50"
       style="stroke-linecap:butt;stroke-linejoin:round"
       x="0"
       y="0"
       width="100%"
       height="100%" />
    <use
       transform="matrix(0.05948904,0,0,-0.05948904,7.2,80.534585)"
       xlink:href="#CMEX10-66"
       id="use52"
       style="stroke-linecap:butt;stroke-linejoin:round"
       x="0"
       y="0"
       width="100%"
       height="100%" />
    <use
       transform="matrix(0.05948904,0,0,-0.05948904,7.2,84.103956)"
       xlink:href="#CMEX10-66"
       id="use54"
       style="stroke-linecap:butt;stroke-linejoin:round"
       x="0"
       y="0"
       width="100%"
       height="100%" />
    <use
       transform="matrix(0.05948904,0,0,-0.05948904,7.2,87.673325)"
       xlink:href="#CMEX10-66"
       id="use56"
       style="stroke-linecap:butt;stroke-linejoin:round"
       x="0"
       y="0"
       width="100%"
       height="100%" />
    <use
       transform="matrix(0.05948904,0,0,-0.05948904,7.2,91.242696)"
       xlink:href="#CMEX10-66"
       id="use58"
       style="stroke-linecap:butt;stroke-linejoin:round"
       x="0"
       y="0"
       width="100%"
       height="100%" />
    <use
       transform="matrix(0.05948904,0,0,-0.05948904,7.2,94.812065)"
       xlink:href="#CMEX10-66"
       id="use60"
       style="stroke-linecap:butt;stroke-linejoin:round"
       x="0"
       y="0"
       width="100%"
       height="100%" />
    <use
       transform="matrix(0.05948904,0,0,-0.05948904,7.2,98.381436)"
       xlink:href="#CMEX10-66"
       id="use62"
       style="stroke-linecap:butt;stroke-linejoin:round"
       x="0"
       y="0"
       width="100%"
       height="100%" />
    <use
       transform="matrix(0.05948904,0,0,-0.05948904,7.2,101.95081)"
       xlink:href="#CMEX10-66"
       id="use64"
       style="stroke-linecap:butt;stroke-linejoin:round"
       x="0"
       y="0"
       width="100%"
       height="100%" />
    <use
       transform="matrix(0.05948904,0,0,-0.05948904,7.2,105.52018)"
       xlink:href="#CMEX10-66"
       id="use66"
       style="stroke-linecap:butt;stroke-linejoin:round"
       x="0"
       y="0"
       width="100%"
       height="100%" />
    <use
       transform="matrix(0.05948904,0,0,-0.05948904,7.2,109.08955)"
       xlink:href="#CMEX10-66"
       id="use68"
       style="stroke-linecap:butt;stroke-linejoin:round"
       x="0"
       y="0"
       width="100%"
       height="100%" />
    <use
       transform="matrix(0.05948904,0,0,-0.05948904,7.2,112.65892)"
       xlink:href="#CMEX10-66"
       id="use70"
       style="stroke-linecap:butt;stroke-linejoin:round"
       x="0"
       y="0"
       width="100%"
       height="100%" />
    <use
       transform="matrix(0.05948904,0,0,-0.05948904,7.2,116.22829)"
       xlink:href="#CMEX10-66"
       id="use72"
       style="stroke-linecap:butt;stroke-linejoin:round"
       x="0"
       y="0"
       width="100%"
       height="100%" />
    <use
       transform="matrix(0.05948904,0,0,-0.05948904,7.2,119.79766)"
       xlink:href="#CMEX10-66"
       id="use74"
       style="stroke-linecap:butt;stroke-linejoin:round"
       x="0"
       y="0"
       width="100%"
       height="100%" />
    <use
       transform="matrix(0.05948904,0,0,-0.05948904,7.2,123.36703)"
       xlink:href="#CMEX10-66"
       id="use76"
       style="stroke-linecap:butt;stroke-linejoin:round"
       x="0"
       y="0"
       width="100%"
       height="100%" />
    <use
       transform="matrix(0.05948904,0,0,-0.05948904,7.2,126.9364)"
       xlink:href="#CMEX10-66"
       id="use78"
       style="stroke-linecap:butt;stroke-linejoin:round"
       x="0"
       y="0"
       width="100%"
       height="100%" />
    <use
       transform="matrix(0.05948904,0,0,-0.05948904,7.2,130.50577)"
       xlink:href="#CMEX10-66"
       id="use80"
       style="stroke-linecap:butt;stroke-linejoin:round"
       x="0"
       y="0"
       width="100%"
       height="100%" />
    <use
       transform="matrix(0.05948904,0,0,-0.05948904,7.2,134.07514)"
       xlink:href="#CMEX10-66"
       id="use82"
       style="stroke-linecap:butt;stroke-linejoin:round"
       x="0"
       y="0"
       width="100%"
       height="100%" />
    <use
       transform="matrix(0.05948904,0,0,-0.05948904,7.2,137.64451)"
       xlink:href="#CMEX10-66"
       id="use84"
       style="stroke-linecap:butt;stroke-linejoin:round"
       x="0"
       y="0"
       width="100%"
       height="100%" />
    <use
       transform="matrix(0.05948904,0,0,-0.05948904,7.2,141.21388)"
       xlink:href="#CMEX10-66"
       id="use86"
       style="stroke-linecap:butt;stroke-linejoin:round"
       x="0"
       y="0"
       width="100%"
       height="100%" />
    <use
       transform="matrix(0.05948904,0,0,-0.05948904,7.2,144.78325)"
       xlink:href="#CMEX10-66"
       id="use88"
       style="stroke-linecap:butt;stroke-linejoin:round"
       x="0"
       y="0"
       width="100%"
       height="100%" />
    <use
       transform="matrix(0.05948904,0,0,-0.05948904,7.2,148.35262)"
       xlink:href="#CMEX10-66"
       id="use90"
       style="stroke-linecap:butt;stroke-linejoin:round"
       x="0"
       y="0"
       width="100%"
       height="100%" />
    <use
       transform="matrix(0.05948904,0,0,-0.05948904,7.2,151.92199)"
       xlink:href="#CMEX10-66"
       id="use92"
       style="stroke-linecap:butt;stroke-linejoin:round"
       x="0"
       y="0"
       width="100%"
       height="100%" />
    <use
       transform="matrix(0.05948904,0,0,-0.05948904,7.2,155.49136)"
       xlink:href="#CMEX10-66"
       id="use94"
       style="stroke-linecap:butt;stroke-linejoin:round"
       x="0"
       y="0"
       width="100%"
       height="100%" />
    <use
       transform="matrix(0.05948904,0,0,-0.05948904,7.2,159.06073)"
       xlink:href="#CMEX10-66"
       id="use96"
       style="stroke-linecap:butt;stroke-linejoin:round"
       x="0"
       y="0"
       width="100%"
       height="100%" />
    <use
       transform="matrix(0.05948904,0,0,-0.05948904,7.2,162.6301)"
       xlink:href="#CMEX10-66"
       id="use98"
       style="stroke-linecap:butt;stroke-linejoin:round"
       x="0"
       y="0"
       width="100%"
       height="100%" />
    <use
       transform="matrix(0.05948904,0,0,-0.05948904,7.2,166.19947)"
       xlink:href="#CMEX10-66"
       id="use100"
       style="stroke-linecap:butt;stroke-linejoin:round"
       x="0"
       y="0"
       width="100%"
       height="100%" />
    <use
       transform="matrix(0.05948904,0,0,-0.05948904,7.2,169.76884)"
       xlink:href="#CMEX10-66"
       id="use102"
       style="stroke-linecap:butt;stroke-linejoin:round"
       x="0"
       y="0"
       width="100%"
       height="100%" />
    <use
       transform="matrix(0.05948904,0,0,-0.05948904,7.2,173.57615)"
       xlink:href="#CMEX10-64"
       id="use104"
       style="stroke-linecap:butt;stroke-linejoin:round"
       x="0"
       y="0"
       width="100%"
       height="100%" />
    <use
       transform="matrix(0.23910336,0,0,-0.23910336,12.405296,48.852588)"
       xlink:href="#CMMI12-87"
       id="use106"
       style="stroke-linecap:butt;stroke-linejoin:round"
       x="0"
       y="0"
       width="100%"
       height="100%" />
    <use
       transform="matrix(0.16737168,0,0,-0.16737168,37.759975,40.175715)"
       xlink:href="#CMR17-48"
       id="use108"
       style="stroke-linecap:butt;stroke-linejoin:round"
       x="0"
       y="0"
       width="100%"
       height="100%" />
    <use
       transform="matrix(0.23910336,0,0,-0.23910336,70.431485,48.852588)"
       xlink:href="#CMMI12-87"
       id="use110"
       style="fill:#d40000;stroke-linecap:butt;stroke-linejoin:round"
       x="0"
       y="0"
       width="100%"
       height="100%" />
    <use
       transform="matrix(0.16737168,0,0,-0.16737168,95.786165,40.175715)"
       xlink:href="#CMR17-48"
       id="use112"
       style="fill:#d40000;stroke-linecap:butt;stroke-linejoin:round"
       x="0"
       y="0"
       width="100%"
       height="100%" />
    <use
       transform="matrix(0.23910336,0,0,-0.23910336,128.45767,48.852588)"
       xlink:href="#CMMI12-87"
       id="use114"
       style="stroke-linecap:butt;stroke-linejoin:round"
       x="0"
       y="0"
       width="100%"
       height="100%" />
    <use
       transform="matrix(0.16737168,0,0,-0.16737168,153.81235,40.175715)"
       xlink:href="#CMR17-48"
       id="use116"
       style="stroke-linecap:butt;stroke-linejoin:round"
       x="0"
       y="0"
       width="100%"
       height="100%" />
    <use
       transform="matrix(0.23910336,0,0,-0.23910336,190.32185,48.852588)"
       xlink:href="#CMMI12-87"
       id="use118"
       style="stroke-linecap:butt;stroke-linejoin:round"
       x="0"
       y="0"
       width="100%"
       height="100%" />
    <use
       transform="matrix(0.16737168,0,0,-0.16737168,215.67653,40.175715)"
       xlink:href="#CMR17-48"
       id="use120"
       style="stroke-linecap:butt;stroke-linejoin:round"
       x="0"
       y="0"
       width="100%"
       height="100%" />
    <use
       transform="matrix(0.23910336,0,0,-0.23910336,256.02401,48.852588)"
       xlink:href="#CMMI12-87"
       id="use122"
       style="stroke-linecap:butt;stroke-linejoin:round"
       x="0"
       y="0"
       width="100%"
       height="100%" />
    <use
       transform="matrix(0.16737168,0,0,-0.16737168,281.37869,40.175715)"
       xlink:href="#CMR17-48"
       id="use124"
       style="stroke-linecap:butt;stroke-linejoin:round"
       x="0"
       y="0"
       width="100%"
       height="100%" />
    <use
       transform="matrix(0.23910336,0,0,-0.23910336,12.405296,80.175128)"
       xlink:href="#CMMI12-87"
       id="use126"
       style="stroke-linecap:butt;stroke-linejoin:round"
       x="0"
       y="0"
       width="100%"
       height="100%" />
    <use
       transform="matrix(0.16737168,0,0,-0.16737168,37.759975,71.498254)"
       xlink:href="#CMR17-48"
       id="use128"
       style="stroke-linecap:butt;stroke-linejoin:round"
       x="0"
       y="0"
       width="100%"
       height="100%" />
    <use
       transform="matrix(0.23910336,0,0,-0.23910336,70.431485,80.175128)"
       xlink:href="#CMMI12-87"
       id="use130"
       style="fill:#d40000;stroke-linecap:butt;stroke-linejoin:round"
       x="0"
       y="0"
       width="100%"
       height="100%" />
    <use
       transform="matrix(0.16737168,0,0,-0.16737168,95.786165,71.498254)"
       xlink:href="#CMR17-49"
       id="use132"
       style="fill:#d40000;stroke-linecap:butt;stroke-linejoin:round"
       x="0"
       y="0"
       width="100%"
       height="100%" />
    <use
       transform="matrix(0.23910336,0,0,-0.23910336,128.45767,80.175128)"
       xlink:href="#CMMI12-87"
       id="use134"
       style="stroke-linecap:butt;stroke-linejoin:round"
       x="0"
       y="0"
       width="100%"
       height="100%" />
    <use
       transform="matrix(0.16737168,0,0,-0.16737168,153.81235,71.498254)"
       xlink:href="#CMR17-50"
       id="use136"
       style="stroke-linecap:butt;stroke-linejoin:round"
       x="0"
       y="0"
       width="100%"
       height="100%" />
    <use
       transform="matrix(0.23910336,0,0,-0.23910336,190.32185,80.175128)"
       xlink:href="#CMMI12-87"
       id="use138"
       style="stroke-linecap:butt;stroke-linejoin:round"
       x="0"
       y="0"
       width="100%"
       height="100%" />
    <use
       transform="matrix(0.16737168,0,0,-0.16737168,215.67653,71.498254)"
       xlink:href="#CMR17-51"
       id="use140"
       style="stroke-linecap:butt;stroke-linejoin:round"
       x="0"
       y="0"
       width="100%"
       height="100%" />
    <use
       transform="matrix(0.23910336,0,0,-0.23910336,256.02401,80.175128)"
       xlink:href="#CMMI12-87"
       id="use142"
       style="stroke-linecap:butt;stroke-linejoin:round"
       x="0"
       y="0"
       width="100%"
       height="100%" />
    <use
       transform="matrix(0.16737168,0,0,-0.16737168,281.37869,71.498254)"
       xlink:href="#CMR17-52"
       id="use144"
       style="stroke-linecap:butt;stroke-linejoin:round"
       x="0"
       y="0"
       width="100%"
       height="100%" />
    <use
       transform="matrix(0.23910336,0,0,-0.23910336,12.405296,111.49767)"
       xlink:href="#CMMI12-87"
       id="use146"
       style="stroke-linecap:butt;stroke-linejoin:round"
       x="0"
       y="0"
       width="100%"
       height="100%" />
    <use
       transform="matrix(0.16737168,0,0,-0.16737168,37.759975,102.8208)"
       xlink:href="#CMR17-48"
       id="use148"
       style="stroke-linecap:butt;stroke-linejoin:round"
       x="0"
       y="0"
       width="100%"
       height="100%" />
    <use
       transform="matrix(0.23910336,0,0,-0.23910336,70.431485,111.49767)"
       xlink:href="#CMMI12-87"
       id="use150"
       style="fill:#d40000;stroke-linecap:butt;stroke-linejoin:round"
       x="0"
       y="0"
       width="100%"
       height="100%" />
    <use
       transform="matrix(0.16737168,0,0,-0.16737168,95.786165,102.8208)"
       xlink:href="#CMR17-50"
       id="use152"
       style="fill:#d40000;stroke-linecap:butt;stroke-linejoin:round"
       x="0"
       y="0"
       width="100%"
       height="100%" />
    <use
       transform="matrix(0.23910336,0,0,-0.23910336,128.45767,111.49767)"
       xlink:href="#CMMI12-87"
       id="use154"
       style="stroke-linecap:butt;stroke-linejoin:round"
       x="0"
       y="0"
       width="100%"
       height="100%" />
    <use
       transform="matrix(0.16737168,0,0,-0.16737168,153.81235,102.8208)"
       xlink:href="#CMR17-52"
       id="use156"
       style="stroke-linecap:butt;stroke-linejoin:round"
       x="0"
       y="0"
       width="100%"
       height="100%" />
    <use
       transform="matrix(0.23910336,0,0,-0.23910336,190.32185,111.49767)"
       xlink:href="#CMMI12-87"
       id="use158"
       style="stroke-linecap:butt;stroke-linejoin:round"
       x="0"
       y="0"
       width="100%"
       height="100%" />
    <use
       transform="matrix(0.16737168,0,0,-0.16737168,215.67653,102.8208)"
       xlink:href="#CMR17-54"
       id="use160"
       style="stroke-linecap:butt;stroke-linejoin:round"
       x="0"
       y="0"
       width="100%"
       height="100%" />
    <use
       transform="matrix(0.23910336,0,0,-0.23910336,256.02401,111.49767)"
       xlink:href="#CMMI12-87"
       id="use162"
       style="stroke-linecap:butt;stroke-linejoin:round"
       x="0"
       y="0"
       width="100%"
       height="100%" />
    <use
       transform="matrix(0.16737168,0,0,-0.16737168,281.37869,102.8208)"
       xlink:href="#CMR17-56"
       id="use164"
       style="stroke-linecap:butt;stroke-linejoin:round"
       x="0"
       y="0"
       width="100%"
       height="100%" />
    <use
       transform="matrix(0.23910336,0,0,-0.23910336,12.405296,142.82021)"
       xlink:href="#CMMI12-87"
       id="use166"
       style="stroke-linecap:butt;stroke-linejoin:round"
       x="0"
       y="0"
       width="100%"
       height="100%" />
    <use
       transform="matrix(0.16737168,0,0,-0.16737168,37.759975,134.14334)"
       xlink:href="#CMR17-48"
       id="use168"
       style="stroke-linecap:butt;stroke-linejoin:round"
       x="0"
       y="0"
       width="100%"
       height="100%" />
    <use
       transform="matrix(0.23910336,0,0,-0.23910336,70.431485,142.82021)"
       xlink:href="#CMMI12-87"
       id="use170"
       style="fill:#d40000;stroke-linecap:butt;stroke-linejoin:round"
       x="0"
       y="0"
       width="100%"
       height="100%" />
    <use
       transform="matrix(0.16737168,0,0,-0.16737168,95.786165,134.14334)"
       xlink:href="#CMR17-51"
       id="use172"
       style="fill:#d40000;stroke-linecap:butt;stroke-linejoin:round"
       x="0"
       y="0"
       width="100%"
       height="100%" />
    <use
       transform="matrix(0.23910336,0,0,-0.23910336,128.45767,142.82021)"
       xlink:href="#CMMI12-87"
       id="use174"
       style="stroke-linecap:butt;stroke-linejoin:round"
       x="0"
       y="0"
       width="100%"
       height="100%" />
    <use
       transform="matrix(0.16737168,0,0,-0.16737168,153.81235,134.14334)"
       xlink:href="#CMR17-54"
       id="use176"
       style="stroke-linecap:butt;stroke-linejoin:round"
       x="0"
       y="0"
       width="100%"
       height="100%" />
    <use
       transform="matrix(0.23910336,0,0,-0.23910336,190.32185,142.82021)"
       xlink:href="#CMMI12-87"
       id="use178"
       style="stroke-linecap:butt;stroke-linejoin:round"
       x="0"
       y="0"
       width="100%"
       height="100%" />
    <use
       transform="matrix(0.16737168,0,0,-0.16737168,215.67653,134.14334)"
       xlink:href="#CMR17-57"
       id="use180"
       style="stroke-linecap:butt;stroke-linejoin:round"
       x="0"
       y="0"
       width="100%"
       height="100%" />
    <use
       transform="matrix(0.23910336,0,0,-0.23910336,252.18602,142.82021)"
       xlink:href="#CMMI12-87"
       id="use182"
       style="stroke-linecap:butt;stroke-linejoin:round"
       x="0"
       y="0"
       width="100%"
       height="100%" />
    <use
       transform="matrix(0.16737168,0,0,-0.16737168,277.5407,134.14334)"
       xlink:href="#CMR17-49"
       id="use184"
       style="stroke-linecap:butt;stroke-linejoin:round"
       x="0"
       y="0"
       width="100%"
       height="100%" />
    <use
       transform="matrix(0.16737168,0,0,-0.16737168,285.21667,134.14334)"
       xlink:href="#CMR17-50"
       id="use186"
       style="stroke-linecap:butt;stroke-linejoin:round"
       x="0"
       y="0"
       width="100%"
       height="100%" />
    <use
       transform="matrix(0.23910336,0,0,-0.23910336,12.405296,174.14275)"
       xlink:href="#CMMI12-87"
       id="use188"
       style="stroke-linecap:butt;stroke-linejoin:round"
       x="0"
       y="0"
       width="100%"
       height="100%" />
    <use
       transform="matrix(0.16737168,0,0,-0.16737168,37.759975,165.46588)"
       xlink:href="#CMR17-48"
       id="use190"
       style="stroke-linecap:butt;stroke-linejoin:round"
       x="0"
       y="0"
       width="100%"
       height="100%" />
    <use
       transform="matrix(0.23910336,0,0,-0.23910336,70.431485,174.14275)"
       xlink:href="#CMMI12-87"
       id="use192"
       style="fill:#d40000;stroke-linecap:butt;stroke-linejoin:round"
       x="0"
       y="0"
       width="100%"
       height="100%" />
    <use
       transform="matrix(0.16737168,0,0,-0.16737168,95.786165,165.46588)"
       xlink:href="#CMR17-52"
       id="use194"
       style="fill:#d40000;stroke-linecap:butt;stroke-linejoin:round"
       x="0"
       y="0"
       width="100%"
       height="100%" />
    <use
       transform="matrix(0.23910336,0,0,-0.23910336,128.45767,174.14275)"
       xlink:href="#CMMI12-87"
       id="use196"
       style="stroke-linecap:butt;stroke-linejoin:round"
       x="0"
       y="0"
       width="100%"
       height="100%" />
    <use
       transform="matrix(0.16737168,0,0,-0.16737168,153.81235,165.46588)"
       xlink:href="#CMR17-56"
       id="use198"
       style="stroke-linecap:butt;stroke-linejoin:round"
       x="0"
       y="0"
       width="100%"
       height="100%" />
    <use
       transform="matrix(0.23910336,0,0,-0.23910336,186.48386,174.14275)"
       xlink:href="#CMMI12-87"
       id="use200"
       style="stroke-linecap:butt;stroke-linejoin:round"
       x="0"
       y="0"
       width="100%"
       height="100%" />
    <use
       transform="matrix(0.16737168,0,0,-0.16737168,211.83854,165.46588)"
       xlink:href="#CMR17-49"
       id="use202"
       style="stroke-linecap:butt;stroke-linejoin:round"
       x="0"
       y="0"
       width="100%"
       height="100%" />
    <use
       transform="matrix(0.16737168,0,0,-0.16737168,219.51451,165.46588)"
       xlink:href="#CMR17-50"
       id="use204"
       style="stroke-linecap:butt;stroke-linejoin:round"
       x="0"
       y="0"
       width="100%"
       height="100%" />
    <use
       transform="matrix(0.23910336,0,0,-0.23910336,252.18602,174.14275)"
       xlink:href="#CMMI12-87"
       id="use206"
       style="stroke-linecap:butt;stroke-linejoin:round"
       x="0"
       y="0"
       width="100%"
       height="100%" />
    <use
       transform="matrix(0.16737168,0,0,-0.16737168,277.5407,165.46588)"
       xlink:href="#CMR17-49"
       id="use208"
       style="stroke-linecap:butt;stroke-linejoin:round"
       x="0"
       y="0"
       width="100%"
       height="100%" />
    <use
       transform="matrix(0.16737168,0,0,-0.16737168,285.21667,165.46588)"
       xlink:href="#CMR17-54"
       id="use210"
       style="stroke-linecap:butt;stroke-linejoin:round"
       x="0"
       y="0"
       width="100%"
       height="100%" />
    <use
       transform="matrix(0.05948904,0,0,-0.05948904,293.01218,27.231984)"
       xlink:href="#CMEX10-49"
       id="use212"
       style="stroke-linecap:butt;stroke-linejoin:round"
       x="0"
       y="0"
       width="100%"
       height="100%" />
    <use
       transform="matrix(0.05948904,0,0,-0.05948904,293.01218,37.702145)"
       xlink:href="#CMEX10-67"
       id="use214"
       style="stroke-linecap:butt;stroke-linejoin:round"
       x="0"
       y="0"
       width="100%"
       height="100%" />
    <use
       transform="matrix(0.05948904,0,0,-0.05948904,293.01218,41.271516)"
       xlink:href="#CMEX10-67"
       id="use216"
       style="stroke-linecap:butt;stroke-linejoin:round"
       x="0"
       y="0"
       width="100%"
       height="100%" />
    <use
       transform="matrix(0.05948904,0,0,-0.05948904,293.01218,44.840888)"
       xlink:href="#CMEX10-67"
       id="use218"
       style="stroke-linecap:butt;stroke-linejoin:round"
       x="0"
       y="0"
       width="100%"
       height="100%" />
    <use
       transform="matrix(0.05948904,0,0,-0.05948904,293.01218,48.410256)"
       xlink:href="#CMEX10-67"
       id="use220"
       style="stroke-linecap:butt;stroke-linejoin:round"
       x="0"
       y="0"
       width="100%"
       height="100%" />
    <use
       transform="matrix(0.05948904,0,0,-0.05948904,293.01218,51.979628)"
       xlink:href="#CMEX10-67"
       id="use222"
       style="stroke-linecap:butt;stroke-linejoin:round"
       x="0"
       y="0"
       width="100%"
       height="100%" />
    <use
       transform="matrix(0.05948904,0,0,-0.05948904,293.01218,55.548996)"
       xlink:href="#CMEX10-67"
       id="use224"
       style="stroke-linecap:butt;stroke-linejoin:round"
       x="0"
       y="0"
       width="100%"
       height="100%" />
    <use
       transform="matrix(0.05948904,0,0,-0.05948904,293.01218,59.118368)"
       xlink:href="#CMEX10-67"
       id="use226"
       style="stroke-linecap:butt;stroke-linejoin:round"
       x="0"
       y="0"
       width="100%"
       height="100%" />
    <use
       transform="matrix(0.05948904,0,0,-0.05948904,293.01218,62.687736)"
       xlink:href="#CMEX10-67"
       id="use228"
       style="stroke-linecap:butt;stroke-linejoin:round"
       x="0"
       y="0"
       width="100%"
       height="100%" />
    <use
       transform="matrix(0.05948904,0,0,-0.05948904,293.01218,66.257108)"
       xlink:href="#CMEX10-67"
       id="use230"
       style="stroke-linecap:butt;stroke-linejoin:round"
       x="0"
       y="0"
       width="100%"
       height="100%" />
    <use
       transform="matrix(0.05948904,0,0,-0.05948904,293.01218,69.826476)"
       xlink:href="#CMEX10-67"
       id="use232"
       style="stroke-linecap:butt;stroke-linejoin:round"
       x="0"
       y="0"
       width="100%"
       height="100%" />
    <use
       transform="matrix(0.05948904,0,0,-0.05948904,293.01218,73.395845)"
       xlink:href="#CMEX10-67"
       id="use234"
       style="stroke-linecap:butt;stroke-linejoin:round"
       x="0"
       y="0"
       width="100%"
       height="100%" />
    <use
       transform="matrix(0.05948904,0,0,-0.05948904,293.01218,76.965216)"
       xlink:href="#CMEX10-67"
       id="use236"
       style="stroke-linecap:butt;stroke-linejoin:round"
       x="0"
       y="0"
       width="100%"
       height="100%" />
    <use
       transform="matrix(0.05948904,0,0,-0.05948904,293.01218,80.534585)"
       xlink:href="#CMEX10-67"
       id="use238"
       style="stroke-linecap:butt;stroke-linejoin:round"
       x="0"
       y="0"
       width="100%"
       height="100%" />
    <use
       transform="matrix(0.05948904,0,0,-0.05948904,293.01218,84.103956)"
       xlink:href="#CMEX10-67"
       id="use240"
       style="stroke-linecap:butt;stroke-linejoin:round"
       x="0"
       y="0"
       width="100%"
       height="100%" />
    <use
       transform="matrix(0.05948904,0,0,-0.05948904,293.01218,87.673325)"
       xlink:href="#CMEX10-67"
       id="use242"
       style="stroke-linecap:butt;stroke-linejoin:round"
       x="0"
       y="0"
       width="100%"
       height="100%" />
    <use
       transform="matrix(0.05948904,0,0,-0.05948904,293.01218,91.242696)"
       xlink:href="#CMEX10-67"
       id="use244"
       style="stroke-linecap:butt;stroke-linejoin:round"
       x="0"
       y="0"
       width="100%"
       height="100%" />
    <use
       transform="matrix(0.05948904,0,0,-0.05948904,293.01218,94.812065)"
       xlink:href="#CMEX10-67"
       id="use246"
       style="stroke-linecap:butt;stroke-linejoin:round"
       x="0"
       y="0"
       width="100%"
       height="100%" />
    <use
       transform="matrix(0.05948904,0,0,-0.05948904,293.01218,98.381436)"
       xlink:href="#CMEX10-67"
       id="use248"
       style="stroke-linecap:butt;stroke-linejoin:round"
       x="0"
       y="0"
       width="100%"
       height="100%" />
    <use
       transform="matrix(0.05948904,0,0,-0.05948904,293.01218,101.95081)"
       xlink:href="#CMEX10-67"
       id="use250"
       style="stroke-linecap:butt;stroke-linejoin:round"
       x="0"
       y="0"
       width="100%"
       height="100%" />
    <use
       transform="matrix(0.05948904,0,0,-0.05948904,293.01218,105.52018)"
       xlink:href="#CMEX10-67"
       id="use252"
       style="stroke-linecap:butt;stroke-linejoin:round"
       x="0"
       y="0"
       width="100%"
       height="100%" />
    <use
       transform="matrix(0.05948904,0,0,-0.05948904,293.01218,109.08955)"
       xlink:href="#CMEX10-67"
       id="use254"
       style="stroke-linecap:butt;stroke-linejoin:round"
       x="0"
       y="0"
       width="100%"
       height="100%" />
    <use
       transform="matrix(0.05948904,0,0,-0.05948904,293.01218,112.65892)"
       xlink:href="#CMEX10-67"
       id="use256"
       style="stroke-linecap:butt;stroke-linejoin:round"
       x="0"
       y="0"
       width="100%"
       height="100%" />
    <use
       transform="matrix(0.05948904,0,0,-0.05948904,293.01218,116.22829)"
       xlink:href="#CMEX10-67"
       id="use258"
       style="stroke-linecap:butt;stroke-linejoin:round"
       x="0"
       y="0"
       width="100%"
       height="100%" />
    <use
       transform="matrix(0.05948904,0,0,-0.05948904,293.01218,119.79766)"
       xlink:href="#CMEX10-67"
       id="use260"
       style="stroke-linecap:butt;stroke-linejoin:round"
       x="0"
       y="0"
       width="100%"
       height="100%" />
    <use
       transform="matrix(0.05948904,0,0,-0.05948904,293.01218,123.36703)"
       xlink:href="#CMEX10-67"
       id="use262"
       style="stroke-linecap:butt;stroke-linejoin:round"
       x="0"
       y="0"
       width="100%"
       height="100%" />
    <use
       transform="matrix(0.05948904,0,0,-0.05948904,293.01218,126.9364)"
       xlink:href="#CMEX10-67"
       id="use264"
       style="stroke-linecap:butt;stroke-linejoin:round"
       x="0"
       y="0"
       width="100%"
       height="100%" />
    <use
       transform="matrix(0.05948904,0,0,-0.05948904,293.01218,130.50577)"
       xlink:href="#CMEX10-67"
       id="use266"
       style="stroke-linecap:butt;stroke-linejoin:round"
       x="0"
       y="0"
       width="100%"
       height="100%" />
    <use
       transform="matrix(0.05948904,0,0,-0.05948904,293.01218,134.07514)"
       xlink:href="#CMEX10-67"
       id="use268"
       style="stroke-linecap:butt;stroke-linejoin:round"
       x="0"
       y="0"
       width="100%"
       height="100%" />
    <use
       transform="matrix(0.05948904,0,0,-0.05948904,293.01218,137.64451)"
       xlink:href="#CMEX10-67"
       id="use270"
       style="stroke-linecap:butt;stroke-linejoin:round"
       x="0"
       y="0"
       width="100%"
       height="100%" />
    <use
       transform="matrix(0.05948904,0,0,-0.05948904,293.01218,141.21388)"
       xlink:href="#CMEX10-67"
       id="use272"
       style="stroke-linecap:butt;stroke-linejoin:round"
       x="0"
       y="0"
       width="100%"
       height="100%" />
    <use
       transform="matrix(0.05948904,0,0,-0.05948904,293.01218,144.78325)"
       xlink:href="#CMEX10-67"
       id="use274"
       style="stroke-linecap:butt;stroke-linejoin:round"
       x="0"
       y="0"
       width="100%"
       height="100%" />
    <use
       transform="matrix(0.05948904,0,0,-0.05948904,293.01218,148.35262)"
       xlink:href="#CMEX10-67"
       id="use276"
       style="stroke-linecap:butt;stroke-linejoin:round"
       x="0"
       y="0"
       width="100%"
       height="100%" />
    <use
       transform="matrix(0.05948904,0,0,-0.05948904,293.01218,151.92199)"
       xlink:href="#CMEX10-67"
       id="use278"
       style="stroke-linecap:butt;stroke-linejoin:round"
       x="0"
       y="0"
       width="100%"
       height="100%" />
    <use
       transform="matrix(0.05948904,0,0,-0.05948904,293.01218,155.49136)"
       xlink:href="#CMEX10-67"
       id="use280"
       style="stroke-linecap:butt;stroke-linejoin:round"
       x="0"
       y="0"
       width="100%"
       height="100%" />
    <use
       transform="matrix(0.05948904,0,0,-0.05948904,293.01218,159.06073)"
       xlink:href="#CMEX10-67"
       id="use282"
       style="stroke-linecap:butt;stroke-linejoin:round"
       x="0"
       y="0"
       width="100%"
       height="100%" />
    <use
       transform="matrix(0.05948904,0,0,-0.05948904,293.01218,162.6301)"
       xlink:href="#CMEX10-67"
       id="use284"
       style="stroke-linecap:butt;stroke-linejoin:round"
       x="0"
       y="0"
       width="100%"
       height="100%" />
    <use
       transform="matrix(0.05948904,0,0,-0.05948904,293.01218,166.19947)"
       xlink:href="#CMEX10-67"
       id="use286"
       style="stroke-linecap:butt;stroke-linejoin:round"
       x="0"
       y="0"
       width="100%"
       height="100%" />
    <use
       transform="matrix(0.05948904,0,0,-0.05948904,293.01218,169.76884)"
       xlink:href="#CMEX10-67"
       id="use288"
       style="stroke-linecap:butt;stroke-linejoin:round"
       x="0"
       y="0"
       width="100%"
       height="100%" />
    <use
       transform="matrix(0.05948904,0,0,-0.05948904,293.01218,173.57615)"
       xlink:href="#CMEX10-65"
       id="use290"
       style="stroke-linecap:butt;stroke-linejoin:round"
       x="0"
       y="0"
       width="100%"
       height="100%" />
  </g>
</svg>
