<?xml version="1.0" encoding="UTF-8" standalone="no"?>
<svg
   xmlns:ooo="http://xml.openoffice.org/svg/export"
   xmlns:dc="http://purl.org/dc/elements/1.1/"
   xmlns:cc="http://creativecommons.org/ns#"
   xmlns:rdf="http://www.w3.org/1999/02/22-rdf-syntax-ns#"
   xmlns:svg="http://www.w3.org/2000/svg"
   xmlns="http://www.w3.org/2000/svg"
   xmlns:sodipodi="http://sodipodi.sourceforge.net/DTD/sodipodi-0.dtd"
   xmlns:inkscape="http://www.inkscape.org/namespaces/inkscape"
   version="1.2"
   width="137.90625mm"
   height="121.25372mm"
   viewBox="0 0 13790.625 12125.372"
   preserveAspectRatio="xMidYMid"
   xml:space="preserve"
   id="svg284"
   sodipodi:docname="fft15_5split.svg"
   style="fill-rule:evenodd;stroke-width:28.22200012;stroke-linejoin:round"
   inkscape:version="0.92.3 (2405546, 2018-03-11)"><metadata
   id="metadata288"><rdf:RDF><cc:Work
       rdf:about=""><dc:format>image/svg+xml</dc:format><dc:type
         rdf:resource="http://purl.org/dc/dcmitype/StillImage" /><dc:title></dc:title></cc:Work></rdf:RDF></metadata><sodipodi:namedview
   pagecolor="#ffffff"
   bordercolor="#666666"
   borderopacity="1"
   objecttolerance="10"
   gridtolerance="10"
   guidetolerance="10"
   inkscape:pageopacity="0"
   inkscape:pageshadow="2"
   inkscape:window-width="1920"
   inkscape:window-height="1115"
   id="namedview286"
   showgrid="false"
   inkscape:zoom="1.1893044"
   inkscape:cx="516.32362"
   inkscape:cy="295.47411"
   inkscape:window-x="1920"
   inkscape:window-y="0"
   inkscape:window-maximized="1"
   inkscape:current-layer="svg284" />
 <defs
   class="ClipPathGroup"
   id="defs8">
  <clipPath
   id="presentation_clip_path"
   clipPathUnits="userSpaceOnUse">
   <rect
   x="0"
   y="0"
   width="21000"
   height="29700"
   id="rect2" />
  </clipPath>
  <clipPath
   id="presentation_clip_path_shrink"
   clipPathUnits="userSpaceOnUse">
   <rect
   x="21"
   y="29"
   width="20958"
   height="29641"
   id="rect5" />
  </clipPath>
 </defs>
 <defs
   class="TextShapeIndex"
   id="defs12">
  <g
   ooo:slide="id1"
   ooo:id-list="id3"
   id="g10" />
 </defs>
 <defs
   class="EmbeddedBulletChars"
   id="defs44">
  <g
   id="bullet-char-template-57356"
   transform="matrix(4.8828125e-4,0,0,-4.8828125e-4,0,0)">
   <path
   d="M 580,1141 1163,571 580,0 -4,571 Z"
   id="path14"
   inkscape:connector-curvature="0" />
  </g>
  <g
   id="bullet-char-template-57354"
   transform="matrix(4.8828125e-4,0,0,-4.8828125e-4,0,0)">
   <path
   d="M 8,1128 H 1137 V 0 H 8 Z"
   id="path17"
   inkscape:connector-curvature="0" />
  </g>
  <g
   id="bullet-char-template-10146"
   transform="matrix(4.8828125e-4,0,0,-4.8828125e-4,0,0)">
   <path
   d="M 174,0 602,739 174,1481 1456,739 Z M 1358,739 309,1346 659,739 Z"
   id="path20"
   inkscape:connector-curvature="0" />
  </g>
  <g
   id="bullet-char-template-10132"
   transform="matrix(4.8828125e-4,0,0,-4.8828125e-4,0,0)">
   <path
   d="M 2015,739 1276,0 H 717 l 543,543 H 174 v 393 h 1086 l -543,545 h 557 z"
   id="path23"
   inkscape:connector-curvature="0" />
  </g>
  <g
   id="bullet-char-template-10007"
   transform="matrix(4.8828125e-4,0,0,-4.8828125e-4,0,0)">
   <path
   d="m 0,-2 c -7,16 -16,29 -25,39 l 381,530 c -94,256 -141,385 -141,387 0,25 13,38 40,38 9,0 21,-2 34,-5 21,4 42,12 65,25 l 27,-13 111,-251 280,301 64,-25 24,25 c 21,-10 41,-24 62,-43 C 886,937 835,863 770,784 769,783 710,716 594,584 L 774,223 c 0,-27 -21,-55 -63,-84 l 16,-20 C 717,90 699,76 672,76 641,76 570,178 457,381 L 164,-76 c -22,-34 -53,-51 -92,-51 -42,0 -63,17 -64,51 -7,9 -10,24 -10,44 0,9 1,19 2,30 z"
   id="path26"
   inkscape:connector-curvature="0" />
  </g>
  <g
   id="bullet-char-template-10004"
   transform="matrix(4.8828125e-4,0,0,-4.8828125e-4,0,0)">
   <path
   d="M 285,-33 C 182,-33 111,30 74,156 52,228 41,333 41,471 c 0,78 14,145 41,201 34,71 87,106 158,106 53,0 88,-31 106,-94 l 23,-176 c 8,-64 28,-97 59,-98 l 735,706 c 11,11 33,17 66,17 42,0 63,-15 63,-46 V 965 c 0,-36 -10,-64 -30,-84 L 442,47 C 390,-6 338,-33 285,-33 Z"
   id="path29"
   inkscape:connector-curvature="0" />
  </g>
  <g
   id="bullet-char-template-9679"
   transform="matrix(4.8828125e-4,0,0,-4.8828125e-4,0,0)">
   <path
   d="M 813,0 C 632,0 489,54 383,161 276,268 223,411 223,592 c 0,181 53,324 160,431 106,107 249,161 430,161 179,0 323,-54 432,-161 108,-107 162,-251 162,-431 0,-180 -54,-324 -162,-431 C 1136,54 992,0 813,0 Z"
   id="path32"
   inkscape:connector-curvature="0" />
  </g>
  <g
   id="bullet-char-template-8226"
   transform="matrix(4.8828125e-4,0,0,-4.8828125e-4,0,0)">
   <path
   d="m 346,457 c -73,0 -137,26 -191,78 -54,51 -81,114 -81,188 0,73 27,136 81,188 54,52 118,78 191,78 73,0 134,-26 185,-79 51,-51 77,-114 77,-187 0,-75 -25,-137 -76,-188 -50,-52 -112,-78 -186,-78 z"
   id="path35"
   inkscape:connector-curvature="0" />
  </g>
  <g
   id="bullet-char-template-8211"
   transform="matrix(4.8828125e-4,0,0,-4.8828125e-4,0,0)">
   <path
   d="M -4,459 H 1135 V 606 H -4 Z"
   id="path38"
   inkscape:connector-curvature="0" />
  </g>
  <g
   id="bullet-char-template-61548"
   transform="matrix(4.8828125e-4,0,0,-4.8828125e-4,0,0)">
   <path
   d="m 173,740 c 0,163 58,303 173,419 116,115 255,173 419,173 163,0 302,-58 418,-173 116,-116 174,-256 174,-419 0,-163 -58,-303 -174,-418 C 1067,206 928,148 765,148 601,148 462,206 346,322 231,437 173,577 173,740 Z"
   id="path41"
   inkscape:connector-curvature="0" />
  </g>
 </defs>
 <defs
   class="TextEmbeddedBitmaps"
   id="defs46" />
 <g
   id="g51"
   transform="translate(0,-17574.628)">
  <g
   id="id2"
   class="Master_Slide">
   <g
   id="bg-id2"
   class="Background" />
   <g
   id="bo-id2"
   class="BackgroundObjects" />
  </g>
 </g>
 
<rect
   style="fill:#ed1c24;fill-opacity:1;stroke-width:60.31105042;stroke-linecap:butt;stroke-linejoin:miter;stroke-miterlimit:3.5999999;stroke-dasharray:none"
   id="rect1095"
   width="793.75"
   height="11377.083"
   x="0"
   y="695.37195" /><rect
   style="fill:#f58220;fill-opacity:1;stroke-width:60.31105804;stroke-linecap:butt;stroke-linejoin:miter;stroke-miterlimit:3.5999999;stroke-dasharray:none"
   id="rect1095-3"
   width="793.75012"
   height="11377.084"
   x="767.29169"
   y="695.37" /><rect
   style="fill:#fff200;fill-opacity:1;stroke-width:60.31105804;stroke-linecap:butt;stroke-linejoin:miter;stroke-miterlimit:3.5999999;stroke-dasharray:none"
   id="rect1095-6"
   width="793.75012"
   height="11377.084"
   x="1534.5834"
   y="695.37195" /><rect
   style="fill:#00a65d;fill-opacity:1;stroke-width:60.31105804;stroke-linecap:butt;stroke-linejoin:miter;stroke-miterlimit:3.5999999;stroke-dasharray:none"
   id="rect1095-7"
   width="793.75012"
   height="11377.084"
   x="2283.8286"
   y="695.37195" /><rect
   style="fill:#0066b3;fill-opacity:1;stroke-width:60.31105804;stroke-linecap:butt;stroke-linejoin:miter;stroke-miterlimit:3.5999999;stroke-dasharray:none"
   id="rect1095-5"
   width="793.75012"
   height="11377.084"
   x="3048.7483"
   y="695.37195" /><rect
   style="fill:#ed1c24;fill-opacity:1;stroke-width:58.2660141;stroke-linecap:butt;stroke-linejoin:miter;stroke-miterlimit:3.5999999;stroke-dasharray:none"
   id="rect1095-35"
   width="740.83331"
   height="11377.084"
   x="3821.1304"
   y="695.37195" /><rect
   style="fill:#f58220;fill-opacity:1;stroke-width:60.31105804;stroke-linecap:butt;stroke-linejoin:miter;stroke-miterlimit:3.5999999;stroke-dasharray:none"
   id="rect1095-62"
   width="793.75012"
   height="11377.084"
   x="4555.3716"
   y="695.37195" /><rect
   style="fill:#fff200;fill-opacity:1;stroke-width:60.31105804;stroke-linecap:butt;stroke-linejoin:miter;stroke-miterlimit:3.5999999;stroke-dasharray:none"
   id="rect1095-9"
   width="793.75012"
   height="11377.084"
   x="5320.5776"
   y="695.37195" /><rect
   style="fill:#00a65d;fill-opacity:1;stroke-width:59.29735184;stroke-linecap:butt;stroke-linejoin:miter;stroke-miterlimit:3.5999999;stroke-dasharray:none"
   id="rect1095-1"
   width="767.29169"
   height="11377.084"
   x="6096.6758"
   y="695.37195" /><rect
   style="fill:#0066b3;fill-opacity:1;stroke-width:60.31105804;stroke-linecap:butt;stroke-linejoin:miter;stroke-miterlimit:3.5999999;stroke-dasharray:none"
   id="rect1095-2"
   width="793.75012"
   height="11377.084"
   x="6831.209"
   y="695.37195" /><rect
   style="fill:#ed1c24;fill-opacity:1;stroke-width:60.31105804;stroke-linecap:butt;stroke-linejoin:miter;stroke-miterlimit:3.5999999;stroke-dasharray:none"
   id="rect1095-70"
   width="793.75012"
   height="11377.084"
   x="7595.4253"
   y="695.37195" /><rect
   style="fill:#f58220;fill-opacity:1;stroke-width:60.31105804;stroke-linecap:butt;stroke-linejoin:miter;stroke-miterlimit:3.5999999;stroke-dasharray:none"
   id="rect1095-93"
   width="793.75012"
   height="11377.084"
   x="8361.9053"
   y="695.37195" /><rect
   style="fill:#fff200;fill-opacity:1;stroke-width:59.29735184;stroke-linecap:butt;stroke-linejoin:miter;stroke-miterlimit:3.5999999;stroke-dasharray:none"
   id="rect1095-60"
   width="767.29169"
   height="11377.084"
   x="9131.7744"
   y="695.37195" /><rect
   style="fill:#00a65d;fill-opacity:1;stroke-width:60.31105804;stroke-linecap:butt;stroke-linejoin:miter;stroke-miterlimit:3.5999999;stroke-dasharray:none"
   id="rect1095-626"
   width="793.75012"
   height="11377.084"
   x="9875.5303"
   y="695.37195" /><rect
   style="fill:#0066b3;fill-opacity:1;stroke-width:60.31105804;stroke-linecap:butt;stroke-linejoin:miter;stroke-miterlimit:3.5999999;stroke-dasharray:none"
   id="rect1095-18"
   width="793.75012"
   height="11377.084"
   x="10646.126"
   y="695.37195" /><rect
   style="fill:#ed1c24;fill-opacity:1;stroke-width:15.82371902;stroke-linecap:butt;stroke-linejoin:miter;stroke-miterlimit:3.5999999;stroke-dasharray:none"
   id="rect1095-79"
   width="793.75012"
   height="783.16675"
   x="12144"
   y="677.20789" /><rect
   style="fill:#f58220;fill-opacity:1;stroke-width:15.93027878;stroke-linecap:butt;stroke-linejoin:miter;stroke-miterlimit:3.5999999;stroke-dasharray:none"
   id="rect1095-79-2"
   width="793.75018"
   height="793.75012"
   x="12144"
   y="1460.3719" /><rect
   style="fill:#fff200;fill-opacity:1;stroke-width:15.93027878;stroke-linecap:butt;stroke-linejoin:miter;stroke-miterlimit:3.5999999;stroke-dasharray:none"
   id="rect1095-79-0"
   width="793.75018"
   height="793.75012"
   x="12144"
   y="2201.3721" /><rect
   style="fill:#00a65d;fill-opacity:1;stroke-width:15.93027878;stroke-linecap:butt;stroke-linejoin:miter;stroke-miterlimit:3.5999999;stroke-dasharray:none"
   id="rect1095-79-23"
   width="793.75018"
   height="793.75012"
   x="12144"
   y="2968.3721" /><rect
   style="fill:#0066b3;fill-opacity:1;stroke-width:15.93027878;stroke-linecap:butt;stroke-linejoin:miter;stroke-miterlimit:3.5999999;stroke-dasharray:none"
   id="rect1095-79-7"
   width="793.75018"
   height="793.75012"
   x="12144"
   y="3736.3721" /><rect
   style="fill:#ed1c24;fill-opacity:1;stroke-width:15.93027878;stroke-linecap:butt;stroke-linejoin:miter;stroke-miterlimit:3.5999999;stroke-dasharray:none"
   id="rect1095-79-9"
   width="793.75018"
   height="793.75012"
   x="12144"
   y="4476.3721" /><rect
   style="fill:#f58220;fill-opacity:1;stroke-width:15.93027878;stroke-linecap:butt;stroke-linejoin:miter;stroke-miterlimit:3.5999999;stroke-dasharray:none"
   id="rect1095-79-5"
   width="793.75018"
   height="793.75012"
   x="12144"
   y="5244.3721" /><rect
   style="fill:#fff200;fill-opacity:1;stroke-width:15.93027878;stroke-linecap:butt;stroke-linejoin:miter;stroke-miterlimit:3.5999999;stroke-dasharray:none"
   id="rect1095-79-22"
   width="793.75018"
   height="793.75012"
   x="12144"
   y="6011.3721" /><rect
   style="fill:#00a65d;fill-opacity:1;stroke-width:15.93027878;stroke-linecap:butt;stroke-linejoin:miter;stroke-miterlimit:3.5999999;stroke-dasharray:none"
   id="rect1095-79-8"
   width="793.75018"
   height="793.75012"
   x="12144"
   y="6778.3721" /><rect
   style="fill:#0066b3;fill-opacity:1;stroke-width:15.93027878;stroke-linecap:butt;stroke-linejoin:miter;stroke-miterlimit:3.5999999;stroke-dasharray:none"
   id="rect1095-79-97"
   width="793.75018"
   height="793.75012"
   x="12144"
   y="7519.3721" /><rect
   style="fill:#ed1c24;fill-opacity:1;stroke-width:15.93027878;stroke-linecap:butt;stroke-linejoin:miter;stroke-miterlimit:3.5999999;stroke-dasharray:none"
   id="rect1095-79-3"
   width="793.75018"
   height="793.75012"
   x="12144"
   y="8286.3721" /><rect
   style="fill:#f58220;fill-opacity:1;stroke-width:15.93027878;stroke-linecap:butt;stroke-linejoin:miter;stroke-miterlimit:3.5999999;stroke-dasharray:none"
   id="rect1095-79-6"
   width="793.75018"
   height="793.75012"
   x="12144"
   y="9054.3721" /><rect
   style="fill:#fff200;fill-opacity:1;stroke-width:15.93027878;stroke-linecap:butt;stroke-linejoin:miter;stroke-miterlimit:3.5999999;stroke-dasharray:none"
   id="rect1095-79-1"
   width="793.75018"
   height="793.75012"
   x="12144"
   y="9794.3721" /><rect
   style="fill:#00a65d;fill-opacity:1;stroke-width:15.93027878;stroke-linecap:butt;stroke-linejoin:miter;stroke-miterlimit:3.5999999;stroke-dasharray:none"
   id="rect1095-79-29"
   width="793.75018"
   height="793.75012"
   x="12144"
   y="10562.372" /><rect
   style="fill:#0066b3;fill-opacity:1;stroke-width:15.58491993;stroke-linecap:butt;stroke-linejoin:miter;stroke-miterlimit:3.5999999;stroke-dasharray:none"
   id="rect1095-79-31"
   width="780.52112"
   height="772.58362"
   x="12162"
   y="11311.372" /><g
   class="SlideGroup"
   id="g282"
   transform="translate(-5106,-9135.6279)">
  <g
   id="g280">
   <g
   id="container-id1">
    <g
   id="id1"
   class="Slide"
   clip-path="url(#presentation_clip_path)">
     <g
   class="Page"
   id="g276">
      <g
   class="OLE2"
   id="g274">
       <g
   id="id3">
        <rect
   class="BoundingBox"
   x="5132"
   y="9830"
   width="12955"
   height="11431"
   id="rect53"
   style="fill:none;stroke:none" />
        <path
   d="M 5106,9829 H 16546"
   id="path55"
   inkscape:connector-curvature="0"
   style="fill:none;stroke:#000000;stroke-width:35;stroke-linejoin:round" />
        <path
   d="m 17250,9829 h 804"
   id="path57"
   inkscape:connector-curvature="0"
   style="fill:none;stroke:#000000;stroke-width:35;stroke-linejoin:round" />
        <path
   d="M 5106,10596 H 16546"
   id="path59"
   inkscape:connector-curvature="0"
   style="fill:none;stroke:#000000;stroke-width:35;stroke-linejoin:round" />
        <path
   d="m 17250,10596 h 804"
   id="path61"
   inkscape:connector-curvature="0"
   style="fill:none;stroke:#000000;stroke-width:35;stroke-linejoin:round" />
        <path
   d="M 5106,11337 H 16546"
   id="path63"
   inkscape:connector-curvature="0"
   style="fill:none;stroke:#000000;stroke-width:35;stroke-linejoin:round" />
        <path
   d="m 17250,11337 h 804"
   id="path65"
   inkscape:connector-curvature="0"
   style="fill:none;stroke:#000000;stroke-width:35;stroke-linejoin:round" />
        <path
   d="M 5106,12104 H 16546"
   id="path67"
   inkscape:connector-curvature="0"
   style="fill:none;stroke:#000000;stroke-width:35;stroke-linejoin:round" />
        <path
   d="m 17250,12104 h 804"
   id="path69"
   inkscape:connector-curvature="0"
   style="fill:none;stroke:#000000;stroke-width:35;stroke-linejoin:round" />
        <path
   d="M 5106,12872 H 16546"
   id="path71"
   inkscape:connector-curvature="0"
   style="fill:none;stroke:#000000;stroke-width:35;stroke-linejoin:round" />
        <path
   d="m 17250,12872 h 804"
   id="path73"
   inkscape:connector-curvature="0"
   style="fill:none;stroke:#000000;stroke-width:35;stroke-linejoin:round" />
        <path
   d="M 5106,13612 H 16546"
   id="path75"
   inkscape:connector-curvature="0"
   style="fill:none;stroke:#000000;stroke-width:35;stroke-linejoin:round" />
        <path
   d="m 17250,13612 h 804"
   id="path77"
   inkscape:connector-curvature="0"
   style="fill:none;stroke:#000000;stroke-width:35;stroke-linejoin:round" />
        <path
   d="M 5106,14380 H 16546"
   id="path79"
   inkscape:connector-curvature="0"
   style="fill:none;stroke:#000000;stroke-width:35;stroke-linejoin:round" />
        <path
   d="m 17250,14380 h 804"
   id="path81"
   inkscape:connector-curvature="0"
   style="fill:none;stroke:#000000;stroke-width:35;stroke-linejoin:round" />
        <path
   d="M 5106,15147 H 16546"
   id="path83"
   inkscape:connector-curvature="0"
   style="fill:none;stroke:#000000;stroke-width:35;stroke-linejoin:round" />
        <path
   d="m 17250,15147 h 804"
   id="path85"
   inkscape:connector-curvature="0"
   style="fill:none;stroke:#000000;stroke-width:35;stroke-linejoin:round" />
        <path
   d="M 5106,15914 H 16546"
   id="path87"
   inkscape:connector-curvature="0"
   style="fill:none;stroke:#000000;stroke-width:35;stroke-linejoin:round" />
        <path
   d="m 17250,15914 h 804"
   id="path89"
   inkscape:connector-curvature="0"
   style="fill:none;stroke:#000000;stroke-width:35;stroke-linejoin:round" />
        <path
   d="M 5106,16655 H 16546"
   id="path91"
   inkscape:connector-curvature="0"
   style="fill:none;stroke:#000000;stroke-width:35;stroke-linejoin:round" />
        <path
   d="m 17250,16655 h 804"
   id="path93"
   inkscape:connector-curvature="0"
   style="fill:none;stroke:#000000;stroke-width:35;stroke-linejoin:round" />
        <path
   d="M 5106,17422 H 16546"
   id="path95"
   inkscape:connector-curvature="0"
   style="fill:none;stroke:#000000;stroke-width:35;stroke-linejoin:round" />
        <path
   d="m 17250,17422 h 804"
   id="path97"
   inkscape:connector-curvature="0"
   style="fill:none;stroke:#000000;stroke-width:35;stroke-linejoin:round" />
        <path
   d="M 5106,18190 H 16546"
   id="path99"
   inkscape:connector-curvature="0"
   style="fill:none;stroke:#000000;stroke-width:35;stroke-linejoin:round" />
        <path
   d="m 17250,18190 h 804"
   id="path101"
   inkscape:connector-curvature="0"
   style="fill:none;stroke:#000000;stroke-width:35;stroke-linejoin:round" />
        <path
   d="M 5106,18930 H 16546"
   id="path103"
   inkscape:connector-curvature="0"
   style="fill:none;stroke:#000000;stroke-width:35;stroke-linejoin:round" />
        <path
   d="m 17250,18930 h 804"
   id="path105"
   inkscape:connector-curvature="0"
   style="fill:none;stroke:#000000;stroke-width:35;stroke-linejoin:round" />
        <path
   d="M 5106,19698 H 16546"
   id="path107"
   inkscape:connector-curvature="0"
   style="fill:none;stroke:#000000;stroke-width:35;stroke-linejoin:round" />
        <path
   d="m 17250,19698 h 804"
   id="path109"
   inkscape:connector-curvature="0"
   style="fill:none;stroke:#000000;stroke-width:35;stroke-linejoin:round" />
        <path
   d="m 5106,20465 h 803"
   id="path111"
   inkscape:connector-curvature="0"
   style="fill:none;stroke:#000000;stroke-width:35;stroke-linejoin:round" />
        <path
   d="m 5106,21206 h 803"
   id="path113"
   inkscape:connector-curvature="0"
   style="fill:none;stroke:#000000;stroke-width:35;stroke-linejoin:round" />
        <path
   d="m 5873,20465 h 804"
   id="path115"
   inkscape:connector-curvature="0"
   style="fill:none;stroke:#000000;stroke-width:35;stroke-linejoin:round" />
        <path
   d="m 5873,21206 h 804"
   id="path117"
   inkscape:connector-curvature="0"
   style="fill:none;stroke:#000000;stroke-width:35;stroke-linejoin:round" />
        <path
   d="m 6641,20465 h 776"
   id="path119"
   inkscape:connector-curvature="0"
   style="fill:none;stroke:#000000;stroke-width:35;stroke-linejoin:round" />
        <path
   d="m 6641,21206 h 776"
   id="path121"
   inkscape:connector-curvature="0"
   style="fill:none;stroke:#000000;stroke-width:35;stroke-linejoin:round" />
        <path
   d="m 7381,20465 h 804"
   id="path123"
   inkscape:connector-curvature="0"
   style="fill:none;stroke:#000000;stroke-width:35;stroke-linejoin:round" />
        <path
   d="m 7381,21206 h 804"
   id="path125"
   inkscape:connector-curvature="0"
   style="fill:none;stroke:#000000;stroke-width:35;stroke-linejoin:round" />
        <path
   d="m 8149,20465 h 803"
   id="path127"
   inkscape:connector-curvature="0"
   style="fill:none;stroke:#000000;stroke-width:35;stroke-linejoin:round" />
        <path
   d="m 8149,21206 h 803"
   id="path129"
   inkscape:connector-curvature="0"
   style="fill:none;stroke:#000000;stroke-width:35;stroke-linejoin:round" />
        <path
   d="m 8916,20465 h 777"
   id="path131"
   inkscape:connector-curvature="0"
   style="fill:none;stroke:#000000;stroke-width:35;stroke-linejoin:round" />
        <path
   d="m 8916,21206 h 777"
   id="path133"
   inkscape:connector-curvature="0"
   style="fill:none;stroke:#000000;stroke-width:35;stroke-linejoin:round" />
        <path
   d="m 9657,20465 h 803"
   id="path135"
   inkscape:connector-curvature="0"
   style="fill:none;stroke:#000000;stroke-width:35;stroke-linejoin:round" />
        <path
   d="m 9657,21206 h 803"
   id="path137"
   inkscape:connector-curvature="0"
   style="fill:none;stroke:#000000;stroke-width:35;stroke-linejoin:round" />
        <path
   d="m 10424,20465 h 803"
   id="path139"
   inkscape:connector-curvature="0"
   style="fill:none;stroke:#000000;stroke-width:35;stroke-linejoin:round" />
        <path
   d="m 10424,21206 h 803"
   id="path141"
   inkscape:connector-curvature="0"
   style="fill:none;stroke:#000000;stroke-width:35;stroke-linejoin:round" />
        <path
   d="m 11191,20465 h 777"
   id="path143"
   inkscape:connector-curvature="0"
   style="fill:none;stroke:#000000;stroke-width:35;stroke-linejoin:round" />
        <path
   d="m 11191,21206 h 777"
   id="path145"
   inkscape:connector-curvature="0"
   style="fill:none;stroke:#000000;stroke-width:35;stroke-linejoin:round" />
        <path
   d="m 11932,20465 h 804"
   id="path147"
   inkscape:connector-curvature="0"
   style="fill:none;stroke:#000000;stroke-width:35;stroke-linejoin:round" />
        <path
   d="m 11932,21206 h 804"
   id="path149"
   inkscape:connector-curvature="0"
   style="fill:none;stroke:#000000;stroke-width:35;stroke-linejoin:round" />
        <path
   d="m 12700,20465 h 803"
   id="path151"
   inkscape:connector-curvature="0"
   style="fill:none;stroke:#000000;stroke-width:35;stroke-linejoin:round" />
        <path
   d="m 12700,21206 h 803"
   id="path153"
   inkscape:connector-curvature="0"
   style="fill:none;stroke:#000000;stroke-width:35;stroke-linejoin:round" />
        <path
   d="m 13467,20465 h 803"
   id="path155"
   inkscape:connector-curvature="0"
   style="fill:none;stroke:#000000;stroke-width:35;stroke-linejoin:round" />
        <path
   d="m 13467,21206 h 803"
   id="path157"
   inkscape:connector-curvature="0"
   style="fill:none;stroke:#000000;stroke-width:35;stroke-linejoin:round" />
        <path
   d="m 14234,20465 h 777"
   id="path159"
   inkscape:connector-curvature="0"
   style="fill:none;stroke:#000000;stroke-width:35;stroke-linejoin:round" />
        <path
   d="m 14234,21206 h 777"
   id="path161"
   inkscape:connector-curvature="0"
   style="fill:none;stroke:#000000;stroke-width:35;stroke-linejoin:round" />
        <path
   d="m 14975,20465 h 803"
   id="path163"
   inkscape:connector-curvature="0"
   style="fill:none;stroke:#000000;stroke-width:35;stroke-linejoin:round" />
        <path
   d="m 14975,21206 h 803"
   id="path165"
   inkscape:connector-curvature="0"
   style="fill:none;stroke:#000000;stroke-width:35;stroke-linejoin:round" />
        <path
   d="m 15742,20465 h 804"
   id="path167"
   inkscape:connector-curvature="0"
   style="fill:none;stroke:#000000;stroke-width:35;stroke-linejoin:round" />
        <path
   d="m 15742,21206 h 804"
   id="path169"
   inkscape:connector-curvature="0"
   style="fill:none;stroke:#000000;stroke-width:35;stroke-linejoin:round" />
        <path
   d="m 17250,20465 h 804"
   id="path171"
   inkscape:connector-curvature="0"
   style="fill:none;stroke:#000000;stroke-width:35;stroke-linejoin:round" />
        <path
   d="m 17250,21206 h 804"
   id="path173"
   inkscape:connector-curvature="0"
   style="fill:none;stroke:#000000;stroke-width:35;stroke-linejoin:round" />
        <path
   d="M 5106,21206 H 16546"
   id="path175"
   inkscape:connector-curvature="0"
   style="fill:none;stroke:#000000;stroke-width:35;stroke-linejoin:round" />
        <path
   d="m 17250,21206 h 804"
   id="path177"
   inkscape:connector-curvature="0"
   style="fill:none;stroke:#000000;stroke-width:35;stroke-linejoin:round" />
        <path
   d="M 5124,9811 V 21224"
   id="path179"
   inkscape:connector-curvature="0"
   style="fill:none;stroke:#000000;stroke-width:35;stroke-linejoin:round" />
        <path
   d="M 5891,9811 V 21224"
   id="path181"
   inkscape:connector-curvature="0"
   style="fill:none;stroke:#000000;stroke-width:35;stroke-linejoin:round" />
        <path
   d="M 6659,9811 V 21224"
   id="path183"
   inkscape:connector-curvature="0"
   style="fill:none;stroke:#000000;stroke-width:35;stroke-linejoin:round" />
        <path
   d="M 7399,9811 V 21224"
   id="path185"
   inkscape:connector-curvature="0"
   style="fill:none;stroke:#000000;stroke-width:35;stroke-linejoin:round" />
        <path
   d="M 8167,9811 V 21224"
   id="path187"
   inkscape:connector-curvature="0"
   style="fill:none;stroke:#000000;stroke-width:35;stroke-linejoin:round" />
        <path
   d="M 8934,9811 V 21224"
   id="path189"
   inkscape:connector-curvature="0"
   style="fill:none;stroke:#000000;stroke-width:35;stroke-linejoin:round" />
        <path
   d="M 9675,9811 V 21224"
   id="path191"
   inkscape:connector-curvature="0"
   style="fill:none;stroke:#000000;stroke-width:35;stroke-linejoin:round" />
        <path
   d="M 10442,9811 V 21224"
   id="path193"
   inkscape:connector-curvature="0"
   style="fill:none;stroke:#000000;stroke-width:35;stroke-linejoin:round" />
        <path
   d="M 11209,9811 V 21224"
   id="path195"
   inkscape:connector-curvature="0"
   style="fill:none;stroke:#000000;stroke-width:35;stroke-linejoin:round" />
        <path
   d="M 11950,9811 V 21224"
   id="path197"
   inkscape:connector-curvature="0"
   style="fill:none;stroke:#000000;stroke-width:35;stroke-linejoin:round" />
        <path
   d="M 12718,9811 V 21224"
   id="path199"
   inkscape:connector-curvature="0"
   style="fill:none;stroke:#000000;stroke-width:35;stroke-linejoin:round" />
        <path
   d="M 13485,9811 V 21224"
   id="path201"
   inkscape:connector-curvature="0"
   style="fill:none;stroke:#000000;stroke-width:35;stroke-linejoin:round" />
        <path
   d="M 14252,9811 V 21224"
   id="path203"
   inkscape:connector-curvature="0"
   style="fill:none;stroke:#000000;stroke-width:35;stroke-linejoin:round" />
        <path
   d="M 14993,9811 V 21224"
   id="path205"
   inkscape:connector-curvature="0"
   style="fill:none;stroke:#000000;stroke-width:35;stroke-linejoin:round" />
        <path
   d="M 15760,9811 V 21224"
   id="path207"
   inkscape:connector-curvature="0"
   style="fill:none;stroke:#000000;stroke-width:35;stroke-linejoin:round" />
        <path
   d="M 16528,9811 V 21224"
   id="path209"
   inkscape:connector-curvature="0"
   style="fill:none;stroke:#000000;stroke-width:35;stroke-linejoin:round" />
        <path
   d="m 17268,9811 v 803"
   id="path211"
   inkscape:connector-curvature="0"
   style="fill:none;stroke:#000000;stroke-width:35;stroke-linejoin:round" />
        <path
   d="m 18036,9811 v 803"
   id="path213"
   inkscape:connector-curvature="0"
   style="fill:none;stroke:#000000;stroke-width:35;stroke-linejoin:round" />
        <path
   d="m 17268,10578 v 777"
   id="path215"
   inkscape:connector-curvature="0"
   style="fill:none;stroke:#000000;stroke-width:35;stroke-linejoin:round" />
        <path
   d="m 18036,10578 v 777"
   id="path217"
   inkscape:connector-curvature="0"
   style="fill:none;stroke:#000000;stroke-width:35;stroke-linejoin:round" />
        <path
   d="m 17268,11319 v 803"
   id="path219"
   inkscape:connector-curvature="0"
   style="fill:none;stroke:#000000;stroke-width:35;stroke-linejoin:round" />
        <path
   d="m 18036,11319 v 803"
   id="path221"
   inkscape:connector-curvature="0"
   style="fill:none;stroke:#000000;stroke-width:35;stroke-linejoin:round" />
        <path
   d="m 17268,12086 v 804"
   id="path223"
   inkscape:connector-curvature="0"
   style="fill:none;stroke:#000000;stroke-width:35;stroke-linejoin:round" />
        <path
   d="m 18036,12086 v 804"
   id="path225"
   inkscape:connector-curvature="0"
   style="fill:none;stroke:#000000;stroke-width:35;stroke-linejoin:round" />
        <path
   d="m 17268,12854 v 776"
   id="path227"
   inkscape:connector-curvature="0"
   style="fill:none;stroke:#000000;stroke-width:35;stroke-linejoin:round" />
        <path
   d="m 18036,12854 v 776"
   id="path229"
   inkscape:connector-curvature="0"
   style="fill:none;stroke:#000000;stroke-width:35;stroke-linejoin:round" />
        <path
   d="m 17268,13594 v 804"
   id="path231"
   inkscape:connector-curvature="0"
   style="fill:none;stroke:#000000;stroke-width:35;stroke-linejoin:round" />
        <path
   d="m 18036,13594 v 804"
   id="path233"
   inkscape:connector-curvature="0"
   style="fill:none;stroke:#000000;stroke-width:35;stroke-linejoin:round" />
        <path
   d="m 17268,14362 v 803"
   id="path235"
   inkscape:connector-curvature="0"
   style="fill:none;stroke:#000000;stroke-width:35;stroke-linejoin:round" />
        <path
   d="m 18036,14362 v 803"
   id="path237"
   inkscape:connector-curvature="0"
   style="fill:none;stroke:#000000;stroke-width:35;stroke-linejoin:round" />
        <path
   d="m 17268,15129 v 803"
   id="path239"
   inkscape:connector-curvature="0"
   style="fill:none;stroke:#000000;stroke-width:35;stroke-linejoin:round" />
        <path
   d="m 18036,15129 v 803"
   id="path241"
   inkscape:connector-curvature="0"
   style="fill:none;stroke:#000000;stroke-width:35;stroke-linejoin:round" />
        <path
   d="m 17268,15896 v 777"
   id="path243"
   inkscape:connector-curvature="0"
   style="fill:none;stroke:#000000;stroke-width:35;stroke-linejoin:round" />
        <path
   d="m 18036,15896 v 777"
   id="path245"
   inkscape:connector-curvature="0"
   style="fill:none;stroke:#000000;stroke-width:35;stroke-linejoin:round" />
        <path
   d="m 17268,16637 v 803"
   id="path247"
   inkscape:connector-curvature="0"
   style="fill:none;stroke:#000000;stroke-width:35;stroke-linejoin:round" />
        <path
   d="m 18036,16637 v 803"
   id="path249"
   inkscape:connector-curvature="0"
   style="fill:none;stroke:#000000;stroke-width:35;stroke-linejoin:round" />
        <path
   d="m 17268,17404 v 804"
   id="path251"
   inkscape:connector-curvature="0"
   style="fill:none;stroke:#000000;stroke-width:35;stroke-linejoin:round" />
        <path
   d="m 18036,17404 v 804"
   id="path253"
   inkscape:connector-curvature="0"
   style="fill:none;stroke:#000000;stroke-width:35;stroke-linejoin:round" />
        <path
   d="m 17268,18172 v 776"
   id="path255"
   inkscape:connector-curvature="0"
   style="fill:none;stroke:#000000;stroke-width:35;stroke-linejoin:round" />
        <path
   d="m 18036,18172 v 776"
   id="path257"
   inkscape:connector-curvature="0"
   style="fill:none;stroke:#000000;stroke-width:35;stroke-linejoin:round" />
        <path
   d="m 17268,18912 v 804"
   id="path259"
   inkscape:connector-curvature="0"
   style="fill:none;stroke:#000000;stroke-width:35;stroke-linejoin:round" />
        <path
   d="m 18036,18912 v 804"
   id="path261"
   inkscape:connector-curvature="0"
   style="fill:none;stroke:#000000;stroke-width:35;stroke-linejoin:round" />
        <path
   d="m 17268,19680 v 803"
   id="path263"
   inkscape:connector-curvature="0"
   style="fill:none;stroke:#000000;stroke-width:35;stroke-linejoin:round" />
        <path
   d="m 18036,19680 v 803"
   id="path265"
   inkscape:connector-curvature="0"
   style="fill:none;stroke:#000000;stroke-width:35;stroke-linejoin:round" />
        <path
   d="m 17268,20447 v 777"
   id="path267"
   inkscape:connector-curvature="0"
   style="fill:none;stroke:#000000;stroke-width:35;stroke-linejoin:round" />
        <path
   d="m 18036,20447 v 777"
   id="path269"
   inkscape:connector-curvature="0"
   style="fill:none;stroke:#000000;stroke-width:35;stroke-linejoin:round" />
        <path
   d="M 18036,9811 V 21224"
   id="path271"
   inkscape:connector-curvature="0"
   style="fill:none;stroke:#000000;stroke-width:35;stroke-linejoin:round" />
       </g>
      </g>
     </g>
    </g>
   </g>
  </g>
 </g><text
   xml:space="preserve"
   style="font-style:normal;font-weight:normal;font-size:635px;line-height:1.25;font-family:sans-serif;letter-spacing:0px;word-spacing:0px;fill:#000000;fill-opacity:1;stroke:none;stroke-width:746.70709229"
   x="4716.3423"
   y="467.995"
   id="text1300"><tspan
     sodipodi:role="line"
     id="tspan1298"
     x="4716.3423"
     y="467.995"
     style="stroke-width:746.70709229">matrix</tspan></text>
<text
   xml:space="preserve"
   style="font-style:normal;font-weight:normal;font-size:635px;line-height:1.25;font-family:sans-serif;letter-spacing:0px;word-spacing:0px;fill:#000000;fill-opacity:1;stroke:none;stroke-width:746.70709229"
   x="5183.46"
   y="-13308.024"
   id="text1304"
   transform="rotate(90)"><tspan
     sodipodi:role="line"
     id="tspan1302"
     x="5183.46"
     y="-13308.024"
     style="stroke-width:746.70709229">samples</tspan></text>
</svg>