<?xml version="1.0" encoding="UTF-8" standalone="no"?>
<svg
   xmlns:ooo="http://xml.openoffice.org/svg/export"
   xmlns:dc="http://purl.org/dc/elements/1.1/"
   xmlns:cc="http://creativecommons.org/ns#"
   xmlns:rdf="http://www.w3.org/1999/02/22-rdf-syntax-ns#"
   xmlns:svg="http://www.w3.org/2000/svg"
   xmlns="http://www.w3.org/2000/svg"
   xmlns:sodipodi="http://sodipodi.sourceforge.net/DTD/sodipodi-0.dtd"
   xmlns:inkscape="http://www.inkscape.org/namespaces/inkscape"
   version="1.2"
   width="108.15711mm"
   height="115.09766mm"
   viewBox="0 0 10815.711 11509.766"
   preserveAspectRatio="xMidYMid"
   xml:space="preserve"
   id="svg186"
   sodipodi:docname="fft15_5_afterdft3_dft5.svg"
   style="fill-rule:evenodd;stroke-width:28.22200012;stroke-linejoin:round"
   inkscape:version="0.92.3 (2405546, 2018-03-11)"><metadata
   id="metadata190"><rdf:RDF><cc:Work
       rdf:about=""><dc:format>image/svg+xml</dc:format><dc:type
         rdf:resource="http://purl.org/dc/dcmitype/StillImage" /><dc:title></dc:title></cc:Work></rdf:RDF></metadata><sodipodi:namedview
   pagecolor="#ffffff"
   bordercolor="#666666"
   borderopacity="1"
   objecttolerance="10"
   gridtolerance="10"
   guidetolerance="10"
   inkscape:pageopacity="0"
   inkscape:pageshadow="2"
   inkscape:window-width="1920"
   inkscape:window-height="1115"
   id="namedview188"
   showgrid="false"
   inkscape:zoom="1.1893044"
   inkscape:cx="106.49066"
   inkscape:cy="213.94457"
   inkscape:window-x="1920"
   inkscape:window-y="0"
   inkscape:window-maximized="1"
   inkscape:current-layer="svg186" />
 <defs
   class="ClipPathGroup"
   id="defs8">
  <clipPath
   id="presentation_clip_path"
   clipPathUnits="userSpaceOnUse">
   <rect
   x="0"
   y="0"
   width="21000"
   height="29700"
   id="rect2" />
  </clipPath>
  <clipPath
   id="presentation_clip_path_shrink"
   clipPathUnits="userSpaceOnUse">
   <rect
   x="21"
   y="29"
   width="20958"
   height="29641"
   id="rect5" />
  </clipPath>
 </defs>
 <defs
   class="TextShapeIndex"
   id="defs12">
  <g
   ooo:slide="id1"
   ooo:id-list="id3"
   id="g10" />
 </defs>
 <defs
   class="EmbeddedBulletChars"
   id="defs44">
  <g
   id="bullet-char-template-57356"
   transform="matrix(4.8828125e-4,0,0,-4.8828125e-4,0,0)">
   <path
   d="M 580,1141 1163,571 580,0 -4,571 Z"
   id="path14"
   inkscape:connector-curvature="0" />
  </g>
  <g
   id="bullet-char-template-57354"
   transform="matrix(4.8828125e-4,0,0,-4.8828125e-4,0,0)">
   <path
   d="M 8,1128 H 1137 V 0 H 8 Z"
   id="path17"
   inkscape:connector-curvature="0" />
  </g>
  <g
   id="bullet-char-template-10146"
   transform="matrix(4.8828125e-4,0,0,-4.8828125e-4,0,0)">
   <path
   d="M 174,0 602,739 174,1481 1456,739 Z M 1358,739 309,1346 659,739 Z"
   id="path20"
   inkscape:connector-curvature="0" />
  </g>
  <g
   id="bullet-char-template-10132"
   transform="matrix(4.8828125e-4,0,0,-4.8828125e-4,0,0)">
   <path
   d="M 2015,739 1276,0 H 717 l 543,543 H 174 v 393 h 1086 l -543,545 h 557 z"
   id="path23"
   inkscape:connector-curvature="0" />
  </g>
  <g
   id="bullet-char-template-10007"
   transform="matrix(4.8828125e-4,0,0,-4.8828125e-4,0,0)">
   <path
   d="m 0,-2 c -7,16 -16,29 -25,39 l 381,530 c -94,256 -141,385 -141,387 0,25 13,38 40,38 9,0 21,-2 34,-5 21,4 42,12 65,25 l 27,-13 111,-251 280,301 64,-25 24,25 c 21,-10 41,-24 62,-43 C 886,937 835,863 770,784 769,783 710,716 594,584 L 774,223 c 0,-27 -21,-55 -63,-84 l 16,-20 C 717,90 699,76 672,76 641,76 570,178 457,381 L 164,-76 c -22,-34 -53,-51 -92,-51 -42,0 -63,17 -64,51 -7,9 -10,24 -10,44 0,9 1,19 2,30 z"
   id="path26"
   inkscape:connector-curvature="0" />
  </g>
  <g
   id="bullet-char-template-10004"
   transform="matrix(4.8828125e-4,0,0,-4.8828125e-4,0,0)">
   <path
   d="M 285,-33 C 182,-33 111,30 74,156 52,228 41,333 41,471 c 0,78 14,145 41,201 34,71 87,106 158,106 53,0 88,-31 106,-94 l 23,-176 c 8,-64 28,-97 59,-98 l 735,706 c 11,11 33,17 66,17 42,0 63,-15 63,-46 V 965 c 0,-36 -10,-64 -30,-84 L 442,47 C 390,-6 338,-33 285,-33 Z"
   id="path29"
   inkscape:connector-curvature="0" />
  </g>
  <g
   id="bullet-char-template-9679"
   transform="matrix(4.8828125e-4,0,0,-4.8828125e-4,0,0)">
   <path
   d="M 813,0 C 632,0 489,54 383,161 276,268 223,411 223,592 c 0,181 53,324 160,431 106,107 249,161 430,161 179,0 323,-54 432,-161 108,-107 162,-251 162,-431 0,-180 -54,-324 -162,-431 C 1136,54 992,0 813,0 Z"
   id="path32"
   inkscape:connector-curvature="0" />
  </g>
  <g
   id="bullet-char-template-8226"
   transform="matrix(4.8828125e-4,0,0,-4.8828125e-4,0,0)">
   <path
   d="m 346,457 c -73,0 -137,26 -191,78 -54,51 -81,114 -81,188 0,73 27,136 81,188 54,52 118,78 191,78 73,0 134,-26 185,-79 51,-51 77,-114 77,-187 0,-75 -25,-137 -76,-188 -50,-52 -112,-78 -186,-78 z"
   id="path35"
   inkscape:connector-curvature="0" />
  </g>
  <g
   id="bullet-char-template-8211"
   transform="matrix(4.8828125e-4,0,0,-4.8828125e-4,0,0)">
   <path
   d="M -4,459 H 1135 V 606 H -4 Z"
   id="path38"
   inkscape:connector-curvature="0" />
  </g>
  <g
   id="bullet-char-template-61548"
   transform="matrix(4.8828125e-4,0,0,-4.8828125e-4,0,0)">
   <path
   d="m 173,740 c 0,163 58,303 173,419 116,115 255,173 419,173 163,0 302,-58 418,-173 116,-116 174,-256 174,-419 0,-163 -58,-303 -174,-418 C 1067,206 928,148 765,148 601,148 462,206 346,322 231,437 173,577 173,740 Z"
   id="path41"
   inkscape:connector-curvature="0" />
  </g>
 </defs>
 <defs
   class="TextEmbeddedBitmaps"
   id="defs46" />
 <g
   id="g51"
   transform="translate(-9625.5833,-9792.0833)">
  <g
   id="id2"
   class="Master_Slide">
   <g
   id="bg-id2"
   class="Background" />
   <g
   id="bo-id2"
   class="BackgroundObjects" />
  </g>
 </g>
 <rect
   style="fill:#f79b9f;fill-opacity:1;stroke:none;stroke-width:105.83332825;stroke-linecap:butt;stroke-linejoin:miter;stroke-miterlimit:3.5999999;stroke-dasharray:none;stroke-opacity:1"
   id="rect997"
   width="801"
   height="11377"
   x="53.416672"
   y="52.916664" />
<rect
   style="fill:#fac89e;fill-opacity:1;stroke:none;stroke-width:101.8704834;stroke-linecap:butt;stroke-linejoin:miter;stroke-miterlimit:3.5999999;stroke-dasharray:none;stroke-opacity:1"
   id="rect997-3"
   width="742.00909"
   height="11378.969"
   x="836.12469"
   y="46.828773" /><rect
   style="fill:#fffa8f;fill-opacity:1;stroke:none;stroke-width:102.92687988;stroke-linecap:butt;stroke-linejoin:miter;stroke-miterlimit:3.5999999;stroke-dasharray:none;stroke-opacity:1"
   id="rect997-6"
   width="757.74005"
   height="11375.036"
   x="1579.4117"
   y="46.828773" /><rect
   style="fill:#8fd8b9;fill-opacity:1;stroke:none;stroke-width:101.54064178;stroke-linecap:butt;stroke-linejoin:miter;stroke-miterlimit:3.5999999;stroke-dasharray:none;stroke-opacity:1"
   id="rect997-7"
   width="737.46655"
   height="11375.037"
   x="2337.1521"
   y="46.828773" /><rect
   style="fill:#8fbcde;fill-opacity:1;stroke:none;stroke-width:103.58985901;stroke-linecap:butt;stroke-linejoin:miter;stroke-miterlimit:3.5999999;stroke-dasharray:none;stroke-opacity:1"
   id="rect997-5"
   width="767.62976"
   height="11373.604"
   x="3087.1619"
   y="49.646156" /><g
   class="SlideGroup"
   id="g184"
   transform="translate(-9625.5833,-9792.0833)">
  <g
   id="g182">
   <g
   id="container-id1">
    <g
   id="id1"
   class="Slide"
   clip-path="url(#presentation_clip_path)">
     <g
   class="Page"
   id="g178">
      <g
   class="OLE2"
   id="g176">
       <g
   id="id3">
        <rect
   class="BoundingBox"
   x="9704"
   y="9846"
   width="3811"
   height="11431"
   id="rect53"
   style="fill:none;stroke:none" />
        <path
   d="m 9679,9845 h 3818"
   id="path55"
   inkscape:connector-curvature="0"
   style="fill:none;stroke:#000000;stroke-width:35;stroke-linejoin:round" />
        <path
   d="m 9679,10612 h 3818"
   id="path57"
   inkscape:connector-curvature="0"
   style="fill:none;stroke:#000000;stroke-width:35;stroke-linejoin:round" />
        <path
   d="m 9679,11353 h 3818"
   id="path59"
   inkscape:connector-curvature="0"
   style="fill:none;stroke:#000000;stroke-width:35;stroke-linejoin:round" />
        <path
   d="m 9679,12120 h 3818"
   id="path61"
   inkscape:connector-curvature="0"
   style="fill:none;stroke:#000000;stroke-width:35;stroke-linejoin:round" />
        <path
   d="m 9679,12888 h 3818"
   id="path63"
   inkscape:connector-curvature="0"
   style="fill:none;stroke:#000000;stroke-width:35;stroke-linejoin:round" />
        <path
   d="m 9679,13628 h 3818"
   id="path65"
   inkscape:connector-curvature="0"
   style="fill:none;stroke:#000000;stroke-width:35;stroke-linejoin:round" />
        <path
   d="m 9679,14396 h 3818"
   id="path67"
   inkscape:connector-curvature="0"
   style="fill:none;stroke:#000000;stroke-width:35;stroke-linejoin:round" />
        <path
   d="m 9679,15163 h 3818"
   id="path69"
   inkscape:connector-curvature="0"
   style="fill:none;stroke:#000000;stroke-width:35;stroke-linejoin:round" />
        <path
   d="m 9679,15930 h 3818"
   id="path71"
   inkscape:connector-curvature="0"
   style="fill:none;stroke:#000000;stroke-width:35;stroke-linejoin:round" />
        <path
   d="m 9679,16671 h 3818"
   id="path73"
   inkscape:connector-curvature="0"
   style="fill:none;stroke:#000000;stroke-width:35;stroke-linejoin:round" />
        <path
   d="m 9679,17438 h 3818"
   id="path75"
   inkscape:connector-curvature="0"
   style="fill:none;stroke:#000000;stroke-width:35;stroke-linejoin:round" />
        <path
   d="m 9679,18206 h 3818"
   id="path77"
   inkscape:connector-curvature="0"
   style="fill:none;stroke:#000000;stroke-width:35;stroke-linejoin:round" />
        <path
   d="m 9679,18946 h 3818"
   id="path79"
   inkscape:connector-curvature="0"
   style="fill:none;stroke:#000000;stroke-width:35;stroke-linejoin:round" />
        <path
   d="m 9679,19714 h 3818"
   id="path81"
   inkscape:connector-curvature="0"
   style="fill:none;stroke:#000000;stroke-width:35;stroke-linejoin:round" />
        <path
   d="m 9679,20481 h 801"
   id="path83"
   inkscape:connector-curvature="0"
   style="fill:none;stroke:#000000;stroke-width:35;stroke-linejoin:round" />
        <path
   d="m 9679,21222 h 801"
   id="path85"
   inkscape:connector-curvature="0"
   style="fill:none;stroke:#000000;stroke-width:35;stroke-linejoin:round" />
        <path
   d="m 10446,20481 h 775"
   id="path87"
   inkscape:connector-curvature="0"
   style="fill:none;stroke:#000000;stroke-width:35;stroke-linejoin:round" />
        <path
   d="m 10446,21222 h 775"
   id="path89"
   inkscape:connector-curvature="0"
   style="fill:none;stroke:#000000;stroke-width:35;stroke-linejoin:round" />
        <path
   d="m 11187,20481 h 801"
   id="path91"
   inkscape:connector-curvature="0"
   style="fill:none;stroke:#000000;stroke-width:35;stroke-linejoin:round" />
        <path
   d="m 11187,21222 h 801"
   id="path93"
   inkscape:connector-curvature="0"
   style="fill:none;stroke:#000000;stroke-width:35;stroke-linejoin:round" />
        <path
   d="m 11954,20481 h 775"
   id="path95"
   inkscape:connector-curvature="0"
   style="fill:none;stroke:#000000;stroke-width:35;stroke-linejoin:round" />
        <path
   d="m 11954,21222 h 775"
   id="path97"
   inkscape:connector-curvature="0"
   style="fill:none;stroke:#000000;stroke-width:35;stroke-linejoin:round" />
        <path
   d="m 12695,20481 h 802"
   id="path99"
   inkscape:connector-curvature="0"
   style="fill:none;stroke:#000000;stroke-width:35;stroke-linejoin:round" />
        <path
   d="m 12695,21222 h 802"
   id="path101"
   inkscape:connector-curvature="0"
   style="fill:none;stroke:#000000;stroke-width:35;stroke-linejoin:round" />
        <path
   d="m 9679,21222 h 3818"
   id="path103"
   inkscape:connector-curvature="0"
   style="fill:none;stroke:#000000;stroke-width:35;stroke-linejoin:round" />
        <path
   d="M 9696,9827 V 21240"
   id="path105"
   inkscape:connector-curvature="0"
   style="fill:none;stroke:#000000;stroke-width:35;stroke-linejoin:round" />
        <path
   d="M 10463,9827 V 21240"
   id="path107"
   inkscape:connector-curvature="0"
   style="fill:none;stroke:#000000;stroke-width:35;stroke-linejoin:round" />
        <path
   d="M 11204,9827 V 21240"
   id="path109"
   inkscape:connector-curvature="0"
   style="fill:none;stroke:#000000;stroke-width:35;stroke-linejoin:round" />
        <path
   d="M 11971,9827 V 21240"
   id="path111"
   inkscape:connector-curvature="0"
   style="fill:none;stroke:#000000;stroke-width:35;stroke-linejoin:round" />
        <path
   d="m 12712,9827 v 803"
   id="path113"
   inkscape:connector-curvature="0"
   style="fill:none;stroke:#000000;stroke-width:35;stroke-linejoin:round" />
        <path
   d="m 13480,9827 v 803"
   id="path115"
   inkscape:connector-curvature="0"
   style="fill:none;stroke:#000000;stroke-width:35;stroke-linejoin:round" />
        <path
   d="m 12712,10594 v 777"
   id="path117"
   inkscape:connector-curvature="0"
   style="fill:none;stroke:#000000;stroke-width:35;stroke-linejoin:round" />
        <path
   d="m 13480,10594 v 777"
   id="path119"
   inkscape:connector-curvature="0"
   style="fill:none;stroke:#000000;stroke-width:35;stroke-linejoin:round" />
        <path
   d="m 12712,11335 v 803"
   id="path121"
   inkscape:connector-curvature="0"
   style="fill:none;stroke:#000000;stroke-width:35;stroke-linejoin:round" />
        <path
   d="m 13480,11335 v 803"
   id="path123"
   inkscape:connector-curvature="0"
   style="fill:none;stroke:#000000;stroke-width:35;stroke-linejoin:round" />
        <path
   d="m 12712,12102 v 804"
   id="path125"
   inkscape:connector-curvature="0"
   style="fill:none;stroke:#000000;stroke-width:35;stroke-linejoin:round" />
        <path
   d="m 13480,12102 v 804"
   id="path127"
   inkscape:connector-curvature="0"
   style="fill:none;stroke:#000000;stroke-width:35;stroke-linejoin:round" />
        <path
   d="m 12712,12870 v 776"
   id="path129"
   inkscape:connector-curvature="0"
   style="fill:none;stroke:#000000;stroke-width:35;stroke-linejoin:round" />
        <path
   d="m 13480,12870 v 776"
   id="path131"
   inkscape:connector-curvature="0"
   style="fill:none;stroke:#000000;stroke-width:35;stroke-linejoin:round" />
        <path
   d="m 12712,13610 v 804"
   id="path133"
   inkscape:connector-curvature="0"
   style="fill:none;stroke:#000000;stroke-width:35;stroke-linejoin:round" />
        <path
   d="m 13480,13610 v 804"
   id="path135"
   inkscape:connector-curvature="0"
   style="fill:none;stroke:#000000;stroke-width:35;stroke-linejoin:round" />
        <path
   d="m 12712,14378 v 803"
   id="path137"
   inkscape:connector-curvature="0"
   style="fill:none;stroke:#000000;stroke-width:35;stroke-linejoin:round" />
        <path
   d="m 13480,14378 v 803"
   id="path139"
   inkscape:connector-curvature="0"
   style="fill:none;stroke:#000000;stroke-width:35;stroke-linejoin:round" />
        <path
   d="m 12712,15145 v 803"
   id="path141"
   inkscape:connector-curvature="0"
   style="fill:none;stroke:#000000;stroke-width:35;stroke-linejoin:round" />
        <path
   d="m 13480,15145 v 803"
   id="path143"
   inkscape:connector-curvature="0"
   style="fill:none;stroke:#000000;stroke-width:35;stroke-linejoin:round" />
        <path
   d="m 12712,15912 v 777"
   id="path145"
   inkscape:connector-curvature="0"
   style="fill:none;stroke:#000000;stroke-width:35;stroke-linejoin:round" />
        <path
   d="m 13480,15912 v 777"
   id="path147"
   inkscape:connector-curvature="0"
   style="fill:none;stroke:#000000;stroke-width:35;stroke-linejoin:round" />
        <path
   d="m 12712,16653 v 803"
   id="path149"
   inkscape:connector-curvature="0"
   style="fill:none;stroke:#000000;stroke-width:35;stroke-linejoin:round" />
        <path
   d="m 13480,16653 v 803"
   id="path151"
   inkscape:connector-curvature="0"
   style="fill:none;stroke:#000000;stroke-width:35;stroke-linejoin:round" />
        <path
   d="m 12712,17420 v 804"
   id="path153"
   inkscape:connector-curvature="0"
   style="fill:none;stroke:#000000;stroke-width:35;stroke-linejoin:round" />
        <path
   d="m 13480,17420 v 804"
   id="path155"
   inkscape:connector-curvature="0"
   style="fill:none;stroke:#000000;stroke-width:35;stroke-linejoin:round" />
        <path
   d="m 12712,18188 v 776"
   id="path157"
   inkscape:connector-curvature="0"
   style="fill:none;stroke:#000000;stroke-width:35;stroke-linejoin:round" />
        <path
   d="m 13480,18188 v 776"
   id="path159"
   inkscape:connector-curvature="0"
   style="fill:none;stroke:#000000;stroke-width:35;stroke-linejoin:round" />
        <path
   d="m 12712,18928 v 804"
   id="path161"
   inkscape:connector-curvature="0"
   style="fill:none;stroke:#000000;stroke-width:35;stroke-linejoin:round" />
        <path
   d="m 13480,18928 v 804"
   id="path163"
   inkscape:connector-curvature="0"
   style="fill:none;stroke:#000000;stroke-width:35;stroke-linejoin:round" />
        <path
   d="m 12712,19696 v 803"
   id="path165"
   inkscape:connector-curvature="0"
   style="fill:none;stroke:#000000;stroke-width:35;stroke-linejoin:round" />
        <path
   d="m 13480,19696 v 803"
   id="path167"
   inkscape:connector-curvature="0"
   style="fill:none;stroke:#000000;stroke-width:35;stroke-linejoin:round" />
        <path
   d="m 12712,20463 v 777"
   id="path169"
   inkscape:connector-curvature="0"
   style="fill:none;stroke:#000000;stroke-width:35;stroke-linejoin:round" />
        <path
   d="m 13480,20463 v 777"
   id="path171"
   inkscape:connector-curvature="0"
   style="fill:none;stroke:#000000;stroke-width:35;stroke-linejoin:round" />
        <path
   d="M 13480,9827 V 21240"
   id="path173"
   inkscape:connector-curvature="0"
   style="fill:none;stroke:#000000;stroke-width:35;stroke-linejoin:round" />
       </g>
      </g>
     </g>
    </g>
   </g>
  </g>
 </g><rect
   style="fill:#b00000;fill-opacity:0.50196078;stroke:#b00000;stroke-width:105.83332825;stroke-linecap:butt;stroke-linejoin:miter;stroke-miterlimit:3.5999999;stroke-dasharray:none;stroke-opacity:1"
   id="rect1051"
   width="3818"
   height="767"
   x="52.916672"
   y="52.916664" /><rect
   style="fill:#00b000;fill-opacity:0.50196078;fill-rule:evenodd;stroke:#00b000;stroke-width:105.83334351;stroke-linecap:butt;stroke-linejoin:miter;stroke-miterlimit:3.5999999;stroke-dasharray:none;stroke-opacity:1"
   id="rect1051-1"
   width="3818.0005"
   height="767.00006"
   x="52.916672"
   y="819.91669" /><rect
   style="fill:#0000b0;fill-opacity:0.50196078;fill-rule:evenodd;stroke:#0000b0;stroke-width:105.83336639;stroke-linecap:butt;stroke-linejoin:miter;stroke-miterlimit:3.5999999;stroke-dasharray:none;stroke-opacity:1"
   id="rect1051-1-2-3"
   width="3818.0012"
   height="767.00018"
   x="52.916691"
   y="1613.1146" /><rect
   style="fill:#b00000;fill-opacity:0.50196078;fill-rule:evenodd;stroke:#b00000;stroke-width:105.83334351;stroke-linecap:butt;stroke-linejoin:miter;stroke-miterlimit:3.5999999;stroke-dasharray:none;stroke-opacity:1"
   id="rect1051-5"
   width="3818.0005"
   height="767.00006"
   x="52.916679"
   y="2350.4485" /><rect
   style="fill:#00b000;fill-opacity:0.50196078;fill-rule:evenodd;stroke:#00b000;stroke-width:105.83335876;stroke-linecap:butt;stroke-linejoin:miter;stroke-miterlimit:3.5999999;stroke-dasharray:none;stroke-opacity:1"
   id="rect1051-1-2"
   width="3818.0007"
   height="767.00012"
   x="52.916687"
   y="3108.6782" /><rect
   style="fill:#0000b0;fill-opacity:0.50196078;fill-rule:evenodd;stroke:#0000b0;stroke-width:105.83336639;stroke-linecap:butt;stroke-linejoin:miter;stroke-miterlimit:3.5999999;stroke-dasharray:none;stroke-opacity:1"
   id="rect1051-1-2-6"
   width="3818.0012"
   height="767.00018"
   x="52.916691"
   y="3871.1748" /><rect
   style="fill:#b00000;fill-opacity:0.50196078;fill-rule:evenodd;stroke:#b00000;stroke-width:105.83334351;stroke-linecap:butt;stroke-linejoin:miter;stroke-miterlimit:3.5999999;stroke-dasharray:none;stroke-opacity:1"
   id="rect1051-6"
   width="3818.0005"
   height="767.00006"
   x="52.916679"
   y="4594.1987" /><rect
   style="fill:#00b000;fill-opacity:0.50196078;fill-rule:evenodd;stroke:#00b000;stroke-width:105.83335876;stroke-linecap:butt;stroke-linejoin:miter;stroke-miterlimit:3.5999999;stroke-dasharray:none;stroke-opacity:1"
   id="rect1051-1-7"
   width="3818.0007"
   height="767.00012"
   x="52.916687"
   y="5389.5254" /><rect
   style="fill:#0000b0;fill-opacity:0.50196078;fill-rule:evenodd;stroke:#0000b0;stroke-width:105.83336639;stroke-linecap:butt;stroke-linejoin:miter;stroke-miterlimit:3.5999999;stroke-dasharray:none;stroke-opacity:1"
   id="rect1051-1-2-0"
   width="3818.0012"
   height="767.00018"
   x="52.916691"
   y="6140.3579" /><rect
   style="fill:#b00000;fill-opacity:0.50196078;fill-rule:evenodd;stroke:#b00000;stroke-width:105.83334351;stroke-linecap:butt;stroke-linejoin:miter;stroke-miterlimit:3.5999999;stroke-dasharray:none;stroke-opacity:1"
   id="rect1051-2"
   width="3818.0005"
   height="767.00006"
   x="52.916679"
   y="6896.7524" /><rect
   style="fill:#00b000;fill-opacity:0.50196078;fill-rule:evenodd;stroke:#00b000;stroke-width:105.83335876;stroke-linecap:butt;stroke-linejoin:miter;stroke-miterlimit:3.5999999;stroke-dasharray:none;stroke-opacity:1"
   id="rect1051-1-0"
   width="3818.0007"
   height="767.00012"
   x="52.916687"
   y="7658.709" /><rect
   style="fill:#0000b0;fill-opacity:0.50196078;fill-rule:evenodd;stroke:#0000b0;stroke-width:105.83336639;stroke-linecap:butt;stroke-linejoin:miter;stroke-miterlimit:3.5999999;stroke-dasharray:none;stroke-opacity:1"
   id="rect1051-1-2-62"
   width="3818.0012"
   height="767.00018"
   x="52.916691"
   y="8454.0361" /><rect
   style="fill:#b00000;fill-opacity:0.50196078;fill-rule:evenodd;stroke:#b00000;stroke-width:105.83334351;stroke-linecap:butt;stroke-linejoin:miter;stroke-miterlimit:3.5999999;stroke-dasharray:none;stroke-opacity:1"
   id="rect1051-9"
   width="3818.0005"
   height="767.00006"
   x="52.916679"
   y="9171.498" /><rect
   style="fill:#00b000;fill-opacity:0.50196078;fill-rule:evenodd;stroke:#00b000;stroke-width:105.83335876;stroke-linecap:butt;stroke-linejoin:miter;stroke-miterlimit:3.5999999;stroke-dasharray:none;stroke-opacity:1"
   id="rect1051-1-9"
   width="3818.0007"
   height="767.00012"
   x="52.916687"
   y="9944.5781" /><rect
   style="fill:#0000b0;fill-opacity:0.50196078;fill-rule:evenodd;stroke:#0000b0;stroke-width:105.83336639;stroke-linecap:butt;stroke-linejoin:miter;stroke-miterlimit:3.5999999;stroke-dasharray:none;stroke-opacity:1"
   id="rect1051-1-2-61"
   width="3818.0012"
   height="767.00018"
   x="52.916691"
   y="10689.849" /><text
   xml:space="preserve"
   style="font-style:normal;font-weight:normal;font-size:634.99993896px;line-height:1.25;font-family:sans-serif;text-align:end;letter-spacing:0px;word-spacing:0px;text-anchor:end;fill:#b00000;fill-opacity:1;stroke:none;stroke-width:746.70703125"
   x="10888.438"
   y="3068.8682"
   id="text1172"><tspan
     sodipodi:role="line"
     id="tspan1170"
     x="10888.438"
     y="3068.8682"
     style="font-size:1270px;fill:#b00000;fill-opacity:1;stroke-width:746.70703125">DFT5</tspan></text>
<text
   xml:space="preserve"
   style="font-style:normal;font-weight:normal;font-size:635px;line-height:1.25;font-family:sans-serif;text-align:end;letter-spacing:0px;word-spacing:0px;text-anchor:end;fill:#00b000;fill-opacity:1;fill-rule:evenodd;stroke:none;stroke-width:746.70709229;stroke-linejoin:round"
   x="10888.438"
   y="6662.0942"
   id="text1172-8"><tspan
     sodipodi:role="line"
     id="tspan1170-7"
     x="10888.438"
     y="6662.0942"
     style="font-size:1270px;fill:#00b000;fill-opacity:1;stroke-width:746.70709229">DFT5</tspan></text>
<text
   xml:space="preserve"
   style="font-style:normal;font-weight:normal;font-size:635px;line-height:1.25;font-family:sans-serif;text-align:end;letter-spacing:0px;word-spacing:0px;text-anchor:end;fill:#0000b0;fill-opacity:1;fill-rule:evenodd;stroke:none;stroke-width:746.70709229;stroke-linejoin:round"
   x="10888.438"
   y="9698.1641"
   id="text1172-9"><tspan
     sodipodi:role="line"
     id="tspan1170-2"
     x="10888.438"
     y="9698.1641"
     style="font-size:1270px;fill:#0000b0;fill-opacity:1;stroke-width:746.70709229">DFT5</tspan></text>
<path
   style="fill:none;stroke:#b00000;stroke-width:105.83332825;stroke-linecap:butt;stroke-linejoin:miter;stroke-miterlimit:4;stroke-dasharray:none;stroke-opacity:1"
   d="M 3891.264,410.34075 7910.5169,2675.5949"
   id="path1200"
   inkscape:connector-curvature="0"
   sodipodi:nodetypes="cc" /><path
   style="fill:none;fill-rule:evenodd;stroke:#b00000;stroke-width:105.83334351;stroke-linecap:butt;stroke-linejoin:miter;stroke-miterlimit:4;stroke-dasharray:none;stroke-opacity:1"
   d="m 3891.2639,2707.0563 4019.253,-31.4614"
   id="path1200-0"
   inkscape:connector-curvature="0"
   sodipodi:nodetypes="cc" /><path
   style="fill:none;fill-rule:evenodd;stroke:#b00000;stroke-width:105.83334351;stroke-linecap:butt;stroke-linejoin:miter;stroke-miterlimit:4;stroke-dasharray:none;stroke-opacity:1"
   d="M 3859.8021,4940.8487 7910.5169,2675.5949"
   id="path1200-2"
   inkscape:connector-curvature="0"
   sodipodi:nodetypes="cc" /><path
   style="fill:none;fill-rule:evenodd;stroke:#b00000;stroke-width:105.83334351;stroke-linecap:butt;stroke-linejoin:miter;stroke-miterlimit:4;stroke-dasharray:none;stroke-opacity:1"
   d="M 3867.6676,7237.5647 7910.5169,2675.5949"
   id="path1200-3"
   inkscape:connector-curvature="0"
   sodipodi:nodetypes="cc" /><path
   style="fill:none;fill-rule:evenodd;stroke:#b00000;stroke-width:105.83334351;stroke-linecap:butt;stroke-linejoin:miter;stroke-miterlimit:4;stroke-dasharray:none;stroke-opacity:1"
   d="M 3875.533,9526.4152 7910.5169,2675.5949"
   id="path1200-7"
   inkscape:connector-curvature="0"
   sodipodi:nodetypes="cc" /><path
   style="fill:none;fill-rule:evenodd;stroke:#00b00f;stroke-width:105.83334351;stroke-linecap:butt;stroke-linejoin:miter;stroke-miterlimit:4;stroke-dasharray:none;stroke-opacity:0.94117647"
   d="M 3883.1006,1208.8145 6812.2558,6143.6964"
   id="path1200-5"
   inkscape:connector-curvature="0"
   sodipodi:nodetypes="cc" /><path
   style="fill:none;fill-rule:evenodd;stroke:#00b00f;stroke-width:105.83335876;stroke-linecap:butt;stroke-linejoin:miter;stroke-miterlimit:4;stroke-dasharray:none;stroke-opacity:0.94117647"
   d="M 3883.1004,3489.1213 6812.2558,6143.6964"
   id="path1200-5-9"
   inkscape:connector-curvature="0"
   sodipodi:nodetypes="cc" /><path
   style="fill:none;fill-rule:evenodd;stroke:#00b00f;stroke-width:105.83335876;stroke-linecap:butt;stroke-linejoin:miter;stroke-miterlimit:4;stroke-dasharray:none;stroke-opacity:0.94117647"
   d="m 3871.977,5758.3048 2940.2788,385.3916"
   id="path1200-5-2"
   inkscape:connector-curvature="0"
   sodipodi:nodetypes="cc" /><path
   style="fill:none;fill-rule:evenodd;stroke:#00b00f;stroke-width:105.83335876;stroke-linecap:butt;stroke-linejoin:miter;stroke-miterlimit:4;stroke-dasharray:none;stroke-opacity:0.94117647"
   d="M 3883.1003,8060.8586 6812.2558,6143.6964"
   id="path1200-5-28"
   inkscape:connector-curvature="0"
   sodipodi:nodetypes="cc" /><path
   style="fill:none;fill-rule:evenodd;stroke:#00b00f;stroke-width:105.83335876;stroke-linecap:butt;stroke-linejoin:miter;stroke-miterlimit:4;stroke-dasharray:none;stroke-opacity:0.94117647"
   d="M 3871.9769,10296.672 6812.2558,6143.6964"
   id="path1200-5-97"
   inkscape:connector-curvature="0"
   sodipodi:nodetypes="cc" /><path
   style="fill:none;fill-rule:evenodd;stroke:#0000b0;stroke-width:105.83336639;stroke-linecap:butt;stroke-linejoin:miter;stroke-miterlimit:4;stroke-dasharray:none;stroke-opacity:1"
   d="m 3888.662,8833.9389 2791.9854,389.3205"
   id="path1200-5-97-3"
   inkscape:connector-curvature="0"
   sodipodi:nodetypes="cc" /><path
   style="fill:none;fill-rule:evenodd;stroke:#0000b0;stroke-width:105.83338165;stroke-linecap:butt;stroke-linejoin:miter;stroke-miterlimit:4;stroke-dasharray:none;stroke-opacity:1"
   d="m 3877.5384,6498.0151 2803.109,2725.2443"
   id="path1200-5-97-3-6"
   inkscape:connector-curvature="0"
   sodipodi:nodetypes="cc" /><path
   style="fill:none;fill-rule:evenodd;stroke:#0000b0;stroke-width:105.83338165;stroke-linecap:butt;stroke-linejoin:miter;stroke-miterlimit:4;stroke-dasharray:none;stroke-opacity:1"
   d="M 3910.9087,11180.987 6680.6474,9223.2594"
   id="path1200-5-97-3-1"
   inkscape:connector-curvature="0"
   sodipodi:nodetypes="cc" /><path
   style="fill:none;fill-rule:evenodd;stroke:#0000b0;stroke-width:105.83338165;stroke-linecap:butt;stroke-linejoin:miter;stroke-miterlimit:4;stroke-dasharray:none;stroke-opacity:1"
   d="M 6680.6474,9223.2594 3870.1041,4269.3949"
   id="path1200-5-97-3-2"
   inkscape:connector-curvature="0"
   sodipodi:nodetypes="cc" /><path
   style="fill:none;fill-rule:evenodd;stroke:#0000b0;stroke-width:105.83338165;stroke-linecap:butt;stroke-linejoin:miter;stroke-miterlimit:4;stroke-dasharray:none;stroke-opacity:1"
   d="M 6680.6474,9223.2594 3870.1041,2000.2114"
   id="path1200-5-97-3-9"
   inkscape:connector-curvature="0"
   sodipodi:nodetypes="cc" /><text
   xml:space="preserve"
   style="font-style:normal;font-weight:normal;font-size:634.99993896px;line-height:1.25;font-family:sans-serif;text-align:end;letter-spacing:0px;word-spacing:0px;text-anchor:end;fill:#000000;fill-opacity:1;stroke:none;stroke-width:746.70703125"
   x="7828.2065"
   y="6668.4629"
   id="text1333"><tspan
     sodipodi:role="line"
     id="tspan1331"
     x="7828.2065"
     y="6668.4629"
     style="font-size:1693.33325195px;fill:#008080;stroke-width:746.70703125">1</tspan></text>
<text
   xml:space="preserve"
   style="font-style:normal;font-weight:normal;font-size:635px;line-height:1.25;font-family:sans-serif;text-align:end;letter-spacing:0px;word-spacing:0px;text-anchor:end;fill:#000000;fill-opacity:1;fill-rule:evenodd;stroke:none;stroke-width:746.70709229;stroke-linejoin:round"
   x="7587.0649"
   y="9809.1299"
   id="text1333-3"><tspan
     sodipodi:role="line"
     id="tspan1331-1"
     x="7587.0649"
     y="9809.1299"
     style="font-size:1693.33349609px;fill:#008080;stroke-width:746.70709229">2</tspan></text>
</svg>