<?xml version="1.0" encoding="UTF-8" standalone="no"?>
<!-- Created with matplotlib (https://matplotlib.org/) -->

<svg
   xmlns:dc="http://purl.org/dc/elements/1.1/"
   xmlns:cc="http://creativecommons.org/ns#"
   xmlns:rdf="http://www.w3.org/1999/02/22-rdf-syntax-ns#"
   xmlns:svg="http://www.w3.org/2000/svg"
   xmlns="http://www.w3.org/2000/svg"
   xmlns:xlink="http://www.w3.org/1999/xlink"
   xmlns:sodipodi="http://sodipodi.sourceforge.net/DTD/sodipodi-0.dtd"
   xmlns:inkscape="http://www.inkscape.org/namespaces/inkscape"
   height="34.290666pt"
   version="1.1"
   viewBox="0 0 525.198708 34.290666"
   width="525.198708pt"
   id="svg136"
   sodipodi:docname="sum_cosine_concrete.svg"
   inkscape:version="0.92.3 (2405546, 2018-03-11)">
  <metadata
     id="metadata140">
    <rdf:RDF>
      <cc:Work
         rdf:about="">
        <dc:format>image/svg+xml</dc:format>
        <dc:type
           rdf:resource="http://purl.org/dc/dcmitype/StillImage" />
      </cc:Work>
    </rdf:RDF>
  </metadata>
  <sodipodi:namedview
     pagecolor="#ffffff"
     bordercolor="#666666"
     borderopacity="1"
     objecttolerance="10"
     gridtolerance="10"
     guidetolerance="10"
     inkscape:pageopacity="0"
     inkscape:pageshadow="2"
     inkscape:window-width="1920"
     inkscape:window-height="997"
     id="namedview138"
     showgrid="false"
     inkscape:zoom="1.4142136"
     inkscape:cx="474.61228"
     inkscape:cy="-2.4134105"
     inkscape:window-x="0"
     inkscape:window-y="120"
     inkscape:window-maximized="1"
     inkscape:current-layer="svg136" />
  <defs
     id="defs4">
    <style
       type="text/css"
       id="style2">
*{stroke-linecap:butt;stroke-linejoin:round;}
  </style>
    <defs
       id="defs26">
      <path
         d="m 22.796875,20 c 1.703125,-0.296875 4.40625,-0.890625 5,-1 1.296875,-0.375 5.796875,-1.96875 5.796875,-6.765625 0,-3.078125 -2.796875,-11.140625 -14.390625,-11.140625 -2.109375,0 -9.609375,0 -11.609375,5.71875 4,-0.5 6,2.609375 6,4.828125 0,2.109375 -1.390625,3.203125 -3.390625,3.203125 C 8,14.84375 5.09375,13.140625 5.09375,8.625 c 0,-5.921875 6,-9.625 14,-9.625 15.203125,0 19.703125,11.171875 19.703125,16.375 0,1.484375 0,4.28125 -3.203125,7.46875 -2.5,2.40625 -4.890625,2.90625 -10.296875,4 -2.703125,0.59375 -7,1.5 -7,5.984375 0,2 1.796875,9.1875 11.296875,9.1875 4.203125,0 8.3125,-1.5625 9.3125,-5.015625 -4.40625,0 -4.609375,-3.796875 -4.609375,-3.890625 0,-2.109375 1.90625,-2.703125 2.796875,-2.703125 1.40625,0 4.203125,1.078125 4.203125,5.234375 C 41.296875,39.765625 37.5,44 29.703125,44 16.59375,44 13.09375,33.75 13.09375,29.671875 13.09375,22.09375 20.5,20.5 22.796875,20 Z"
         id="CMMI12-115"
         inkscape:connector-curvature="0"
         style="stroke-linecap:butt;stroke-linejoin:round" />
      <path
         d="m 30.59375,-24.390625 c 0,0.09375 0,0.296875 -0.296875,0.59375 -4.59375,4.671875 -16.890625,17.4375 -16.890625,48.5 0,31.0625 12.09375,43.71875 17,48.6875 0,0.109375 0.1875,0.3125 0.1875,0.609375 0,0.296875 -0.296875,0.5 -0.6875,0.5 -1.109375,0 -9.609375,-7.375 -14.5,-18.34375 C 10.40625,45.109375 9,34.359375 9,24.8125 9,17.625 9.703125,5.484375 15.703125,-7.359375 20.5,-17.734375 28.703125,-25 29.90625,-25 c 0.5,0 0.6875,0.203125 0.6875,0.609375 z"
         id="CMR17-40"
         inkscape:connector-curvature="0"
         style="stroke-linecap:butt;stroke-linejoin:round" />
      <path
         d="M 47.40625,40.71875 C 44.203125,40.109375 43,37.71875 43,35.828125 43,33.421875 44.90625,32.625 46.296875,32.625 c 3,0 5.109375,2.59375 5.109375,5.296875 0,4.1875 -4.8125,6.078125 -9,6.078125 C 36.296875,44 32.90625,38.015625 32,36.125 29.703125,44 23.5,44 21.703125,44 11.5,44 6.09375,30.9375 6.09375,28.734375 6.09375,28.34375 6.5,27.84375 7.203125,27.84375 c 0.796875,0 1,0.59375 1.203125,1 3.390625,11.078125 10.09375,13.171875 13,13.171875 4.5,0 5.390625,-4.203125 5.390625,-6.59375 0,-2.1875 -0.59375,-4.484375 -1.796875,-9.28125 L 21.59375,12.46875 C 20.09375,6.484375 17.203125,1 11.90625,1 c -0.5,0 -3,0 -5.109375,1.296875 3.609375,0.703125 4.40625,3.6875 4.40625,4.890625 0,2 -1.5,3.1875 -3.40625,3.1875 -2.390625,0 -5,-2.09375 -5,-5.28125 C 2.796875,0.890625 7.5,-1 11.796875,-1 16.59375,-1 20,2.796875 22.09375,6.890625 23.703125,1 28.703125,-1 32.40625,-1 42.59375,-1 48,12.078125 48,14.265625 c 0,0.5 -0.40625,0.90625 -1,0.90625 -0.90625,0 -1,-0.5 -1.296875,-1.296875 C 43,5.09375 37.203125,1 32.703125,1 c -3.5,0 -5.40625,2.59375 -5.40625,6.6875 0,2.1875 0.40625,3.78125 2,10.375 l 3.5,13.5625 c 1.5,6 4.90625,10.390625 9.5,10.390625 0.203125,0 3,0 5.109375,-1.296875 z"
         id="CMMI12-120"
         inkscape:connector-curvature="0"
         style="stroke-linecap:butt;stroke-linejoin:round" />
      <path
         d="m 26.296875,24.703125 c 0,7.171875 -0.703125,19.3125 -6.703125,32.15625 -4.796875,10.375 -13,17.640625 -14.1875,17.640625 -0.3125,0 -0.703125,-0.109375 -0.703125,-0.609375 0,-0.1875 0.09375,-0.296875 0.203125,-0.5 4.796875,-4.984375 17,-17.640625 17,-48.640625 0,-31.109375 -12.109375,-43.765625 -17,-48.765625 C 4.796875,-24.203125 4.703125,-24.3125 4.703125,-24.5 c 0,-0.5 0.390625,-0.5 0.703125,-0.5 1.09375,0 9.59375,7.375 14.5,18.34375 5,11.046875 6.390625,21.796875 6.390625,31.359375 z"
         id="CMR17-41"
         inkscape:connector-curvature="0"
         style="stroke-linecap:butt;stroke-linejoin:round" />
      <path
         d="m 64.296875,31.515625 c 1.5,0 3,0 3,1.6875 C 67.296875,35 65.59375,35 63.90625,35 H 8 c -1.703125,0 -3.40625,0 -3.40625,-1.796875 0,-1.6875 1.5,-1.6875 3,-1.6875 z M 63.90625,14 c 1.6875,0 3.390625,0 3.390625,1.796875 0,1.6875 -1.5,1.6875 -3,1.6875 H 7.59375 c -1.5,0 -3,0 -3,-1.6875 C 4.59375,14 6.296875,14 8,14 Z"
         id="CMR17-61"
         inkscape:connector-curvature="0"
         style="stroke-linecap:butt;stroke-linejoin:round" />
      <path
         d="M 22.09375,33.703125 C 31,33.703125 34.90625,25.96875 34.90625,17.03125 34.90625,5 28.5,0.390625 22.703125,0.390625 c -5.296875,0 -13.90625,2.640625 -16.609375,10.4375 0.5,-0.203125 1,-0.203125 1.5,-0.203125 2.40625,0 4.203125,1.59375 4.203125,4.1875 C 11.796875,17.703125 9.59375,19 7.59375,19 5.90625,19 3.296875,18.203125 3.296875,14.46875 3.296875,5.234375 12.296875,-2 22.90625,-2 34,-2 42.5,6.71875 42.5,16.953125 c 0,9.71875 -8,16.75 -17.5,17.84375 C 32.59375,36.375 39.90625,43.0625 39.90625,52.015625 39.90625,59.6875 32,65.296875 23,65.296875 c -9.09375,0 -17.09375,-5.46875 -17.09375,-13.28125 C 5.90625,48.59375 8.5,48 9.796875,48 c 2.109375,0 3.90625,1.296875 3.90625,3.890625 0,2.578125 -1.796875,3.875 -3.90625,3.875 -0.390625,0 -0.890625,0 -1.296875,-0.1875 C 11.40625,61.859375 19.296875,63 22.796875,63 c 3.5,0 10.109375,-1.671875 10.109375,-11.125 0,-2.765625 -0.40625,-7.6875 -3.8125,-12.03125 C 26.09375,36 22.703125,36 19.40625,35.6875 c -0.5,0 -2.8125,-0.234375 -3.203125,-0.234375 C 15.5,35.359375 15.09375,35.265625 15.09375,34.5 c 0,-0.703125 0.109375,-0.796875 2.109375,-0.796875 z"
         id="CMR17-51"
         inkscape:connector-curvature="0"
         style="stroke-linecap:butt;stroke-linejoin:round" />
      <path
         d="m 18.40625,4.796875 c 0,2.890625 -2.40625,4.875 -4.8125,4.875 -2.890625,0 -4.890625,-2.390625 -4.890625,-4.78125 C 8.703125,2 11.09375,0 13.5,0 c 2.90625,0 4.90625,2.390625 4.90625,4.796875 z"
         id="CMMI12-58"
         inkscape:connector-curvature="0"
         style="stroke-linecap:butt;stroke-linejoin:round" />
      <path
         d="M 26.59375,63.40625 C 26.59375,65.5 26.5,65.5 25.09375,65.5 21.203125,61.1875 15.296875,59.796875 9.703125,59.796875 c -0.296875,0 -0.796875,0 -0.90625,-0.296875 C 8.703125,59.296875 8.703125,59.09375 8.703125,57 11.796875,57 17,57.59375 21,59.984375 V 7.203125 C 21,3.6875 20.796875,2.5 12.203125,2.5 h -3 V 0 C 14,0 19,0 23.796875,0 28.59375,0 33.59375,0 38.40625,0 v 2.5 h -3 c -8.609375,0 -8.8125,1.09375 -8.8125,4.65625 z"
         id="CMR17-49"
         inkscape:connector-curvature="0"
         style="stroke-linecap:butt;stroke-linejoin:round" />
      <path
         d="m 19.203125,25.296875 c 0,2.90625 -2.40625,5.296875 -5.296875,5.296875 -2.90625,0 -5.3125,-2.390625 -5.3125,-5.296875 C 8.59375,22.390625 11,20 13.90625,20 c 2.890625,0 5.296875,2.390625 5.296875,5.296875 z"
         id="CMSY10-1"
         inkscape:connector-curvature="0"
         style="stroke-linecap:butt;stroke-linejoin:round" />
      <path
         d="m 39.09375,37.984375 c -1.890625,0 -2.796875,0 -4.1875,-1.1875 -0.609375,-0.5 -1.703125,-2 -1.703125,-3.59375 0,-2 1.5,-3.203125 3.390625,-3.203125 2.40625,0 5.109375,1.9375 5.109375,5.8125 0,4.625 -4.609375,8.1875 -11.5,8.1875 C 17.09375,44 4,29.734375 4,15.5625 4,6.890625 9.40625,-1 19.59375,-1 c 13.609375,0 22.203125,10.71875 22.203125,12.03125 0,0.59375 -0.59375,1.09375 -1,1.09375 C 40.5,12.125 40.40625,12.03125 39.5,11.140625 33.09375,2.53125 23.59375,1 19.796875,1 c -6.890625,0 -9.09375,5.96875 -9.09375,10.9375 0,3.5 1.703125,13.140625 5.296875,19.921875 2.59375,4.671875 8,10.046875 14.296875,10.046875 1.296875,0 6.796875,0 8.796875,-3.921875 z"
         id="CMMI12-99"
         inkscape:connector-curvature="0"
         style="stroke-linecap:butt;stroke-linejoin:round" />
      <path
         d="M 45.59375,27.4375 C 45.59375,36.921875 39.40625,44 30.296875,44 17.09375,44 4.09375,29.640625 4.09375,15.5625 4.09375,6.09375 10.296875,-1 19.40625,-1 c 13.296875,0 26.1875,14.375 26.1875,28.4375 z M 19.5,1 c -5,0 -8.703125,3.984375 -8.703125,10.96875 0,4.59375 2.40625,14.78125 5.203125,19.765625 4.5,7.6875 10.09375,10.28125 14.203125,10.28125 4.890625,0 8.703125,-4 8.703125,-10.984375 0,-3.984375 -2.109375,-14.671875 -5.90625,-20.75 C 28.90625,3.59375 23.40625,1 19.5,1 Z"
         id="CMMI12-111"
         inkscape:connector-curvature="0"
         style="stroke-linecap:butt;stroke-linejoin:round" />
      <path
         d="M 41.703125,15.453125 H 39.90625 C 38.90625,8.375 38.09375,7.171875 37.703125,6.5625 37.203125,5.765625 30,5.765625 28.59375,5.765625 H 9.40625 C 13,9.671875 20,16.75 28.5,24.953125 34.59375,30.734375 41.703125,37.53125 41.703125,47.421875 41.703125,59.21875 32.296875,66 21.796875,66 10.796875,66 4.09375,56.3125 4.09375,47.34375 4.09375,43.4375 7,42.9375 8.203125,42.9375 c 1,0 4,0.609375 4,4.09375 0,3.078125 -2.609375,3.96875 -4,3.96875 C 7.59375,51 7,50.90625 6.59375,50.703125 8.5,59.21875 14.296875,63.40625 20.40625,63.40625 c 8.6875,0 14.390625,-6.890625 14.390625,-15.984375 C 34.796875,38.734375 29.703125,31.25 24,24.75 L 4.09375,2.28125 V 0 h 35.203125 z"
         id="CMR17-50"
         inkscape:connector-curvature="0"
         style="stroke-linecap:butt;stroke-linejoin:round" />
      <path
         d="M 25.90625,37.625 H 37.203125 C 34.5,26.4375 32.796875,19.15625 32.796875,11.1875 c 0,-1.40625 0,-12.1875 4.109375,-12.1875 2.09375,0 3.890625,1.890625 3.890625,3.59375 0,0.484375 0,0.6875 -0.703125,2.1875 -2.6875,6.890625 -2.6875,15.46875 -2.6875,16.171875 0,0.59375 0,7.671875 2.09375,16.671875 h 11.203125 c 1.296875,0 4.59375,0 4.59375,3.1875 C 55.296875,43 53.40625,43 51.59375,43 H 18.703125 C 16.40625,43 13,43 8.40625,38.125 5.796875,35.21875 2.59375,29.9375 2.59375,29.34375 c 0,-0.59375 0.5,-0.796875 1.109375,-0.796875 C 4.40625,28.546875 4.5,28.84375 5,29.4375 10.203125,37.625 15.40625,37.625 17.90625,37.625 h 5.6875 C 21.40625,30.140625 18.90625,21.453125 10.703125,4 9.90625,2.40625 9.90625,2.1875 9.90625,1.59375 9.90625,-0.5 11.703125,-1 12.59375,-1 15.5,-1 16.296875,1.59375 17.5,5.78125 c 1.59375,5.09375 1.59375,5.296875 2.59375,9.28125 z"
         id="CMMI12-25"
         inkscape:connector-curvature="0"
         style="stroke-linecap:butt;stroke-linejoin:round" />
      <path
         d="M 42,31.640625 C 42,37.75 41.90625,48.125 37.703125,56.109375 34,63.109375 28.09375,65.59375 22.90625,65.59375 18.09375,65.59375 12,63.40625 8.203125,56.203125 4.203125,48.71875 3.796875,39.4375 3.796875,31.640625 3.796875,25.953125 3.90625,17.28125 7,9.671875 11.296875,-0.609375 19,-2 22.90625,-2 27.5,-2 34.5,-0.109375 38.59375,9.375 41.59375,16.28125 42,24.359375 42,31.640625 Z M 22.90625,-0.40625 c -6.40625,0 -10.203125,5.484375 -11.609375,13.09375 -1.09375,5.875 -1.09375,14.46875 -1.09375,20.0625 0,7.6875 0,14.078125 1.296875,20.171875 C 13.40625,61.390625 19,64 22.90625,64 27,64 32.296875,61.296875 34.203125,53.125 35.5,47.4375 35.59375,40.734375 35.59375,32.75 c 0,-6.5 0,-14.484375 -1.1875,-20.375 -2.109375,-10.890625 -8,-12.78125 -11.5,-12.78125 z"
         id="CMR17-48"
         inkscape:connector-curvature="0"
         style="stroke-linecap:butt;stroke-linejoin:round" />
      <path
         d="m 37.703125,23 h 26.5 c 1.390625,0 3.09375,0 3.09375,1.6875 0,1.796875 -1.59375,1.796875 -3.09375,1.796875 h -26.5 V 52.90625 c 0,1.390625 0,3.09375 -1.703125,3.09375 -1.796875,0 -1.796875,-1.59375 -1.796875,-3.09375 V 26.484375 h -26.5 c -1.40625,0 -3.109375,0 -3.109375,-1.6875 C 4.59375,23 6.203125,23 7.703125,23 h 26.5 V -3.40625 c 0,-1.390625 0,-3.09375 1.703125,-3.09375 1.796875,0 1.796875,1.59375 1.796875,3.09375 z"
         id="CMR17-43"
         inkscape:connector-curvature="0"
         style="stroke-linecap:butt;stroke-linejoin:round" />
      <path
         d="M 27.203125,35.375 C 33.5,38.546875 39.90625,43.328125 39.90625,50.984375 c 0,9.03125 -8.8125,14.3125 -16.90625,14.3125 -9.09375,0 -17.09375,-6.5625 -17.09375,-15.609375 0,-2.484375 0.59375,-6.765625 4.5,-10.546875 1,-0.984375 5.1875,-3.96875 7.890625,-5.859375 -4.5,-2.296875 -15,-7.75 -15,-18.6875 C 3.296875,4.359375 13.09375,-2 22.796875,-2 33.5,-2 42.5,5.65625 42.5,15.78125 c 0,9.0625 -6.09375,13.234375 -10.09375,15.921875 z M 14.09375,44.09375 c -0.796875,0.5 -4.796875,3.578125 -4.796875,8.265625 0,6.0625 6.296875,10.640625 13.5,10.640625 C 30.703125,63 36.5,57.4375 36.5,50.96875 36.5,41.703125 26.09375,36.421875 25.59375,36.421875 c -0.09375,0 -0.1875,0 -1,0.609375 z M 32.5,23.734375 C 34,22.640625 38.796875,19.375 38.796875,13.296875 38.796875,5.953125 31.40625,0.390625 23,0.390625 c -9.09375,0 -16,6.453125 -16,14.296875 0,7.859375 6.09375,14.40625 13,17.5 z"
         id="CMR17-56"
         inkscape:connector-curvature="0"
         style="stroke-linecap:butt;stroke-linejoin:round" />
      <path
         d="M 33.59375,64.40625 C 33.59375,66.5 33.5,66.5 31.703125,66.5 L 2,19.59375 V 17 H 27.796875 V 7.140625 C 27.796875,3.5 27.59375,2.5 20.59375,2.5 H 18.703125 V 0 c 3.203125,0 8.59375,0 12,0 3.390625,0 8.796875,0 12,0 v 2.5 h -1.90625 c -7,0 -7.203125,1 -7.203125,4.640625 V 17 h 10.203125 v 2.59375 H 33.59375 Z m -5.5,-6.546875 V 19.59375 H 4 Z"
         id="CMR17-52"
         inkscape:connector-curvature="0"
         style="stroke-linecap:butt;stroke-linejoin:round" />
    </defs>
  </defs>
  <g
     style="stroke-linecap:butt;stroke-linejoin:round"
     id="patch_1">
    <path
       inkscape:connector-curvature="0"
       id="path6"
       style="fill:none;stroke-linecap:butt;stroke-linejoin:round"
       d="M 0,34.290666 H 525.19871 V 0 H 0 Z" />
  </g>
  <g
     id="g4907">
    <use
       transform="matrix(0.1992528,0,0,-0.1992528,7.2,22.126022)"
       xlink:href="#CMMI12-115"
       id="use28"
       style="fill:#1f77b4;stroke-linecap:butt;stroke-linejoin:round;fill-opacity:1"
       x="0"
       y="0"
       width="100%"
       height="100%" />
    <use
       transform="matrix(0.1992528,0,0,-0.1992528,16.39001,22.126022)"
       xlink:href="#CMR17-40"
       id="use30"
       style="fill:#1f77b4;stroke-linecap:butt;stroke-linejoin:round;fill-opacity:1"
       x="0"
       y="0"
       width="100%"
       height="100%" />
    <use
       transform="matrix(0.1992528,0,0,-0.1992528,23.446163,22.126022)"
       xlink:href="#CMMI12-120"
       id="use32"
       style="fill:#1f77b4;stroke-linecap:butt;stroke-linejoin:round;fill-opacity:1"
       x="0"
       y="0"
       width="100%"
       height="100%" />
    <use
       transform="matrix(0.1992528,0,0,-0.1992528,34.532974,22.126022)"
       xlink:href="#CMR17-41"
       id="use34"
       style="fill:#1f77b4;stroke-linecap:butt;stroke-linejoin:round;fill-opacity:1"
       x="0"
       y="0"
       width="100%"
       height="100%" />
    <use
       transform="matrix(0.1992528,0,0,-0.1992528,47.12393,22.126022)"
       xlink:href="#CMR17-61"
       id="use36"
       style="fill:#000000;stroke-linecap:butt;stroke-linejoin:round"
       x="0"
       y="0"
       width="100%"
       height="100%" />
    <use
       transform="matrix(0.1992528,0,0,-0.1992528,67.00169,22.126022)"
       xlink:href="#CMR17-51"
       id="use38"
       style="fill:#ff0000;stroke-linecap:butt;stroke-linejoin:round;fill-opacity:1"
       x="0"
       y="0"
       width="100%"
       height="100%" />
    <use
       transform="matrix(0.1992528,0,0,-0.1992528,76.139786,22.126022)"
       xlink:href="#CMMI12-58"
       id="use40"
       style="fill:#ff0000;stroke-linecap:butt;stroke-linejoin:round;fill-opacity:1"
       x="0"
       y="0"
       width="100%"
       height="100%" />
    <use
       transform="matrix(0.1992528,0,0,-0.1992528,81.55922,22.126022)"
       xlink:href="#CMR17-49"
       id="use42"
       style="fill:#ff0000;stroke-linecap:butt;stroke-linejoin:round;fill-opacity:1"
       x="0"
       y="0"
       width="100%"
       height="100%" />
    <use
       transform="matrix(0.1992528,0,0,-0.1992528,95.125158,22.126022)"
       xlink:href="#CMSY10-1"
       id="use44"
       style="fill:#ff0000;stroke-linecap:butt;stroke-linejoin:round;fill-opacity:1"
       x="0"
       y="0"
       width="100%"
       height="100%" />
    <use
       transform="matrix(0.1992528,0,0,-0.1992528,105.08782,22.126022)"
       xlink:href="#CMMI12-99"
       id="use46"
       style="fill:#ff0000;stroke-linecap:butt;stroke-linejoin:round;fill-opacity:1"
       x="0"
       y="0"
       width="100%"
       height="100%" />
    <use
       transform="matrix(0.1992528,0,0,-0.1992528,113.48446,22.126022)"
       xlink:href="#CMMI12-111"
       id="use48"
       style="fill:#ff0000;stroke-linecap:butt;stroke-linejoin:round;fill-opacity:1"
       x="0"
       y="0"
       width="100%"
       height="100%" />
    <use
       transform="matrix(0.1992528,0,0,-0.1992528,122.86352,22.126022)"
       xlink:href="#CMMI12-115"
       id="use50"
       style="fill:#ff0000;stroke-linecap:butt;stroke-linejoin:round;fill-opacity:1"
       x="0"
       y="0"
       width="100%"
       height="100%" />
    <use
       transform="matrix(0.1992528,0,0,-0.1992528,132.05353,22.126022)"
       xlink:href="#CMR17-40"
       id="use52"
       style="fill:#ff0000;stroke-linecap:butt;stroke-linejoin:round;fill-opacity:1"
       x="0"
       y="0"
       width="100%"
       height="100%" />
    <use
       transform="matrix(0.1992528,0,0,-0.1992528,139.10969,22.126022)"
       xlink:href="#CMR17-50"
       id="use54"
       style="fill:#ff0000;stroke-linecap:butt;stroke-linejoin:round;fill-opacity:1"
       x="0"
       y="0"
       width="100%"
       height="100%" />
    <use
       transform="matrix(0.1992528,0,0,-0.1992528,148.24778,22.126022)"
       xlink:href="#CMMI12-25"
       id="use56"
       style="fill:#ff0000;stroke-linecap:butt;stroke-linejoin:round;fill-opacity:1"
       x="0"
       y="0"
       width="100%"
       height="100%" />
    <use
       transform="matrix(0.1992528,0,0,-0.1992528,160.0299,22.126022)"
       xlink:href="#CMR17-48"
       id="use58"
       style="fill:#ff0000;stroke-linecap:butt;stroke-linejoin:round;fill-opacity:1"
       x="0"
       y="0"
       width="100%"
       height="100%" />
    <use
       transform="matrix(0.1992528,0,0,-0.1992528,169.168,22.126022)"
       xlink:href="#CMMI12-58"
       id="use60"
       style="fill:#ff0000;stroke-linecap:butt;stroke-linejoin:round;fill-opacity:1"
       x="0"
       y="0"
       width="100%"
       height="100%" />
    <use
       transform="matrix(0.1992528,0,0,-0.1992528,174.58743,22.126022)"
       xlink:href="#CMR17-49"
       id="use62"
       style="fill:#ff0000;stroke-linecap:butt;stroke-linejoin:round;fill-opacity:1"
       x="0"
       y="0"
       width="100%"
       height="100%" />
    <use
       transform="matrix(0.1992528,0,0,-0.1992528,183.72553,22.126022)"
       xlink:href="#CMMI12-120"
       id="use64"
       style="fill:#ff0000;stroke-linecap:butt;stroke-linejoin:round;fill-opacity:1"
       x="0"
       y="0"
       width="100%"
       height="100%" />
    <use
       transform="matrix(0.1992528,0,0,-0.1992528,194.81234,22.126022)"
       xlink:href="#CMR17-41"
       id="use66"
       style="fill:#ff0000;stroke-linecap:butt;stroke-linejoin:round;fill-opacity:1"
       x="0"
       y="0"
       width="100%"
       height="100%" />
    <use
       transform="matrix(0.1992528,0,0,-0.1992528,206.29634,22.126022)"
       xlink:href="#CMR17-43"
       id="use68"
       style="fill:#000000;stroke-linecap:butt;stroke-linejoin:round"
       x="0"
       y="0"
       width="100%"
       height="100%" />
    <use
       transform="matrix(0.1992528,0,0,-0.1992528,225.06714,22.126022)"
       xlink:href="#CMR17-48"
       id="use70"
       style="fill:#008000;stroke-linecap:butt;stroke-linejoin:round;fill-opacity:1"
       x="0"
       y="0"
       width="100%"
       height="100%" />
    <use
       transform="matrix(0.1992528,0,0,-0.1992528,234.20524,22.126022)"
       xlink:href="#CMMI12-58"
       id="use72"
       style="fill:#008000;stroke-linecap:butt;stroke-linejoin:round;fill-opacity:1"
       x="0"
       y="0"
       width="100%"
       height="100%" />
    <use
       transform="matrix(0.1992528,0,0,-0.1992528,239.62466,22.126022)"
       xlink:href="#CMR17-56"
       id="use74"
       style="fill:#008000;stroke-linecap:butt;stroke-linejoin:round;fill-opacity:1"
       x="0"
       y="0"
       width="100%"
       height="100%" />
    <use
       transform="matrix(0.1992528,0,0,-0.1992528,253.1906,22.126022)"
       xlink:href="#CMSY10-1"
       id="use76"
       style="fill:#008000;stroke-linecap:butt;stroke-linejoin:round;fill-opacity:1"
       x="0"
       y="0"
       width="100%"
       height="100%" />
    <use
       transform="matrix(0.1992528,0,0,-0.1992528,263.15326,22.126022)"
       xlink:href="#CMMI12-99"
       id="use78"
       style="fill:#008000;stroke-linecap:butt;stroke-linejoin:round;fill-opacity:1"
       x="0"
       y="0"
       width="100%"
       height="100%" />
    <use
       transform="matrix(0.1992528,0,0,-0.1992528,271.5499,22.126022)"
       xlink:href="#CMMI12-111"
       id="use80"
       style="fill:#008000;stroke-linecap:butt;stroke-linejoin:round;fill-opacity:1"
       x="0"
       y="0"
       width="100%"
       height="100%" />
    <use
       transform="matrix(0.1992528,0,0,-0.1992528,280.92896,22.126022)"
       xlink:href="#CMMI12-115"
       id="use82"
       style="fill:#008000;stroke-linecap:butt;stroke-linejoin:round;fill-opacity:1"
       x="0"
       y="0"
       width="100%"
       height="100%" />
    <use
       transform="matrix(0.1992528,0,0,-0.1992528,290.11898,22.126022)"
       xlink:href="#CMR17-40"
       id="use84"
       style="fill:#008000;stroke-linecap:butt;stroke-linejoin:round;fill-opacity:1"
       x="0"
       y="0"
       width="100%"
       height="100%" />
    <use
       transform="matrix(0.1992528,0,0,-0.1992528,297.17514,22.126022)"
       xlink:href="#CMR17-50"
       id="use86"
       style="fill:#008000;stroke-linecap:butt;stroke-linejoin:round;fill-opacity:1"
       x="0"
       y="0"
       width="100%"
       height="100%" />
    <use
       transform="matrix(0.1992528,0,0,-0.1992528,306.31322,22.126022)"
       xlink:href="#CMMI12-25"
       id="use88"
       style="fill:#008000;stroke-linecap:butt;stroke-linejoin:round;fill-opacity:1"
       x="0"
       y="0"
       width="100%"
       height="100%" />
    <use
       transform="matrix(0.1992528,0,0,-0.1992528,318.09534,22.126022)"
       xlink:href="#CMR17-48"
       id="use90"
       style="fill:#008000;stroke-linecap:butt;stroke-linejoin:round;fill-opacity:1"
       x="0"
       y="0"
       width="100%"
       height="100%" />
    <use
       transform="matrix(0.1992528,0,0,-0.1992528,327.23344,22.126022)"
       xlink:href="#CMMI12-58"
       id="use92"
       style="fill:#008000;stroke-linecap:butt;stroke-linejoin:round;fill-opacity:1"
       x="0"
       y="0"
       width="100%"
       height="100%" />
    <use
       transform="matrix(0.1992528,0,0,-0.1992528,332.65288,22.126022)"
       xlink:href="#CMR17-51"
       id="use94"
       style="fill:#008000;stroke-linecap:butt;stroke-linejoin:round;fill-opacity:1"
       x="0"
       y="0"
       width="100%"
       height="100%" />
    <use
       transform="matrix(0.1992528,0,0,-0.1992528,341.79098,22.126022)"
       xlink:href="#CMMI12-120"
       id="use96"
       style="fill:#008000;stroke-linecap:butt;stroke-linejoin:round;fill-opacity:1"
       x="0"
       y="0"
       width="100%"
       height="100%" />
    <use
       transform="matrix(0.1992528,0,0,-0.1992528,352.87778,22.126022)"
       xlink:href="#CMR17-41"
       id="use98"
       style="fill:#008000;stroke-linecap:butt;stroke-linejoin:round;fill-opacity:1"
       x="0"
       y="0"
       width="100%"
       height="100%" />
    <use
       transform="matrix(0.1992528,0,0,-0.1992528,364.36178,22.126022)"
       xlink:href="#CMR17-43"
       id="use100"
       style="fill:#000000;stroke-linecap:butt;stroke-linejoin:round"
       x="0"
       y="0"
       width="100%"
       height="100%" />
    <use
       transform="matrix(0.1992528,0,0,-0.1992528,383.13258,22.126022)"
       xlink:href="#CMR17-49"
       id="use102"
       style="fill:#bfbf00;stroke-linecap:butt;stroke-linejoin:round;fill-opacity:1"
       x="0"
       y="0"
       width="100%"
       height="100%" />
    <use
       transform="matrix(0.1992528,0,0,-0.1992528,392.27068,22.126022)"
       xlink:href="#CMMI12-58"
       id="use104"
       style="fill:#bfbf00;stroke-linecap:butt;stroke-linejoin:round;fill-opacity:1"
       x="0"
       y="0"
       width="100%"
       height="100%" />
    <use
       transform="matrix(0.1992528,0,0,-0.1992528,397.69012,22.126022)"
       xlink:href="#CMR17-52"
       id="use106"
       style="fill:#bfbf00;stroke-linecap:butt;stroke-linejoin:round;fill-opacity:1"
       x="0"
       y="0"
       width="100%"
       height="100%" />
    <use
       transform="matrix(0.1992528,0,0,-0.1992528,411.25604,22.126022)"
       xlink:href="#CMSY10-1"
       id="use108"
       style="fill:#bfbf00;stroke-linecap:butt;stroke-linejoin:round;fill-opacity:1"
       x="0"
       y="0"
       width="100%"
       height="100%" />
    <use
       transform="matrix(0.1992528,0,0,-0.1992528,421.2187,22.126022)"
       xlink:href="#CMMI12-99"
       id="use110"
       style="fill:#bfbf00;stroke-linecap:butt;stroke-linejoin:round;fill-opacity:1"
       x="0"
       y="0"
       width="100%"
       height="100%" />
    <use
       transform="matrix(0.1992528,0,0,-0.1992528,429.61536,22.126022)"
       xlink:href="#CMMI12-111"
       id="use112"
       style="fill:#bfbf00;stroke-linecap:butt;stroke-linejoin:round;fill-opacity:1"
       x="0"
       y="0"
       width="100%"
       height="100%" />
    <use
       transform="matrix(0.1992528,0,0,-0.1992528,438.99442,22.126022)"
       xlink:href="#CMMI12-115"
       id="use114"
       style="fill:#bfbf00;stroke-linecap:butt;stroke-linejoin:round;fill-opacity:1"
       x="0"
       y="0"
       width="100%"
       height="100%" />
    <use
       transform="matrix(0.1992528,0,0,-0.1992528,448.18442,22.126022)"
       xlink:href="#CMR17-40"
       id="use116"
       style="fill:#bfbf00;stroke-linecap:butt;stroke-linejoin:round;fill-opacity:1"
       x="0"
       y="0"
       width="100%"
       height="100%" />
    <use
       transform="matrix(0.1992528,0,0,-0.1992528,455.24058,22.126022)"
       xlink:href="#CMR17-50"
       id="use118"
       style="fill:#bfbf00;stroke-linecap:butt;stroke-linejoin:round;fill-opacity:1"
       x="0"
       y="0"
       width="100%"
       height="100%" />
    <use
       transform="matrix(0.1992528,0,0,-0.1992528,464.37868,22.126022)"
       xlink:href="#CMMI12-25"
       id="use120"
       style="fill:#bfbf00;stroke-linecap:butt;stroke-linejoin:round;fill-opacity:1"
       x="0"
       y="0"
       width="100%"
       height="100%" />
    <use
       transform="matrix(0.1992528,0,0,-0.1992528,476.1608,22.126022)"
       xlink:href="#CMR17-48"
       id="use122"
       style="fill:#bfbf00;stroke-linecap:butt;stroke-linejoin:round;fill-opacity:1"
       x="0"
       y="0"
       width="100%"
       height="100%" />
    <use
       transform="matrix(0.1992528,0,0,-0.1992528,485.29888,22.126022)"
       xlink:href="#CMMI12-58"
       id="use124"
       style="fill:#bfbf00;stroke-linecap:butt;stroke-linejoin:round;fill-opacity:1"
       x="0"
       y="0"
       width="100%"
       height="100%" />
    <use
       transform="matrix(0.1992528,0,0,-0.1992528,490.71832,22.126022)"
       xlink:href="#CMR17-56"
       id="use126"
       style="fill:#bfbf00;stroke-linecap:butt;stroke-linejoin:round;fill-opacity:1"
       x="0"
       y="0"
       width="100%"
       height="100%" />
    <use
       transform="matrix(0.1992528,0,0,-0.1992528,499.85642,22.126022)"
       xlink:href="#CMMI12-120"
       id="use128"
       style="fill:#bfbf00;stroke-linecap:butt;stroke-linejoin:round;fill-opacity:1"
       x="0"
       y="0"
       width="100%"
       height="100%" />
    <use
       transform="matrix(0.1992528,0,0,-0.1992528,510.94324,22.126022)"
       xlink:href="#CMR17-41"
       id="use130"
       style="fill:#bfbf00;stroke-linecap:butt;stroke-linejoin:round;fill-opacity:1"
       x="0"
       y="0"
       width="100%"
       height="100%" />
  </g>
</svg>
