<?xml version="1.0" encoding="UTF-8" standalone="no"?>
<!-- Created with matplotlib (https://matplotlib.org/) -->

<svg
   xmlns:dc="http://purl.org/dc/elements/1.1/"
   xmlns:cc="http://creativecommons.org/ns#"
   xmlns:rdf="http://www.w3.org/1999/02/22-rdf-syntax-ns#"
   xmlns:svg="http://www.w3.org/2000/svg"
   xmlns="http://www.w3.org/2000/svg"
   xmlns:xlink="http://www.w3.org/1999/xlink"
   xmlns:sodipodi="http://sodipodi.sourceforge.net/DTD/sodipodi-0.dtd"
   xmlns:inkscape="http://www.inkscape.org/namespaces/inkscape"
   height="38.268805pt"
   version="1.1"
   viewBox="0 0 553.492052 38.268805"
   width="553.492052pt"
   id="svg112"
   sodipodi:docname="2j_repr.svg"
   inkscape:version="0.92.3 (2405546, 2018-03-11)">
  <metadata
     id="metadata116">
    <rdf:RDF>
      <cc:Work
         rdf:about="">
        <dc:format>image/svg+xml</dc:format>
        <dc:type
           rdf:resource="http://purl.org/dc/dcmitype/StillImage" />
        <dc:title></dc:title>
      </cc:Work>
    </rdf:RDF>
  </metadata>
  <sodipodi:namedview
     pagecolor="#ffffff"
     bordercolor="#666666"
     borderopacity="1"
     objecttolerance="10"
     gridtolerance="10"
     guidetolerance="10"
     inkscape:pageopacity="0"
     inkscape:pageshadow="2"
     inkscape:window-width="1920"
     inkscape:window-height="997"
     id="namedview114"
     showgrid="false"
     inkscape:zoom="1.6639805"
     inkscape:cx="390.94094"
     inkscape:cy="-94.274001"
     inkscape:window-x="0"
     inkscape:window-y="120"
     inkscape:window-maximized="1"
     inkscape:current-layer="g108" />
  <defs
     id="defs4">
    <style
       type="text/css"
       id="style2">
*{stroke-linecap:butt;stroke-linejoin:round;}
  </style>
  </defs>
  <g
     id="figure_1">
    <g
       id="patch_1">
      <path
         d="M 0 38.268805  L 553.492052 38.268805  L 553.492052 -0  L 0 -0  z "
         style="fill:none;"
         id="path6" />
    </g>
    <g
       id="text_1">
      <!-- $a = a_5(32j) + a_4(16) + a_3(-8j) + a_2(-4) + a_1(2j) + a_0$ -->
      <defs
         id="defs24">
        <path
           d="M 30.09375 11.875  C 29.59375 10.171875 29.59375 9.984375 28.203125 8.078125  C 26 5.28125 21.59375 1 16.90625 1  C 12.796875 1 10.5 4.6875 10.5 10.578125  C 10.5 16.0625 13.59375 27.234375 15.5 31.4375  C 18.90625 38.421875 23.59375 42.015625 27.5 42.015625  C 34.09375 42.015625 35.40625 33.828125 35.40625 33.03125  C 35.40625 32.9375 35.09375 31.625 35 31.4375  z M 36.5 37.421875  C 35.40625 40.015625 32.703125 44 27.5 44  C 16.203125 44 4 29.4375 4 14.671875  C 4 4.796875 9.796875 -1 16.59375 -1  C 22.09375 -1 26.796875 3.296875 29.59375 6.59375  C 30.59375 0.703125 35.296875 -1 38.296875 -1  C 41.296875 -1 43.703125 0.796875 45.5 4.390625  C 47.09375 7.78125 48.5 13.875 48.5 14.265625  C 48.5 14.765625 48.09375 15.171875 47.5 15.171875  C 46.59375 15.171875 46.5 14.671875 46.09375 13.171875  C 44.59375 7.28125 42.703125 1 38.59375 1  C 35.703125 1 35.5 3.59375 35.5 5.59375  C 35.5 7.890625 35.796875 8.984375 36.703125 12.875  C 37.40625 15.375 37.90625 17.5625 38.703125 20.453125  C 42.40625 35.421875 43.296875 39.015625 43.296875 39.609375  C 43.296875 41.015625 42.203125 42.109375 40.703125 42.109375  C 37.5 42.109375 36.703125 38.625 36.5 37.421875  z "
           id="CMMI12-97" />
        <path
           d="M 64.296875 31.515625  C 65.796875 31.515625 67.296875 31.515625 67.296875 33.203125  C 67.296875 35 65.59375 35 63.90625 35  L 8 35  C 6.296875 35 4.59375 35 4.59375 33.203125  C 4.59375 31.515625 6.09375 31.515625 7.59375 31.515625  z M 63.90625 14  C 65.59375 14 67.296875 14 67.296875 15.796875  C 67.296875 17.484375 65.796875 17.484375 64.296875 17.484375  L 7.59375 17.484375  C 6.09375 17.484375 4.59375 17.484375 4.59375 15.796875  C 4.59375 14 6.296875 14 8 14  z "
           id="CMR17-61" />
        <path
           d="M 11.40625 57.6875  C 12.40625 57.28125 16.5 56 20.703125 56  C 30 56 35.09375 61.109375 38 64.0625  C 38 64.953125 38 65.5 37.40625 65.5  C 37.296875 65.5 37.09375 65.5 36.296875 65.046875  C 32.796875 63.40625 28.703125 62.078125 23.703125 62.078125  C 20.703125 62.078125 16.203125 62.484375 11.296875 64.671875  C 10.203125 65.171875 10 65.171875 9.90625 65.171875  C 9.40625 65.171875 9.296875 65.0625 9.296875 63.078125  L 9.296875 34.421875  C 9.296875 32.640625 9.296875 32.140625 10.296875 32.140625  C 10.796875 32.140625 11 32.34375 11.5 33.03125  C 14.703125 37.515625 19.09375 39.40625 24.09375 39.40625  C 27.59375 39.40625 35.09375 37.21875 35.09375 20.140625  C 35.09375 16.953125 35.09375 11.171875 32.09375 6.578125  C 29.59375 2.484375 25.703125 0.390625 21.40625 0.390625  C 14.796875 0.390625 8.09375 5 6.296875 12.71875  C 6.703125 12.609375 7.5 12.421875 7.90625 12.421875  C 9.203125 12.421875 11.703125 13.125 11.703125 16.21875  C 11.703125 18.90625 9.796875 20 7.90625 20  C 5.59375 20 4.09375 18.59375 4.09375 15.796875  C 4.09375 7.09375 11 -2 21.59375 -2  C 31.90625 -2 41.703125 6.875 41.703125 19.75  C 41.703125 31.71875 33.90625 41 24.203125 41  C 19.09375 41 14.796875 39.109375 11.40625 35.53125  z "
           id="CMR17-53" />
        <path
           d="M 30.59375 -24.390625  C 30.59375 -24.296875 30.59375 -24.09375 30.296875 -23.796875  C 25.703125 -19.125 13.40625 -6.359375 13.40625 24.703125  C 13.40625 55.765625 25.5 68.421875 30.40625 73.390625  C 30.40625 73.5 30.59375 73.703125 30.59375 74  C 30.59375 74.296875 30.296875 74.5 29.90625 74.5  C 28.796875 74.5 20.296875 67.125 15.40625 56.15625  C 10.40625 45.109375 9 34.359375 9 24.8125  C 9 17.625 9.703125 5.484375 15.703125 -7.359375  C 20.5 -17.734375 28.703125 -25 29.90625 -25  C 30.40625 -25 30.59375 -24.796875 30.59375 -24.390625  z "
           id="CMR17-40" />
        <path
           d="M 22.09375 33.703125  C 31 33.703125 34.90625 25.96875 34.90625 17.03125  C 34.90625 5 28.5 0.390625 22.703125 0.390625  C 17.40625 0.390625 8.796875 3.03125 6.09375 10.828125  C 6.59375 10.625 7.09375 10.625 7.59375 10.625  C 10 10.625 11.796875 12.21875 11.796875 14.8125  C 11.796875 17.703125 9.59375 19 7.59375 19  C 5.90625 19 3.296875 18.203125 3.296875 14.46875  C 3.296875 5.234375 12.296875 -2 22.90625 -2  C 34 -2 42.5 6.71875 42.5 16.953125  C 42.5 26.671875 34.5 33.703125 25 34.796875  C 32.59375 36.375 39.90625 43.0625 39.90625 52.015625  C 39.90625 59.6875 32 65.296875 23 65.296875  C 13.90625 65.296875 5.90625 59.828125 5.90625 52.015625  C 5.90625 48.59375 8.5 48 9.796875 48  C 11.90625 48 13.703125 49.296875 13.703125 51.890625  C 13.703125 54.46875 11.90625 55.765625 9.796875 55.765625  C 9.40625 55.765625 8.90625 55.765625 8.5 55.578125  C 11.40625 61.859375 19.296875 63 22.796875 63  C 26.296875 63 32.90625 61.328125 32.90625 51.875  C 32.90625 49.109375 32.5 44.1875 29.09375 39.84375  C 26.09375 36 22.703125 36 19.40625 35.6875  C 18.90625 35.6875 16.59375 35.453125 16.203125 35.453125  C 15.5 35.359375 15.09375 35.265625 15.09375 34.5  C 15.09375 33.796875 15.203125 33.703125 17.203125 33.703125  z "
           id="CMR17-51" />
        <path
           d="M 41.703125 15.453125  L 39.90625 15.453125  C 38.90625 8.375 38.09375 7.171875 37.703125 6.5625  C 37.203125 5.765625 30 5.765625 28.59375 5.765625  L 9.40625 5.765625  C 13 9.671875 20 16.75 28.5 24.953125  C 34.59375 30.734375 41.703125 37.53125 41.703125 47.421875  C 41.703125 59.21875 32.296875 66 21.796875 66  C 10.796875 66 4.09375 56.3125 4.09375 47.34375  C 4.09375 43.4375 7 42.9375 8.203125 42.9375  C 9.203125 42.9375 12.203125 43.546875 12.203125 47.03125  C 12.203125 50.109375 9.59375 51 8.203125 51  C 7.59375 51 7 50.90625 6.59375 50.703125  C 8.5 59.21875 14.296875 63.40625 20.40625 63.40625  C 29.09375 63.40625 34.796875 56.515625 34.796875 47.421875  C 34.796875 38.734375 29.703125 31.25 24 24.75  L 4.09375 2.28125  L 4.09375 0  L 39.296875 0  z "
           id="CMR17-50" />
        <path
           d="M 35 31.6875  C 35.40625 33.296875 35.40625 34.671875 35.40625 35.078125  C 35.40625 40.828125 31.09375 44 26.59375 44  C 16.5 44 11.09375 29.515625 11.09375 28.828125  C 11.09375 28.328125 11.5 27.9375 12.09375 27.9375  C 12.90625 27.9375 13 28.328125 13.5 29.3125  C 17.5 38.9375 22.5 42.015625 26.296875 42.015625  C 28.40625 42.015625 29.5 40.90625 29.5 37.453125  C 29.5 35.078125 29.203125 34.078125 28.796875 32.296875  L 19.296875 -5.109375  C 17.40625 -12.4375 12.703125 -18 7.203125 -18  C 6.796875 -18 4.703125 -18 2.796875 -17  C 5.203125 -16.5 7.09375 -14.625 7.09375 -12.25  C 7.09375 -10.65625 5.90625 -9.0625 3.703125 -9.0625  C 1.09375 -9.0625 -1.296875 -11.25 -1.296875 -14.234375  C -1.296875 -18.296875 3.09375 -20 7.203125 -20  C 14.09375 -20 23.203125 -14.9375 25.703125 -5  z M 39.09375 62.703125  C 39.09375 65.203125 37 66 35.796875 66  C 33.09375 66 30.796875 63.40625 30.796875 61.203125  C 30.796875 59.71875 32 57.921875 34.203125 57.921875  C 36.5 57.921875 39.09375 60.109375 39.09375 62.703125  z "
           id="CMMI12-106" />
        <path
           d="M 26.296875 24.703125  C 26.296875 31.875 25.59375 44.015625 19.59375 56.859375  C 14.796875 67.234375 6.59375 74.5 5.40625 74.5  C 5.09375 74.5 4.703125 74.390625 4.703125 73.890625  C 4.703125 73.703125 4.796875 73.59375 4.90625 73.390625  C 9.703125 68.40625 21.90625 55.75 21.90625 24.75  C 21.90625 -6.359375 9.796875 -19.015625 4.90625 -24.015625  C 4.796875 -24.203125 4.703125 -24.3125 4.703125 -24.5  C 4.703125 -25 5.09375 -25 5.40625 -25  C 6.5 -25 15 -17.625 19.90625 -6.65625  C 24.90625 4.390625 26.296875 15.140625 26.296875 24.703125  z "
           id="CMR17-41" />
        <path
           d="M 37.703125 23  L 64.203125 23  C 65.59375 23 67.296875 23 67.296875 24.6875  C 67.296875 26.484375 65.703125 26.484375 64.203125 26.484375  L 37.703125 26.484375  L 37.703125 52.90625  C 37.703125 54.296875 37.703125 56 36 56  C 34.203125 56 34.203125 54.40625 34.203125 52.90625  L 34.203125 26.484375  L 7.703125 26.484375  C 6.296875 26.484375 4.59375 26.484375 4.59375 24.796875  C 4.59375 23 6.203125 23 7.703125 23  L 34.203125 23  L 34.203125 -3.40625  C 34.203125 -4.796875 34.203125 -6.5 35.90625 -6.5  C 37.703125 -6.5 37.703125 -4.90625 37.703125 -3.40625  z "
           id="CMR17-43" />
        <path
           d="M 33.59375 64.40625  C 33.59375 66.5 33.5 66.5 31.703125 66.5  L 2 19.59375  L 2 17  L 27.796875 17  L 27.796875 7.140625  C 27.796875 3.5 27.59375 2.5 20.59375 2.5  L 18.703125 2.5  L 18.703125 0  C 21.90625 0 27.296875 0 30.703125 0  C 34.09375 0 39.5 0 42.703125 0  L 42.703125 2.5  L 40.796875 2.5  C 33.796875 2.5 33.59375 3.5 33.59375 7.140625  L 33.59375 17  L 43.796875 17  L 43.796875 19.59375  L 33.59375 19.59375  z M 28.09375 57.859375  L 28.09375 19.59375  L 4 19.59375  z "
           id="CMR17-52" />
        <path
           d="M 26.59375 63.40625  C 26.59375 65.5 26.5 65.5 25.09375 65.5  C 21.203125 61.1875 15.296875 59.796875 9.703125 59.796875  C 9.40625 59.796875 8.90625 59.796875 8.796875 59.5  C 8.703125 59.296875 8.703125 59.09375 8.703125 57  C 11.796875 57 17 57.59375 21 59.984375  L 21 7.203125  C 21 3.6875 20.796875 2.5 12.203125 2.5  L 9.203125 2.5  L 9.203125 0  C 14 0 19 0 23.796875 0  C 28.59375 0 33.59375 0 38.40625 0  L 38.40625 2.5  L 35.40625 2.5  C 26.796875 2.5 26.59375 3.59375 26.59375 7.15625  z "
           id="CMR17-49" />
        <path
           d="M 10.59375 34  C 10.59375 57.65625 21.796875 63 28.296875 63  C 30.40625 63 35.5 62.640625 37.5 59  C 35.90625 59 32.90625 59 32.90625 55.515625  C 32.90625 52.828125 35.09375 51.921875 36.5 51.921875  C 37.40625 51.921875 40.09375 52.3125 40.09375 55.625  C 40.09375 61.78125 35.09375 65.296875 28.203125 65.296875  C 16.296875 65.296875 3.796875 52.96875 3.796875 31  C 3.796875 3.953125 15.09375 -2 23.09375 -2  C 32.796875 -2 42 6.671875 42 20.046875  C 42 32.515625 33.90625 41.59375 23.703125 41.59375  C 17.59375 41.59375 13.09375 37.609375 10.59375 30.625  z M 23.09375 0.390625  C 10.796875 0.390625 10.796875 18.75 10.796875 22.4375  C 10.796875 29.625 14.203125 40 23.5 40  C 25.203125 40 30.09375 40 33.40625 33.125  C 35.203125 29.21875 35.203125 25.140625 35.203125 20.140625  C 35.203125 14.75 35.203125 10.78125 33.09375 6.78125  C 30.90625 2.671875 27.703125 0.390625 23.09375 0.390625  z "
           id="CMR17-54" />
        <path
           d="M 65.90625 23  C 67.59375 23 69.40625 23 69.40625 25  C 69.40625 27 67.59375 27 65.90625 27  L 11.796875 27  C 10.09375 27 8.296875 27 8.296875 25  C 8.296875 23 10.09375 23 11.796875 23  z "
           id="CMSY10-0" />
        <path
           d="M 27.203125 35.375  C 33.5 38.546875 39.90625 43.328125 39.90625 50.984375  C 39.90625 60.015625 31.09375 65.296875 23 65.296875  C 13.90625 65.296875 5.90625 58.734375 5.90625 49.6875  C 5.90625 47.203125 6.5 42.921875 10.40625 39.140625  C 11.40625 38.15625 15.59375 35.171875 18.296875 33.28125  C 13.796875 30.984375 3.296875 25.53125 3.296875 14.59375  C 3.296875 4.359375 13.09375 -2 22.796875 -2  C 33.5 -2 42.5 5.65625 42.5 15.78125  C 42.5 24.84375 36.40625 29.015625 32.40625 31.703125  z M 14.09375 44.09375  C 13.296875 44.59375 9.296875 47.671875 9.296875 52.359375  C 9.296875 58.421875 15.59375 63 22.796875 63  C 30.703125 63 36.5 57.4375 36.5 50.96875  C 36.5 41.703125 26.09375 36.421875 25.59375 36.421875  C 25.5 36.421875 25.40625 36.421875 24.59375 37.03125  z M 32.5 23.734375  C 34 22.640625 38.796875 19.375 38.796875 13.296875  C 38.796875 5.953125 31.40625 0.390625 23 0.390625  C 13.90625 0.390625 7 6.84375 7 14.6875  C 7 22.546875 13.09375 29.09375 20 32.1875  z "
           id="CMR17-56" />
        <path
           d="M 42 31.640625  C 42 37.75 41.90625 48.125 37.703125 56.109375  C 34 63.109375 28.09375 65.59375 22.90625 65.59375  C 18.09375 65.59375 12 63.40625 8.203125 56.203125  C 4.203125 48.71875 3.796875 39.4375 3.796875 31.640625  C 3.796875 25.953125 3.90625 17.28125 7 9.671875  C 11.296875 -0.609375 19 -2 22.90625 -2  C 27.5 -2 34.5 -0.109375 38.59375 9.375  C 41.59375 16.28125 42 24.359375 42 31.640625  z M 22.90625 -0.40625  C 16.5 -0.40625 12.703125 5.078125 11.296875 12.6875  C 10.203125 18.5625 10.203125 27.15625 10.203125 32.75  C 10.203125 40.4375 10.203125 46.828125 11.5 52.921875  C 13.40625 61.390625 19 64 22.90625 64  C 27 64 32.296875 61.296875 34.203125 53.125  C 35.5 47.4375 35.59375 40.734375 35.59375 32.75  C 35.59375 26.25 35.59375 18.265625 34.40625 12.375  C 32.296875 1.484375 26.40625 -0.40625 22.90625 -0.40625  z "
           id="CMR17-48" />
      </defs>
      <g
         transform="translate(7.2 26.418048)scale(0.24 -0.24)"
         id="g108">
        <use
           transform="translate(0 14.943915)scale(0.996264)"
           xlink:href="#CMMI12-97"
           id="use26" />
        <use
           transform="translate(78.881866 14.943915)scale(0.996264)"
           xlink:href="#CMR17-61"
           id="use28" />
        <use
           transform="translate(178.270663 14.943915)scale(0.996264)"
           xlink:href="#CMMI12-97"
           id="use30" />
        <use
           transform="translate(229.478521 0)scale(0.697382)"
           xlink:href="#CMR17-53"
           id="use32" />
        <use
           transform="translate(261.959835 14.943915)scale(0.996264)"
           xlink:href="#CMR17-40"
           id="use34" />
        <use
           transform="translate(297.240603 14.943915)scale(0.996264)"
           xlink:href="#CMR17-51"
           id="use36"
           style="fill:#ff0000" />
        <use
           transform="translate(342.93108 14.943915)scale(0.996264)"
           xlink:href="#CMR17-50"
           id="use38"
           style="fill:#ff0000" />
        <use
           transform="translate(388.621557 14.943915)scale(0.996264)"
           xlink:href="#CMMI12-106"
           id="use40"
           style="fill:#ff0000" />
        <use
           transform="translate(434.58404 14.943915)scale(0.996264)"
           xlink:href="#CMR17-41"
           id="use42" />
        <use
           transform="translate(492.004014 14.943915)scale(0.996264)"
           xlink:href="#CMR17-43"
           id="use44" />
        <use
           transform="translate(585.85801 14.943915)scale(0.996264)"
           xlink:href="#CMMI12-97"
           id="use46" />
        <use
           transform="translate(637.065867 0)scale(0.697382)"
           xlink:href="#CMR17-52"
           id="use48" />
        <use
           transform="translate(669.547181 14.943915)scale(0.996264)"
           xlink:href="#CMR17-40"
           id="use50" />
        <use
           transform="translate(704.827949 14.943915)scale(0.996264)"
           xlink:href="#CMR17-49"
           id="use52"
           style="fill:#1f77b4;fill-opacity:1" />
        <use
           transform="translate(750.518426 14.943915)scale(0.996264)"
           xlink:href="#CMR17-54"
           id="use54"
           style="fill:#1f77b4;fill-opacity:1" />
        <use
           transform="translate(796.208904 14.943915)scale(0.996264)"
           xlink:href="#CMR17-41"
           id="use56" />
        <use
           transform="translate(853.628878 14.943915)scale(0.996264)"
           xlink:href="#CMR17-43"
           id="use58" />
        <use
           transform="translate(947.482874 14.943915)scale(0.996264)"
           xlink:href="#CMMI12-97"
           id="use60" />
        <use
           transform="translate(998.690731 0)scale(0.697382)"
           xlink:href="#CMR17-51"
           id="use62" />
        <use
           transform="translate(1031.172045 14.943915)scale(0.996264)"
           xlink:href="#CMR17-40"
           id="use64" />
        <use
           transform="translate(1066.452813 14.943915)scale(0.996264)"
           xlink:href="#CMSY10-0"
           id="use66"
           style="fill:#ff0000" />
        <use
           transform="translate(1143.940281 14.943915)scale(0.996264)"
           xlink:href="#CMR17-56"
           id="use68"
           style="fill:#ff0000" />
        <use
           transform="translate(1189.630758 14.943915)scale(0.996264)"
           xlink:href="#CMMI12-106"
           id="use70"
           style="fill:#ff0000" />
        <use
           transform="translate(1235.59324 14.943915)scale(0.996264)"
           xlink:href="#CMR17-41"
           id="use72" />
        <use
           transform="translate(1293.013215 14.943915)scale(0.996264)"
           xlink:href="#CMR17-43"
           id="use74" />
        <use
           transform="translate(1386.867211 14.943915)scale(0.996264)"
           xlink:href="#CMMI12-97"
           id="use76" />
        <use
           transform="translate(1438.075068 0)scale(0.697382)"
           xlink:href="#CMR17-50"
           id="use78" />
        <use
           transform="translate(1470.556382 14.943915)scale(0.996264)"
           xlink:href="#CMR17-40"
           id="use80" />
        <use
           transform="translate(1505.83715 14.943915)scale(0.996264)"
           xlink:href="#CMSY10-0"
           id="use82"
           style="fill:#1f77b4;fill-opacity:1" />
        <use
           transform="translate(1583.324618 14.943915)scale(0.996264)"
           xlink:href="#CMR17-52"
           id="use84"
           style="fill:#1f77b4;fill-opacity:1" />
        <use
           transform="translate(1629.015095 14.943915)scale(0.996264)"
           xlink:href="#CMR17-41"
           id="use86" />
        <use
           transform="translate(1686.43507 14.943915)scale(0.996264)"
           xlink:href="#CMR17-43"
           id="use88" />
        <use
           transform="translate(1780.289065 14.943915)scale(0.996264)"
           xlink:href="#CMMI12-97"
           id="use90" />
        <use
           transform="translate(1831.496923 0)scale(0.697382)"
           xlink:href="#CMR17-49"
           id="use92" />
        <use
           transform="translate(1863.978237 14.943915)scale(0.996264)"
           xlink:href="#CMR17-40"
           id="use94" />
        <use
           transform="translate(1899.259004 14.943915)scale(0.996264)"
           xlink:href="#CMR17-50"
           id="use96"
           style="fill:#ff0000" />
        <use
           transform="translate(1944.949481 14.943915)scale(0.996264)"
           xlink:href="#CMMI12-106"
           id="use98"
           style="fill:#ff0000" />
        <use
           transform="translate(1990.911964 14.943915)scale(0.996264)"
           xlink:href="#CMR17-41"
           id="use100" />
        <use
           transform="translate(2048.331939 14.943915)scale(0.996264)"
           xlink:href="#CMR17-43"
           id="use102" />
        <use
           transform="translate(2142.185934 14.943915)scale(0.996264)"
           xlink:href="#CMMI12-97"
           id="use104" />
        <use
           transform="translate(2193.393792 0)scale(0.697382)"
           xlink:href="#CMR17-48"
           id="use106" />
      </g>
    </g>
  </g>
</svg>
